M48
INCH,TZ
T01C0.013750
T02C0.021650
T03C0.026600
T04C0.032500
T05C0.039200
T06C0.043300
T07C0.059100
T08C0.070900
T09C0.119050
T10C0.126000
%
T01
X12599Y19084
X12805Y19429
X13101Y18966
X14498Y18996
X13018Y30945
X13412Y30945
X14538Y25265
X15010Y25265
X15483Y25265
X15955Y25265
X16270Y2884
X16270Y2490
X17368Y30945
X17762Y30945
X18032Y15197
X18032Y14882
X18032Y14567
X18032Y14252
X18032Y13937
X18032Y13622
X18032Y13307
X18032Y12992
X18032Y12677
X18032Y12362
X18032Y12047
X18032Y11732
X18032Y11417
X18032Y11102
X18032Y10472
X18032Y9921
X18032Y9606
X18032Y9291
X18032Y8976
X18032Y8661
X18032Y8346
X18032Y16889
X18032Y10787
X18189Y5512
X18504Y5512
X18819Y5512
X18888Y25265
X19134Y5512
X19360Y25265
X19449Y5512
X19764Y5512
X19833Y25265
X20079Y5512
X20305Y25265
X20394Y5512
X20630Y19449
X20709Y5512
X21024Y5512
X21103Y19449
X21339Y5512
X21575Y19449
X21654Y5512
X22047Y19449
X22520Y19449
X22599Y5512
X22914Y5512
X22992Y19449
X23229Y5512
X23465Y19449
X23544Y5512
X23859Y5512
X23937Y19449
X24173Y5512
X24410Y19449
X24488Y5512
X24803Y5512
X24882Y19449
X25118Y5512
X25355Y19449
X25827Y19449
X26299Y19449
X26772Y19449
X26811Y5512
X27244Y19449
X27717Y19449
X27874Y5512
X28189Y19449
X28268Y5512
X28662Y19449
X29134Y19449
X29607Y19449
X30079Y19449
X30581Y29380
X30955Y29380
X30975Y32805
X31024Y19449
X31181Y18464
X31181Y18071
X31181Y13858
X31181Y13464
X31181Y13071
X31181Y12677
X31181Y12283
X31181Y11889
X31181Y11496
X31181Y11102
X31181Y10078
X31181Y9763
X31181Y7913
X31181Y7362
X31181Y5512
X31329Y32805
X31329Y29380
X34301Y16401
X34695Y16401
X35089Y16401
X35986Y16401
X36386Y16401
X37313Y26870
X37707Y26870
X38101Y26870
X38494Y26870
X236Y30433
X256Y24409
X264Y3729
X409Y17086
X433Y32716
X512Y27775
X630Y36732
X703Y13794
X941Y27138
X941Y25689
X941Y23641
X961Y22283
X982Y20202
X985Y3543
X988Y8441
X1063Y7283
X1066Y8059
X1103Y6102
X1181Y17677
X1260Y33563
X1614Y21004
X1648Y17697
X1654Y8976
X1756Y18201
X2225Y27145
X2225Y23641
X2244Y25866
X2244Y20216
X2253Y22509
X2254Y19015
X2284Y8897
X2286Y17634
X2313Y7267
X2481Y33425
X2481Y866
X2520Y4449
X2546Y14682
X2623Y31283
X2658Y16760
X2658Y36309
X2677Y32185
X2756Y5551
X2835Y8858
X2914Y1063
X2947Y6465
X3177Y16788
X3248Y14901
X3268Y1417
X3410Y17174
X3410Y33458
X3504Y4409
X3544Y3582
X3544Y2637
X3583Y8858
X3583Y6456
X3603Y33070
X3772Y5714
X4180Y5190
X4323Y8901
X4331Y6456
X4410Y1889
X4539Y11502
X4607Y30787
X4666Y27480
X4671Y20816
X4705Y22519
X4764Y25826
X4764Y10945
X4843Y5236
X4922Y3543
X5040Y11850
X5079Y9055
X5355Y2756
X5355Y1889
X5373Y37930
X5433Y16456
X5433Y5157
X5453Y8819
X5473Y5984
X5709Y39252
X5709Y10000
X5835Y27527
X5906Y8897
X6142Y5197
X6142Y2756
X6142Y1889
X6162Y6949
X6575Y10197
X6666Y29531
X6847Y17743
X6890Y1889
X6929Y2756
X7008Y32480
X7047Y35275
X7047Y27441
X7087Y30354
X7126Y7283
X7382Y23208
X7440Y20246
X7441Y25984
X7481Y5275
X7796Y19645
X7796Y17716
X7796Y17047
X7815Y22775
X7835Y25590
X7839Y11421
X7953Y2283
X8189Y27637
X8268Y30590
X8268Y29567
X8333Y30117
X8390Y977
X8485Y32106
X8583Y28897
X8646Y11409
X8701Y14134
X8701Y3189
X8740Y2778
X8819Y3622
X8918Y28189
X8977Y5669
X9016Y32756
X9055Y826
X9213Y14645
X9410Y1929
X9449Y1181
X9567Y7283
X9666Y30610
X9722Y9655
X9764Y31968
X9922Y39330
X9941Y28681
X10114Y30155
X10197Y12362
X10217Y20547
X10236Y26122
X10236Y23346
X10236Y18346
X10236Y17795
X10276Y24291
X10296Y21532
X10296Y18775
X10296Y15982
X10296Y13264
X10315Y15078
X10433Y26752
X10709Y18335
X10866Y23819
X10866Y15512
X10906Y21023
X10906Y12756
X10945Y28681
X10945Y11693
X11142Y11338
X11339Y21043
X11415Y20548
X11496Y15039
X11516Y14134
X11536Y23346
X11575Y26122
X11575Y10315
X11599Y12161
X11811Y12952
X11890Y26929
X11929Y30157
X11949Y28661
X11969Y10590
X12126Y13267
X12126Y11949
X12205Y11299
X12225Y24842
X12343Y22362
X12362Y17362
X12382Y16594
X12441Y14882
X12520Y31575
X12914Y22362
X12933Y12303
X13032Y24882
X13189Y35535
X13272Y17342
X13760Y10571
X13790Y11544
X14016Y22362
X14331Y31456
X14415Y14849
X14547Y13189
X14708Y11304
X14882Y32086
X14979Y19472
X15158Y14094
X15204Y10457
X15236Y13307
X15433Y17244
X15512Y31417
X15591Y10118
X15630Y13897
X15945Y21811
X15985Y32519
X16103Y19645
X16280Y35571
X16365Y9625
X16378Y30118
X16378Y27795
X16418Y12992
X16418Y25315
X16418Y16417
X16418Y14567
X16418Y10039
X16534Y18008
X16536Y7401
X16575Y2047
X16589Y3273
X16614Y4370
X16634Y4763
X16811Y31456
X17126Y23740
X17203Y39208
X17225Y4311
X17303Y8189
X17362Y18700
X17461Y5760
X17539Y4887
X17539Y4513
X17638Y15708
X17638Y826
X17677Y18307
X17717Y6771
X17740Y10260
X17972Y4411
X18055Y23760
X18307Y2716
X18622Y31456
X18701Y1929
X18750Y4761
X19016Y20866
X19016Y866
X19252Y3031
X19449Y32716
X20040Y20905
X20040Y35866
X20068Y22797
X20158Y31417
X20158Y5157
X20158Y1181
X20431Y3183
X20630Y32716
X20630Y29842
X20709Y1929
X20748Y26102
X20866Y984
X21536Y39252
X21614Y28740
X21637Y27281
X21851Y32165
X21890Y2992
X21929Y5236
X21969Y866
X22061Y28498
X22279Y4055
X22481Y36023
X22992Y32716
X23032Y21968
X23110Y29488
X23662Y3740
X23819Y29838
X23937Y21811
X24213Y32047
X24213Y25197
X24406Y4389
X24567Y29212
X24567Y23582
X24803Y26535
X25040Y5039
X25276Y32677
X25827Y5197
X25965Y35535
X26418Y30393
X26687Y28228
X26693Y26575
X26693Y37244
X26811Y945
X27166Y39330
X27205Y25905
X27323Y5157
X27905Y4811
X27914Y24645
X28425Y22834
X28662Y28110
X28859Y32559
X29449Y26456
X30118Y2992
X30276Y22992
X30355Y5157
X30516Y20669
X30551Y27795
X30551Y19744
X30551Y24645
X30709Y22204
X31024Y984
X31103Y24409
X31299Y25905
X31457Y19015
X31457Y17598
X31496Y14409
X31496Y10590
X31536Y13504
X31536Y9330
X31536Y8386
X31536Y3937
X31575Y7637
X31575Y6929
X31614Y21102
X31758Y30951
X32755Y33057
X32835Y9173
X32897Y35253
X32914Y945
X32973Y27657
X33032Y26456
X33110Y16076
X33155Y18152
X33189Y11338
X33307Y26889
X33307Y13425
X33347Y33057
X33347Y17598
X33396Y18740
X33425Y39449
X33425Y22244
X33701Y27283
X33819Y33031
X33898Y1023
X34607Y27323
X34862Y16043
X35079Y12165
X35158Y27323
X35433Y8779
X35551Y13819
X35670Y27323
X36418Y984
X37047Y27401
X37047Y13779
X37599Y28838
X37835Y10078
X37992Y36220
X37992Y35236
X37992Y34252
X37992Y29232
X38071Y15945
X38150Y14685
X38248Y7008
X38386Y13228
X38504Y6417
X38662Y30000
X38717Y34728
X38937Y36811
X38977Y13976
X39134Y27362
X39134Y16023
X11772Y1649
X11500Y2285
X11714Y2670
X11073Y3099
X11033Y3435
X11230Y4025
X11506Y4281
X11624Y4812
X11230Y5108
X11033Y4616
X11033Y5797
X11033Y7372
X11506Y7352
X12617Y7644
X13664Y7619
X13986Y7331
X15039Y7256
X16151Y7372
X16939Y7372
X16466Y6368
X15821Y6362
X15881Y5116
X16348Y5206
X16516Y4726
X16939Y5009
X16517Y3841
X17213Y3669
X17254Y3277
X17254Y2883
X16572Y2977
X16262Y2488
X16649Y2171
X16252Y1741
X15863Y2120
X15788Y2844
X15836Y3277
X14520Y2292
X14520Y1663
X13601Y1649
X12746Y1649
X12969Y2291
X13553Y3316
X13946Y4763
X13199Y4812
X13632Y5322
X14221Y6320
X15167Y8277
X16099Y8344
X16545Y7962
X16939Y8553
X16112Y9340
X14113Y9508
X14071Y9102
X13284Y9092
X13019Y8689
X11582Y8766
X11991Y8131
X11151Y7898
X31418Y33193
X31671Y33041
X31958Y33199
X32313Y33199
X31979Y32197
X31874Y31923
X32087Y31680
X31574Y32230
X32314Y30751
X32313Y29774
X31939Y29774
X31565Y29774
X19498Y31348
X21144Y31321
X20315Y31299
X17791Y30577
X18548Y30568
X19327Y30542
X21156Y30494
X20224Y30492
X19522Y30320
X21128Y30146
X17919Y30059
X19234Y30029
X17785Y29754
X21319Y29698
X19772Y29621
X18526Y29610
X20847Y29456
X19836Y29333
X19813Y29039
X20214Y28797
X19408Y28665
X19734Y28612
X19016Y28602
X17933Y28582
X18305Y28532
X18655Y28492
X19313Y28271
X17785Y27962
X19360Y27893
X19784Y27579
X19498Y27460
X18994Y27362
X20457Y27340
X17945Y27297
X19754Y27274
X21128Y27205
X21069Y26909
X19799Y26726
X21298Y26714
X18425Y26387
X18417Y25911
X18248Y25669
X18661Y25659
X17766Y25643
X18746Y31338
X18352Y31338
X21289Y25659
X20817Y25659
X20345Y25659
X19872Y25659
X15502Y31210
X13534Y31210
X16841Y31171
X15424Y30344
X14361Y30187
X13534Y30069
X16841Y29832
X15935Y29439
X14951Y29399
X14321Y28848
X13534Y28809
X16841Y28415
X16132Y28179
X13534Y28100
X15441Y28014
X13888Y27588
X14754Y27077
X13809Y26840
X16841Y26683
X13534Y26368
X16016Y26050
X15148Y25777
X13809Y25777
X14396Y31338
X14002Y31338
X16939Y25659
X16467Y25659
X15995Y25659
X15522Y25659
X37746Y16732
X34816Y16807
X36486Y16851
X39852Y16851
X39662Y17084
X38382Y17140
X38071Y17140
X35048Y17294
X36639Y17522
X35941Y17614
X38569Y17677
X39502Y17814
X39774Y18106
X34734Y18209
X35371Y18255
X35748Y18297
X37055Y18372
X38292Y18376
X39813Y18652
X37727Y18733
X39016Y18858
X37067Y18918
X36020Y18927
X37777Y19036
X39852Y19134
X34729Y19931
X39045Y20099
X37240Y20389
X36301Y20619
X37801Y20620
X37008Y20621
X36765Y20827
X39951Y20847
X37106Y20905
X35729Y21212
X37864Y21420
X35780Y21509
X39921Y21634
X36427Y21650
X35774Y21819
X39207Y21837
X37825Y21910
X36825Y21969
X36150Y22122
X39124Y22126
X38391Y22427
X35425Y22445
X35124Y22453
X39931Y22825
X35293Y23032
X34708Y23057
X35592Y23066
X34927Y23323
X36569Y23461
X37416Y23507
X37929Y23577
X38829Y23577
X39130Y23577
X39431Y23577
X39732Y23577
X38337Y23581
X36801Y23957
X37018Y24213
X39973Y26288
X38224Y26505
X34971Y26545
X35384Y26693
X38317Y26792
X35965Y26831
X36240Y26831
X36516Y26831
X35404Y27008
X39980Y27028
X35965Y27136
X36240Y27136
X34990Y27333
X35285Y16795
X35679Y16795
X36073Y16795
X36971Y16795
X37371Y16795
X38297Y27264
X38691Y27264
X39085Y27264
X39478Y27264
X32008Y19843
X31532Y19812
X31300Y19622
X31064Y19843
X30827Y19642
X30591Y19843
X30355Y19642
X30119Y19843
X29882Y19642
X29646Y19843
X29410Y19642
X29174Y19843
X28938Y19642
X28701Y19843
X28465Y19642
X28229Y19843
X27993Y19642
X27756Y19843
X27520Y19642
X27284Y19843
X27048Y19642
X26812Y19843
X26575Y19642
X26339Y19843
X26103Y19642
X25867Y19843
X25630Y19642
X25394Y19843
X25158Y19642
X24922Y19843
X24686Y19642
X24449Y19843
X24213Y19642
X23977Y19843
X23741Y19642
X23504Y19843
X23268Y19642
X23032Y19843
X22796Y19642
X22560Y19843
X22323Y19642
X22087Y19843
X21851Y19642
X21615Y19843
X21300Y19685
X21307Y19150
X21734Y18956
X22185Y18946
X22627Y18939
X23100Y18941
X23605Y17894
X23915Y17894
X24162Y18367
X24760Y18164
X25056Y18155
X24899Y17884
X24782Y17202
X25037Y16934
X25134Y16393
X24695Y16393
X24235Y16513
X24235Y16181
X24235Y15886
X24241Y15595
X23911Y14911
X23366Y14915
X23504Y14331
X24134Y14410
X24204Y13578
X24219Y13192
X24567Y13386
X24801Y13586
X25058Y13153
X25751Y12852
X26349Y12835
X26696Y13131
X27471Y12956
X27453Y13511
X27463Y14058
X28171Y13931
X28126Y13132
X28152Y12367
X28174Y11557
X27471Y11517
X27471Y11802
X27471Y12087
X27471Y11216
X26683Y10900
X26696Y10615
X26728Y10317
X26678Y9835
X26274Y9784
X25644Y9306
X25267Y9318
X24331Y9174
X24006Y9774
X23798Y9571
X23816Y10098
X23458Y10145
X24009Y10329
X24215Y11472
X24438Y11701
X24484Y12384
X24775Y12395
X24288Y12603
X23619Y12603
X22753Y12792
X22559Y13006
X22355Y13210
X22153Y13412
X22156Y12599
X22603Y12134
X22616Y11433
X22240Y11531
X22363Y11063
X22565Y10526
X22325Y10300
X22131Y9902
X22323Y9646
X22424Y9263
X22464Y8957
X22166Y9055
X21662Y9257
X21606Y9558
X21662Y10120
X21515Y10365
X21772Y10748
X21790Y11239
X20562Y11631
X20252Y11945
X20434Y12166
X20469Y12686
X19016Y12756
X19016Y12441
X19016Y12126
X19016Y11811
X19016Y11496
X19016Y11181
X19016Y10867
X19155Y10589
X19016Y10315
X19016Y10000
X19016Y9685
X19016Y9370
X19016Y9055
X19016Y8741
X19373Y8653
X19156Y8409
X19465Y7707
X19469Y6772
X19842Y6728
X19844Y7013
X20217Y6772
X20119Y5906
X20434Y5906
X20749Y5906
X21064Y5906
X21378Y5906
X21693Y5906
X22008Y5906
X22323Y5906
X22638Y5906
X23229Y6103
X23583Y5906
X23898Y5906
X24213Y5906
X24528Y5906
X24843Y5906
X25158Y5906
X25473Y5906
X25788Y5906
X26103Y5906
X26615Y5945
X26521Y6600
X26919Y6636
X27264Y6591
X27543Y6893
X27485Y6138
X27796Y5906
X28859Y5906
X29253Y5906
X29614Y5930
X29606Y6393
X29836Y6838
X29917Y7711
X30357Y7488
X29171Y7176
X28708Y6857
X28751Y7708
X28308Y7756
X27823Y8184
X27815Y8469
X27747Y8829
X27744Y9125
X28474Y9026
X28465Y9410
X28474Y9735
X28135Y10063
X28474Y10443
X28458Y10795
X28478Y11090
X28161Y10772
X29156Y10344
X29159Y9900
X30335Y10044
X30315Y10565
X30316Y10954
X29491Y11419
X29191Y11380
X29168Y11833
X29168Y12120
X29168Y12407
X29168Y12823
X29168Y13109
X29150Y13533
X29150Y13841
X29150Y14130
X28926Y14870
X28646Y14965
X28334Y15360
X28632Y15680
X28632Y16246
X28639Y16532
X28548Y17193
X28751Y17938
X28583Y18170
X28883Y18205
X29508Y18369
X29804Y18369
X30430Y18164
X30716Y18164
X30552Y17881
X30448Y17205
X30607Y16936
X30787Y16359
X30311Y16359
X29825Y16513
X29825Y16181
X29825Y15886
X29832Y15595
X30595Y15373
X30591Y14996
X31394Y14988
X31367Y15322
X31662Y14890
X32141Y14847
X32166Y14252
X32166Y13859
X32166Y13465
X32166Y13071
X32166Y12678
X32166Y12284
X32166Y11890
X32166Y11496
X32127Y10867
X32166Y10473
X32166Y10158
X32166Y9784
X32038Y9301
X32127Y8937
X32166Y8307
X31882Y8197
X32166Y7756
X32145Y6594
X32166Y5906
X31142Y9174
X31016Y9469
X30147Y8984
X28155Y8692
X27278Y8244
X27146Y7855
X26808Y7926
X26385Y8248
X25945Y8347
X25204Y8269
X24676Y7333
X24536Y7054
X24465Y6747
X24203Y7437
X23372Y7408
X23180Y7083
X22436Y7429
X22510Y8277
X22216Y8277
X21925Y8277
X20739Y8219
X20709Y7756
X20984Y7225
X21010Y6321
X22120Y6194
X19804Y5906
X19489Y5906
X19174Y5906
X20368Y8810
X20524Y9049
X20296Y9341
X20079Y9768
X20520Y9766
X20618Y10450
X20102Y10739
X19826Y10185
X19815Y11394
X19016Y13071
X19016Y13386
X19016Y13701
X19016Y14016
X19016Y14331
X19016Y14646
X19016Y14961
X19016Y15276
X19016Y15591
X19535Y16205
X19095Y16811
X19016Y17284
X19587Y17882
X19587Y18201
X19587Y18519
X19587Y18837
X19587Y19156
X19951Y19482
X19233Y19525
X20829Y18694
X20696Y18115
X21260Y17205
X21493Y16501
X21479Y16181
X21484Y15893
X21485Y15595
X22272Y15373
X22281Y14960
X22791Y15345
X23081Y15561
X23081Y16134
X23044Y16520
X22440Y16386
X21940Y16393
X22280Y16939
X22159Y17605
X22476Y17605
X22822Y17605
X21812Y17616
X23623Y17205
X25839Y16520
X25837Y16121
X25837Y15682
X25755Y15298
X25028Y15320
X25079Y15038
X26221Y14906
X26545Y14898
X26567Y14406
X26977Y14686
X27048Y15515
X27025Y15886
X27038Y16181
X27048Y16681
X27343Y16418
X28012Y16373
X27812Y16915
X27883Y17791
X27652Y18371
X26942Y18164
X26650Y18164
X26792Y17874
X26669Y17205
X26023Y18325
X25695Y18376
X27690Y15367
X27889Y14961
X29502Y14911
X30036Y14292
X30036Y13531
X30036Y12770
X30035Y12008
X26352Y12061
X26556Y11736
X26394Y10848
X27473Y9748
X26674Y7125
X26230Y7221
X26137Y7491
X25934Y7128
X23428Y8470
X23370Y8753
X21797Y14286
X21418Y13937
X20331Y14082
X20380Y14811
X20692Y14779
X21155Y14911
X19620Y14604
X25942Y13549
X31428Y16093
X31390Y16558
X31672Y16880
X32163Y16919
X31565Y17471
X31831Y17783
X32166Y18465
X32166Y18859
X32146Y19444
X31575Y19252
X31378Y18369
X32038Y15561
X13789Y19823
X13582Y19479
X14084Y19360
X15482Y19390
T02
X433Y38582
X433Y1968
X710Y39251
X710Y37914
X710Y2636
X710Y1300
X1378Y39527
X1378Y37637
X1378Y2913
X1378Y1023
X2046Y39251
X2046Y37914
X2046Y2636
X2046Y1300
X2323Y38582
X2323Y1968
X37047Y38582
X37047Y1968
X37324Y39251
X37324Y37914
X37324Y2636
X37324Y1300
X37992Y39527
X37992Y37637
X37992Y2913
X37992Y1023
X38661Y39251
X38661Y37914
X38661Y2636
X38661Y1300
X38937Y38582
X38937Y1968
X17985Y3604G85X17985Y3171
X17985Y1860G85X17985Y1624
X21386Y3604G85X21386Y3171
X21386Y1860G85X21386Y1624
T03
X22638Y2756
X22638Y2126
X23327Y3071
X23327Y2441
X23327Y1811
X22727Y3878G85X23238Y3878
X22727Y1004G85X23238Y1004
X18547Y3191
X20823Y3191
T04
X7244Y8248
X7244Y6319
X7303Y9488
X8110Y8248
X8110Y6319
X8977Y8248
X8977Y6319
X9233Y9488
X17116Y3139
X17116Y1639
X23427Y28287
X23427Y27287
X23427Y26287
X23427Y25287
X23427Y24287
X23427Y23287
X32677Y5708
X32677Y4724
X32677Y3740
X32677Y2756
X32677Y1771
X26071Y14548
X24493Y14548
X23071Y14548
T05
X1181Y5118
X2181Y5118
X3181Y5118
X4242Y31279
X4242Y30279
X4242Y27972
X4242Y26972
X4242Y24665
X4242Y23665
X4242Y21358
X4242Y20358
X4242Y15374
X4242Y14374
X4508Y35718
X4508Y34718
X5242Y31279
X5242Y30279
X5242Y27972
X5242Y26972
X5242Y24665
X5242Y23665
X5242Y21358
X5242Y20358
X5242Y15374
X5242Y14374
X5508Y35718
X5508Y34718
X7815Y35718
X7815Y34718
X8815Y35718
X8815Y34718
X9055Y4921
X9990Y8966
X9990Y8238
X9990Y6289
X9990Y1545
X11122Y35718
X11122Y34718
X12122Y35718
X12122Y34718
X12599Y23228
X13740Y23228
X14429Y35718
X14429Y34718
X15378Y18700
X15429Y35718
X15429Y34718
X15551Y24260
X15551Y23260
X15551Y22260
X15551Y21260
X15551Y20260
X16093Y8789
X16093Y6269
X16093Y5521
X16093Y3828
X16093Y1368
X16378Y18700
X16551Y24260
X16551Y23260
X16551Y22260
X16551Y21260
X16551Y20260
X17551Y24260
X17551Y23260
X17551Y22260
X17551Y21260
X17551Y20260
X18551Y24260
X18551Y23260
X18551Y22260
X18551Y21260
X18551Y20260
X19551Y24260
X19551Y23260
X19551Y22260
X19551Y21260
X19551Y20260
X20551Y24260
X20551Y23260
X20551Y22260
X20551Y21260
X20551Y20260
X24075Y35718
X24075Y34718
X24607Y3543
X24607Y1575
X25075Y35718
X25075Y34718
X27382Y35718
X27382Y34718
X28382Y35718
X28382Y34718
X30689Y35718
X30689Y34718
X31689Y35718
X31689Y34718
X32756Y10039
X32756Y8189
X33642Y15512
X33996Y35718
X33996Y34718
X34144Y31437
X34144Y30437
X34642Y15512
X34996Y35718
X34996Y34718
X35144Y31437
X35144Y30437
X35642Y15512
X36642Y15512
X37642Y15512
X38642Y15512
X10974Y1938
X10974Y6683
X17077Y6663
X17077Y5915
X17077Y4222
X17077Y1761
X17077Y9183
X10974Y9360
X10974Y8631
X38967Y24118
X37785Y24906
X38967Y25693
X39045Y16992
X38645Y18992
X39445Y18992
X31851Y6221
X22772Y7192
X22772Y6392
X20772Y6792
T06
X35158Y23941
X35158Y24941
X35158Y25941
T07
X36221Y12047
X36221Y9094
T08
X3652Y31614
X3652Y29960
X3652Y28307
X3652Y26653
X3652Y25000
X3652Y23346
X3652Y21693
X3652Y20039
X3652Y18386
X3652Y15708
X3652Y14055
X3652Y12401
X3652Y10748
X4173Y36309
X4173Y34143
X5817Y31614
X5817Y29960
X5817Y28307
X5817Y26653
X5817Y25000
X5817Y23346
X5817Y21693
X5817Y20039
X5817Y18386
X5817Y15708
X5817Y14055
X5817Y12401
X5817Y10748
X5827Y36309
X5827Y34143
X7481Y36309
X7481Y34143
X9134Y36309
X9134Y34143
X10788Y36309
X10788Y34143
X12441Y36309
X12441Y34143
X14095Y36309
X14095Y34143
X15748Y36309
X15748Y34143
X17402Y36309
X17402Y34143
X19055Y36309
X19055Y34143
X23740Y36309
X23740Y34143
X25394Y36309
X25394Y34143
X27047Y36309
X27047Y34143
X28701Y36309
X28701Y34143
X30355Y36309
X30355Y34143
X32008Y36309
X32008Y34143
X33553Y31771
X33553Y30118
X33553Y28464
X33662Y36309
X33662Y34143
X35315Y36309
X35315Y34143
X35719Y31771
X35719Y30118
X35719Y28464
T09
X25244Y22952
X25394Y28858
X28427Y30287
X28427Y21287
X778Y31614
X778Y18386
X778Y15708
X778Y10748
X4173Y39183
X19055Y39183
X23740Y39183
X35315Y39183
X38593Y31771
X38593Y28464
T10
X1378Y38582
X1378Y1968
X37992Y38582
X37992Y1968
M30
