G75*
G70*
%OFA0B0*%
%FSLAX25Y25*%
%IPPOS*%
%LPD*%
%AMOC8*
5,1,8,0,0,1.08239X$1,22.5*
%
%AMM1*
21,1,0.086610,0.073230,0.000000,0.000000,270.000000*
21,1,0.069290,0.090550,0.000000,0.000000,270.000000*
1,1,0.017320,-0.036610,-0.034650*
1,1,0.017320,-0.036610,0.034650*
1,1,0.017320,0.036610,0.034650*
1,1,0.017320,0.036610,-0.034650*
%
%AMM10*
21,1,0.015750,0.016540,0.000000,0.000000,270.000000*
21,1,0.012600,0.019680,0.000000,0.000000,270.000000*
1,1,0.003150,-0.008270,-0.006300*
1,1,0.003150,-0.008270,0.006300*
1,1,0.003150,0.008270,0.006300*
1,1,0.003150,0.008270,-0.006300*
%
%AMM11*
21,1,0.023620,0.018900,0.000000,0.000000,90.000000*
21,1,0.018900,0.023620,0.000000,0.000000,90.000000*
1,1,0.004720,0.009450,0.009450*
1,1,0.004720,0.009450,-0.009450*
1,1,0.004720,-0.009450,-0.009450*
1,1,0.004720,-0.009450,0.009450*
%
%AMM117*
21,1,0.021650,0.052760,0.000000,-0.000000,180.000000*
21,1,0.017320,0.057090,0.000000,-0.000000,180.000000*
1,1,0.004330,-0.008660,0.026380*
1,1,0.004330,0.008660,0.026380*
1,1,0.004330,0.008660,-0.026380*
1,1,0.004330,-0.008660,-0.026380*
%
%AMM12*
21,1,0.019680,0.019680,0.000000,0.000000,0.000000*
21,1,0.015750,0.023620,0.000000,0.000000,0.000000*
1,1,0.003940,0.007870,-0.009840*
1,1,0.003940,-0.007870,-0.009840*
1,1,0.003940,-0.007870,0.009840*
1,1,0.003940,0.007870,0.009840*
%
%AMM13*
21,1,0.019680,0.019680,0.000000,0.000000,270.000000*
21,1,0.015750,0.023620,0.000000,0.000000,270.000000*
1,1,0.003940,-0.009840,-0.007870*
1,1,0.003940,-0.009840,0.007870*
1,1,0.003940,0.009840,0.007870*
1,1,0.003940,0.009840,-0.007870*
%
%AMM185*
21,1,0.025590,0.026380,-0.000000,-0.000000,90.000000*
21,1,0.020470,0.031500,-0.000000,-0.000000,90.000000*
1,1,0.005120,0.013190,0.010240*
1,1,0.005120,0.013190,-0.010240*
1,1,0.005120,-0.013190,-0.010240*
1,1,0.005120,-0.013190,0.010240*
%
%AMM186*
21,1,0.017720,0.027950,-0.000000,-0.000000,90.000000*
21,1,0.014170,0.031500,-0.000000,-0.000000,90.000000*
1,1,0.003540,0.013980,0.007090*
1,1,0.003540,0.013980,-0.007090*
1,1,0.003540,-0.013980,-0.007090*
1,1,0.003540,-0.013980,0.007090*
%
%AMM187*
21,1,0.012600,0.028980,-0.000000,-0.000000,270.000000*
21,1,0.010080,0.031500,-0.000000,-0.000000,270.000000*
1,1,0.002520,-0.014490,-0.005040*
1,1,0.002520,-0.014490,0.005040*
1,1,0.002520,0.014490,0.005040*
1,1,0.002520,0.014490,-0.005040*
%
%AMM188*
21,1,0.023620,0.030710,-0.000000,-0.000000,0.000000*
21,1,0.018900,0.035430,-0.000000,-0.000000,0.000000*
1,1,0.004720,0.009450,-0.015350*
1,1,0.004720,-0.009450,-0.015350*
1,1,0.004720,-0.009450,0.015350*
1,1,0.004720,0.009450,0.015350*
%
%AMM189*
21,1,0.027560,0.018900,-0.000000,-0.000000,270.000000*
21,1,0.022840,0.023620,-0.000000,-0.000000,270.000000*
1,1,0.004720,-0.009450,-0.011420*
1,1,0.004720,-0.009450,0.011420*
1,1,0.004720,0.009450,0.011420*
1,1,0.004720,0.009450,-0.011420*
%
%AMM190*
21,1,0.031500,0.072440,-0.000000,-0.000000,270.000000*
21,1,0.025200,0.078740,-0.000000,-0.000000,270.000000*
1,1,0.006300,-0.036220,-0.012600*
1,1,0.006300,-0.036220,0.012600*
1,1,0.006300,0.036220,0.012600*
1,1,0.006300,0.036220,-0.012600*
%
%AMM191*
21,1,0.027560,0.018900,-0.000000,-0.000000,0.000000*
21,1,0.022840,0.023620,-0.000000,-0.000000,0.000000*
1,1,0.004720,0.011420,-0.009450*
1,1,0.004720,-0.011420,-0.009450*
1,1,0.004720,-0.011420,0.009450*
1,1,0.004720,0.011420,0.009450*
%
%AMM192*
21,1,0.023620,0.030710,-0.000000,-0.000000,90.000000*
21,1,0.018900,0.035430,-0.000000,-0.000000,90.000000*
1,1,0.004720,0.015350,0.009450*
1,1,0.004720,0.015350,-0.009450*
1,1,0.004720,-0.015350,-0.009450*
1,1,0.004720,-0.015350,0.009450*
%
%AMM193*
21,1,0.035430,0.030320,-0.000000,-0.000000,90.000000*
21,1,0.028350,0.037400,-0.000000,-0.000000,90.000000*
1,1,0.007090,0.015160,0.014170*
1,1,0.007090,0.015160,-0.014170*
1,1,0.007090,-0.015160,-0.014170*
1,1,0.007090,-0.015160,0.014170*
%
%AMM194*
21,1,0.043310,0.075980,-0.000000,-0.000000,180.000000*
21,1,0.034650,0.084650,-0.000000,-0.000000,180.000000*
1,1,0.008660,-0.017320,0.037990*
1,1,0.008660,0.017320,0.037990*
1,1,0.008660,0.017320,-0.037990*
1,1,0.008660,-0.017320,-0.037990*
%
%AMM195*
21,1,0.039370,0.035430,-0.000000,-0.000000,180.000000*
21,1,0.031500,0.043310,-0.000000,-0.000000,180.000000*
1,1,0.007870,-0.015750,0.017720*
1,1,0.007870,0.015750,0.017720*
1,1,0.007870,0.015750,-0.017720*
1,1,0.007870,-0.015750,-0.017720*
%
%AMM196*
21,1,0.027560,0.030710,-0.000000,-0.000000,180.000000*
21,1,0.022050,0.036220,-0.000000,-0.000000,180.000000*
1,1,0.005510,-0.011020,0.015350*
1,1,0.005510,0.011020,0.015350*
1,1,0.005510,0.011020,-0.015350*
1,1,0.005510,-0.011020,-0.015350*
%
%AMM197*
21,1,0.031500,0.072440,-0.000000,-0.000000,180.000000*
21,1,0.025200,0.078740,-0.000000,-0.000000,180.000000*
1,1,0.006300,-0.012600,0.036220*
1,1,0.006300,0.012600,0.036220*
1,1,0.006300,0.012600,-0.036220*
1,1,0.006300,-0.012600,-0.036220*
%
%AMM198*
21,1,0.137800,0.067720,-0.000000,-0.000000,180.000000*
21,1,0.120870,0.084650,-0.000000,-0.000000,180.000000*
1,1,0.016930,-0.060430,0.033860*
1,1,0.016930,0.060430,0.033860*
1,1,0.016930,0.060430,-0.033860*
1,1,0.016930,-0.060430,-0.033860*
%
%AMM199*
21,1,0.043310,0.075990,-0.000000,-0.000000,180.000000*
21,1,0.034650,0.084650,-0.000000,-0.000000,180.000000*
1,1,0.008660,-0.017320,0.037990*
1,1,0.008660,0.017320,0.037990*
1,1,0.008660,0.017320,-0.037990*
1,1,0.008660,-0.017320,-0.037990*
%
%AMM2*
21,1,0.094490,0.111020,0.000000,0.000000,0.000000*
21,1,0.075590,0.129920,0.000000,0.000000,0.000000*
1,1,0.018900,0.037800,-0.055510*
1,1,0.018900,-0.037800,-0.055510*
1,1,0.018900,-0.037800,0.055510*
1,1,0.018900,0.037800,0.055510*
%
%AMM200*
21,1,0.086610,0.073230,-0.000000,-0.000000,270.000000*
21,1,0.069290,0.090550,-0.000000,-0.000000,270.000000*
1,1,0.017320,-0.036610,-0.034650*
1,1,0.017320,-0.036610,0.034650*
1,1,0.017320,0.036610,0.034650*
1,1,0.017320,0.036610,-0.034650*
%
%AMM251*
21,1,0.035430,0.030320,0.000000,-0.000000,90.000000*
21,1,0.028350,0.037400,0.000000,-0.000000,90.000000*
1,1,0.007090,0.015160,0.014170*
1,1,0.007090,0.015160,-0.014170*
1,1,0.007090,-0.015160,-0.014170*
1,1,0.007090,-0.015160,0.014170*
%
%AMM252*
21,1,0.033470,0.026770,0.000000,-0.000000,270.000000*
21,1,0.026770,0.033470,0.000000,-0.000000,270.000000*
1,1,0.006690,-0.013390,-0.013390*
1,1,0.006690,-0.013390,0.013390*
1,1,0.006690,0.013390,0.013390*
1,1,0.006690,0.013390,-0.013390*
%
%AMM253*
21,1,0.027560,0.030710,0.000000,-0.000000,90.000000*
21,1,0.022050,0.036220,0.000000,-0.000000,90.000000*
1,1,0.005510,0.015350,0.011020*
1,1,0.005510,0.015350,-0.011020*
1,1,0.005510,-0.015350,-0.011020*
1,1,0.005510,-0.015350,0.011020*
%
%AMM3*
21,1,0.074800,0.083460,0.000000,0.000000,0.000000*
21,1,0.059840,0.098430,0.000000,0.000000,0.000000*
1,1,0.014960,0.029920,-0.041730*
1,1,0.014960,-0.029920,-0.041730*
1,1,0.014960,-0.029920,0.041730*
1,1,0.014960,0.029920,0.041730*
%
%AMM4*
21,1,0.078740,0.053540,0.000000,0.000000,180.000000*
21,1,0.065350,0.066930,0.000000,0.000000,180.000000*
1,1,0.013390,-0.032680,0.026770*
1,1,0.013390,0.032680,0.026770*
1,1,0.013390,0.032680,-0.026770*
1,1,0.013390,-0.032680,-0.026770*
%
%AMM5*
21,1,0.035430,0.030320,0.000000,0.000000,90.000000*
21,1,0.028350,0.037400,0.000000,0.000000,90.000000*
1,1,0.007090,0.015160,0.014170*
1,1,0.007090,0.015160,-0.014170*
1,1,0.007090,-0.015160,-0.014170*
1,1,0.007090,-0.015160,0.014170*
%
%AMM6*
21,1,0.021650,0.052760,0.000000,0.000000,270.000000*
21,1,0.017320,0.057090,0.000000,0.000000,270.000000*
1,1,0.004330,-0.026380,-0.008660*
1,1,0.004330,-0.026380,0.008660*
1,1,0.004330,0.026380,0.008660*
1,1,0.004330,0.026380,-0.008660*
%
%AMM7*
21,1,0.035830,0.026770,0.000000,0.000000,0.000000*
21,1,0.029130,0.033470,0.000000,0.000000,0.000000*
1,1,0.006690,0.014570,-0.013390*
1,1,0.006690,-0.014570,-0.013390*
1,1,0.006690,-0.014570,0.013390*
1,1,0.006690,0.014570,0.013390*
%
%AMM8*
21,1,0.070870,0.036220,0.000000,0.000000,90.000000*
21,1,0.061810,0.045280,0.000000,0.000000,90.000000*
1,1,0.009060,0.018110,0.030910*
1,1,0.009060,0.018110,-0.030910*
1,1,0.009060,-0.018110,-0.030910*
1,1,0.009060,-0.018110,0.030910*
%
%AMM9*
21,1,0.033470,0.026770,0.000000,0.000000,0.000000*
21,1,0.026770,0.033470,0.000000,0.000000,0.000000*
1,1,0.006690,0.013390,-0.013390*
1,1,0.006690,-0.013390,-0.013390*
1,1,0.006690,-0.013390,0.013390*
1,1,0.006690,0.013390,0.013390*
%
%ADD104M1*%
%ADD105M2*%
%ADD106M3*%
%ADD107M4*%
%ADD108M5*%
%ADD109M6*%
%ADD110M7*%
%ADD111M8*%
%ADD112M9*%
%ADD113M10*%
%ADD114M11*%
%ADD115M12*%
%ADD116M13*%
%ADD156R,0.02559X0.01575*%
%ADD157R,0.01575X0.02559*%
%ADD160R,0.03543X0.03150*%
%ADD164R,0.03150X0.03543*%
%ADD184O,0.04724X0.00866*%
%ADD185O,0.00866X0.04724*%
%ADD186O,0.04331X0.01181*%
%ADD189R,0.01378X0.00984*%
%ADD190R,0.00984X0.01378*%
%ADD195O,0.08661X0.02362*%
%ADD24C,0.03150*%
%ADD28C,0.02362*%
%ADD300M117*%
%ADD310R,0.01181X0.05512*%
%ADD311R,0.08661X0.04724*%
%ADD315R,0.12008X0.10827*%
%ADD338O,0.02362X0.08661*%
%ADD396M185*%
%ADD397M186*%
%ADD398M187*%
%ADD399M188*%
%ADD400M189*%
%ADD401M190*%
%ADD402M191*%
%ADD403M192*%
%ADD404M193*%
%ADD405M194*%
%ADD406M195*%
%ADD407M196*%
%ADD408M197*%
%ADD409M198*%
%ADD410M199*%
%ADD411M200*%
%ADD463M251*%
%ADD464M252*%
%ADD465M253*%
%ADD56R,0.05118X0.03937*%
%ADD57R,0.07874X0.02559*%
%ADD59R,0.00787X0.14567*%
%ADD60R,0.00787X0.01575*%
%ADD61R,0.00787X0.06299*%
%ADD62R,0.00787X0.38189*%
%ADD63R,0.00787X0.09055*%
%ADD64R,0.05512X0.00787*%
%ADD65R,0.25197X0.00787*%
%ADD66R,0.06693X0.00787*%
%ADD67R,0.12992X0.00787*%
%ADD68R,0.00787X0.27559*%
%ADD69R,0.00787X0.12992*%
%ADD70R,0.00787X0.24803*%
%ADD71R,0.01181X0.04528*%
%ADD75R,0.02717X0.05315*%
%ADD83O,0.00000X0.00000*%
%ADD84R,0.07677X0.04567*%
X0000000Y0000000D02*
%LPD*%
G01*
G36*
G01*
X0380905Y0340059D02*
X0380905Y0344980D01*
G75*
G02*
X0381299Y0345374I0000394J0000000D01*
G01*
X0384448Y0345374D01*
G75*
G02*
X0384842Y0344980I0000000J-000394D01*
G01*
X0384842Y0340059D01*
G75*
G02*
X0384448Y0339665I-000394J0000000D01*
G01*
X0381299Y0339665D01*
G75*
G02*
X0380905Y0340059I0000000J0000394D01*
G01*
G37*
G36*
G01*
X0388385Y0340059D02*
X0388385Y0344980D01*
G75*
G02*
X0388779Y0345374I0000394J0000000D01*
G01*
X0391929Y0345374D01*
G75*
G02*
X0392322Y0344980I0000000J-000394D01*
G01*
X0392322Y0340059D01*
G75*
G02*
X0391929Y0339665I-000394J0000000D01*
G01*
X0388779Y0339665D01*
G75*
G02*
X0388385Y0340059I0000000J0000394D01*
G01*
G37*
G36*
G01*
X0113287Y0301614D02*
X0113287Y0300433D01*
G75*
G02*
X0112696Y0299843I-000591J0000000D01*
G01*
X0106200Y0299843D01*
G75*
G02*
X0105610Y0300433I0000000J0000591D01*
G01*
X0105610Y0301614D01*
G75*
G02*
X0106200Y0302205I0000591J0000000D01*
G01*
X0112696Y0302205D01*
G75*
G02*
X0113287Y0301614I0000000J-000591D01*
G01*
G37*
G36*
G01*
X0113287Y0306614D02*
X0113287Y0305433D01*
G75*
G02*
X0112696Y0304843I-000591J0000000D01*
G01*
X0106200Y0304843D01*
G75*
G02*
X0105610Y0305433I0000000J0000591D01*
G01*
X0105610Y0306614D01*
G75*
G02*
X0106200Y0307205I0000591J0000000D01*
G01*
X0112696Y0307205D01*
G75*
G02*
X0113287Y0306614I0000000J-000591D01*
G01*
G37*
G36*
G01*
X0113287Y0311614D02*
X0113287Y0310433D01*
G75*
G02*
X0112696Y0309843I-000591J0000000D01*
G01*
X0106200Y0309843D01*
G75*
G02*
X0105610Y0310433I0000000J0000591D01*
G01*
X0105610Y0311614D01*
G75*
G02*
X0106200Y0312205I0000591J0000000D01*
G01*
X0112696Y0312205D01*
G75*
G02*
X0113287Y0311614I0000000J-000591D01*
G01*
G37*
G36*
G01*
X0113287Y0316614D02*
X0113287Y0315433D01*
G75*
G02*
X0112696Y0314843I-000591J0000000D01*
G01*
X0106200Y0314843D01*
G75*
G02*
X0105610Y0315433I0000000J0000591D01*
G01*
X0105610Y0316614D01*
G75*
G02*
X0106200Y0317205I0000591J0000000D01*
G01*
X0112696Y0317205D01*
G75*
G02*
X0113287Y0316614I0000000J-000591D01*
G01*
G37*
G36*
G01*
X0093799Y0316614D02*
X0093799Y0315433D01*
G75*
G02*
X0093208Y0314843I-000591J0000000D01*
G01*
X0086712Y0314843D01*
G75*
G02*
X0086122Y0315433I0000000J0000591D01*
G01*
X0086122Y0316614D01*
G75*
G02*
X0086712Y0317205I0000591J0000000D01*
G01*
X0093208Y0317205D01*
G75*
G02*
X0093799Y0316614I0000000J-000591D01*
G01*
G37*
G36*
G01*
X0093799Y0311614D02*
X0093799Y0310433D01*
G75*
G02*
X0093208Y0309843I-000591J0000000D01*
G01*
X0086712Y0309843D01*
G75*
G02*
X0086122Y0310433I0000000J0000591D01*
G01*
X0086122Y0311614D01*
G75*
G02*
X0086712Y0312205I0000591J0000000D01*
G01*
X0093208Y0312205D01*
G75*
G02*
X0093799Y0311614I0000000J-000591D01*
G01*
G37*
G36*
G01*
X0093799Y0306614D02*
X0093799Y0305433D01*
G75*
G02*
X0093208Y0304843I-000591J0000000D01*
G01*
X0086712Y0304843D01*
G75*
G02*
X0086122Y0305433I0000000J0000591D01*
G01*
X0086122Y0306614D01*
G75*
G02*
X0086712Y0307205I0000591J0000000D01*
G01*
X0093208Y0307205D01*
G75*
G02*
X0093799Y0306614I0000000J-000591D01*
G01*
G37*
G36*
G01*
X0093799Y0301614D02*
X0093799Y0300433D01*
G75*
G02*
X0093208Y0299843I-000591J0000000D01*
G01*
X0086712Y0299843D01*
G75*
G02*
X0086122Y0300433I0000000J0000591D01*
G01*
X0086122Y0301614D01*
G75*
G02*
X0086712Y0302205I0000591J0000000D01*
G01*
X0093208Y0302205D01*
G75*
G02*
X0093799Y0301614I0000000J-000591D01*
G01*
G37*
G36*
G01*
X0028582Y0046122D02*
X0031259Y0046122D01*
G75*
G02*
X0031594Y0045787I0000000J-000335D01*
G01*
X0031594Y0043110D01*
G75*
G02*
X0031259Y0042776I-000335J0000000D01*
G01*
X0028582Y0042776D01*
G75*
G02*
X0028248Y0043110I0000000J0000335D01*
G01*
X0028248Y0045787D01*
G75*
G02*
X0028582Y0046122I0000335J0000000D01*
G01*
G37*
G36*
G01*
X0028582Y0039902D02*
X0031259Y0039902D01*
G75*
G02*
X0031594Y0039567I0000000J-000335D01*
G01*
X0031594Y0036890D01*
G75*
G02*
X0031259Y0036555I-000335J0000000D01*
G01*
X0028582Y0036555D01*
G75*
G02*
X0028248Y0036890I0000000J0000335D01*
G01*
X0028248Y0039567D01*
G75*
G02*
X0028582Y0039902I0000335J0000000D01*
G01*
G37*
G36*
G01*
X0380905Y0349902D02*
X0380905Y0354823D01*
G75*
G02*
X0381299Y0355217I0000394J0000000D01*
G01*
X0384448Y0355217D01*
G75*
G02*
X0384842Y0354823I0000000J-000394D01*
G01*
X0384842Y0349902D01*
G75*
G02*
X0384448Y0349508I-000394J0000000D01*
G01*
X0381299Y0349508D01*
G75*
G02*
X0380905Y0349902I0000000J0000394D01*
G01*
G37*
G36*
G01*
X0388385Y0349902D02*
X0388385Y0354823D01*
G75*
G02*
X0388779Y0355217I0000394J0000000D01*
G01*
X0391929Y0355217D01*
G75*
G02*
X0392322Y0354823I0000000J-000394D01*
G01*
X0392322Y0349902D01*
G75*
G02*
X0391929Y0349508I-000394J0000000D01*
G01*
X0388779Y0349508D01*
G75*
G02*
X0388385Y0349902I0000000J0000394D01*
G01*
G37*
G36*
G01*
X0113385Y0161693D02*
X0113385Y0158937D01*
G75*
G02*
X0112401Y0157953I-000984J0000000D01*
G01*
X0105708Y0157953D01*
G75*
G02*
X0104724Y0158937I0000000J0000984D01*
G01*
X0104724Y0161693D01*
G75*
G02*
X0105708Y0162677I0000984J0000000D01*
G01*
X0112401Y0162677D01*
G75*
G02*
X0113385Y0161693I0000000J-000984D01*
G01*
G37*
G36*
G01*
X0096850Y0167717D02*
X0096850Y0158858D01*
G75*
G02*
X0095866Y0157874I-000984J0000000D01*
G01*
X0085826Y0157874D01*
G75*
G02*
X0084842Y0158858I0000000J0000984D01*
G01*
X0084842Y0167717D01*
G75*
G02*
X0085826Y0168701I0000984J0000000D01*
G01*
X0095866Y0168701D01*
G75*
G02*
X0096850Y0167717I0000000J-000984D01*
G01*
G37*
G36*
G01*
X0096850Y0179724D02*
X0096850Y0170866D01*
G75*
G02*
X0095866Y0169882I-000984J0000000D01*
G01*
X0085826Y0169882D01*
G75*
G02*
X0084842Y0170866I0000000J0000984D01*
G01*
X0084842Y0179724D01*
G75*
G02*
X0085826Y0180709I0000984J0000000D01*
G01*
X0095866Y0180709D01*
G75*
G02*
X0096850Y0179724I0000000J-000984D01*
G01*
G37*
G36*
G01*
X0083661Y0167717D02*
X0083661Y0158858D01*
G75*
G02*
X0082677Y0157874I-000984J0000000D01*
G01*
X0072637Y0157874D01*
G75*
G02*
X0071653Y0158858I0000000J0000984D01*
G01*
X0071653Y0167717D01*
G75*
G02*
X0072637Y0168701I0000984J0000000D01*
G01*
X0082677Y0168701D01*
G75*
G02*
X0083661Y0167717I0000000J-000984D01*
G01*
G37*
G36*
G01*
X0083661Y0179724D02*
X0083661Y0170866D01*
G75*
G02*
X0082677Y0169882I-000984J0000000D01*
G01*
X0072637Y0169882D01*
G75*
G02*
X0071653Y0170866I0000000J0000984D01*
G01*
X0071653Y0179724D01*
G75*
G02*
X0072637Y0180709I0000984J0000000D01*
G01*
X0082677Y0180709D01*
G75*
G02*
X0083661Y0179724I0000000J-000984D01*
G01*
G37*
G36*
G01*
X0113385Y0179646D02*
X0113385Y0176890D01*
G75*
G02*
X0112401Y0175906I-000984J0000000D01*
G01*
X0105708Y0175906D01*
G75*
G02*
X0104724Y0176890I0000000J0000984D01*
G01*
X0104724Y0179646D01*
G75*
G02*
X0105708Y0180630I0000984J0000000D01*
G01*
X0112401Y0180630D01*
G75*
G02*
X0113385Y0179646I0000000J-000984D01*
G01*
G37*
G36*
G01*
X0113385Y0244370D02*
X0113385Y0241614D01*
G75*
G02*
X0112401Y0240630I-000984J0000000D01*
G01*
X0105708Y0240630D01*
G75*
G02*
X0104724Y0241614I0000000J0000984D01*
G01*
X0104724Y0244370D01*
G75*
G02*
X0105708Y0245354I0000984J0000000D01*
G01*
X0112401Y0245354D01*
G75*
G02*
X0113385Y0244370I0000000J-000984D01*
G01*
G37*
G36*
G01*
X0096850Y0250394D02*
X0096850Y0241535D01*
G75*
G02*
X0095866Y0240551I-000984J0000000D01*
G01*
X0085826Y0240551D01*
G75*
G02*
X0084842Y0241535I0000000J0000984D01*
G01*
X0084842Y0250394D01*
G75*
G02*
X0085826Y0251378I0000984J0000000D01*
G01*
X0095866Y0251378D01*
G75*
G02*
X0096850Y0250394I0000000J-000984D01*
G01*
G37*
G36*
G01*
X0096850Y0262402D02*
X0096850Y0253543D01*
G75*
G02*
X0095866Y0252559I-000984J0000000D01*
G01*
X0085826Y0252559D01*
G75*
G02*
X0084842Y0253543I0000000J0000984D01*
G01*
X0084842Y0262402D01*
G75*
G02*
X0085826Y0263386I0000984J0000000D01*
G01*
X0095866Y0263386D01*
G75*
G02*
X0096850Y0262402I0000000J-000984D01*
G01*
G37*
G36*
G01*
X0083661Y0250394D02*
X0083661Y0241535D01*
G75*
G02*
X0082677Y0240551I-000984J0000000D01*
G01*
X0072637Y0240551D01*
G75*
G02*
X0071653Y0241535I0000000J0000984D01*
G01*
X0071653Y0250394D01*
G75*
G02*
X0072637Y0251378I0000984J0000000D01*
G01*
X0082677Y0251378D01*
G75*
G02*
X0083661Y0250394I0000000J-000984D01*
G01*
G37*
G36*
G01*
X0083661Y0262402D02*
X0083661Y0253543D01*
G75*
G02*
X0082677Y0252559I-000984J0000000D01*
G01*
X0072637Y0252559D01*
G75*
G02*
X0071653Y0253543I0000000J0000984D01*
G01*
X0071653Y0262402D01*
G75*
G02*
X0072637Y0263386I0000984J0000000D01*
G01*
X0082677Y0263386D01*
G75*
G02*
X0083661Y0262402I0000000J-000984D01*
G01*
G37*
G36*
G01*
X0113385Y0262323D02*
X0113385Y0259567D01*
G75*
G02*
X0112401Y0258583I-000984J0000000D01*
G01*
X0105708Y0258583D01*
G75*
G02*
X0104724Y0259567I0000000J0000984D01*
G01*
X0104724Y0262323D01*
G75*
G02*
X0105708Y0263307I0000984J0000000D01*
G01*
X0112401Y0263307D01*
G75*
G02*
X0113385Y0262323I0000000J-000984D01*
G01*
G37*
G36*
G01*
X0113385Y0216811D02*
X0113385Y0214055D01*
G75*
G02*
X0112401Y0213071I-000984J0000000D01*
G01*
X0105708Y0213071D01*
G75*
G02*
X0104724Y0214055I0000000J0000984D01*
G01*
X0104724Y0216811D01*
G75*
G02*
X0105708Y0217795I0000984J0000000D01*
G01*
X0112401Y0217795D01*
G75*
G02*
X0113385Y0216811I0000000J-000984D01*
G01*
G37*
G36*
G01*
X0096850Y0222835D02*
X0096850Y0213976D01*
G75*
G02*
X0095866Y0212992I-000984J0000000D01*
G01*
X0085826Y0212992D01*
G75*
G02*
X0084842Y0213976I0000000J0000984D01*
G01*
X0084842Y0222835D01*
G75*
G02*
X0085826Y0223819I0000984J0000000D01*
G01*
X0095866Y0223819D01*
G75*
G02*
X0096850Y0222835I0000000J-000984D01*
G01*
G37*
G36*
G01*
X0096850Y0234843D02*
X0096850Y0225984D01*
G75*
G02*
X0095866Y0225000I-000984J0000000D01*
G01*
X0085826Y0225000D01*
G75*
G02*
X0084842Y0225984I0000000J0000984D01*
G01*
X0084842Y0234843D01*
G75*
G02*
X0085826Y0235827I0000984J0000000D01*
G01*
X0095866Y0235827D01*
G75*
G02*
X0096850Y0234843I0000000J-000984D01*
G01*
G37*
G36*
G01*
X0083661Y0222835D02*
X0083661Y0213976D01*
G75*
G02*
X0082677Y0212992I-000984J0000000D01*
G01*
X0072637Y0212992D01*
G75*
G02*
X0071653Y0213976I0000000J0000984D01*
G01*
X0071653Y0222835D01*
G75*
G02*
X0072637Y0223819I0000984J0000000D01*
G01*
X0082677Y0223819D01*
G75*
G02*
X0083661Y0222835I0000000J-000984D01*
G01*
G37*
G36*
G01*
X0083661Y0234843D02*
X0083661Y0225984D01*
G75*
G02*
X0082677Y0225000I-000984J0000000D01*
G01*
X0072637Y0225000D01*
G75*
G02*
X0071653Y0225984I0000000J0000984D01*
G01*
X0071653Y0234843D01*
G75*
G02*
X0072637Y0235827I0000984J0000000D01*
G01*
X0082677Y0235827D01*
G75*
G02*
X0083661Y0234843I0000000J-000984D01*
G01*
G37*
G36*
G01*
X0113385Y0234764D02*
X0113385Y0232008D01*
G75*
G02*
X0112401Y0231024I-000984J0000000D01*
G01*
X0105708Y0231024D01*
G75*
G02*
X0104724Y0232008I0000000J0000984D01*
G01*
X0104724Y0234764D01*
G75*
G02*
X0105708Y0235748I0000984J0000000D01*
G01*
X0112401Y0235748D01*
G75*
G02*
X0113385Y0234764I0000000J-000984D01*
G01*
G37*
G36*
G01*
X0091574Y0032343D02*
X0094251Y0032343D01*
G75*
G02*
X0094586Y0032008I0000000J-000335D01*
G01*
X0094586Y0029331D01*
G75*
G02*
X0094251Y0028996I-000335J0000000D01*
G01*
X0091574Y0028996D01*
G75*
G02*
X0091240Y0029331I0000000J0000335D01*
G01*
X0091240Y0032008D01*
G75*
G02*
X0091574Y0032343I0000335J0000000D01*
G01*
G37*
G36*
G01*
X0091574Y0026122D02*
X0094251Y0026122D01*
G75*
G02*
X0094586Y0025787I0000000J-000335D01*
G01*
X0094586Y0023110D01*
G75*
G02*
X0094251Y0022776I-000335J0000000D01*
G01*
X0091574Y0022776D01*
G75*
G02*
X0091240Y0023110I0000000J0000335D01*
G01*
X0091240Y0025787D01*
G75*
G02*
X0091574Y0026122I0000335J0000000D01*
G01*
G37*
G36*
G01*
X0142057Y0322106D02*
X0142057Y0319035D01*
G75*
G02*
X0141781Y0318760I-000276J0000000D01*
G01*
X0139576Y0318760D01*
G75*
G02*
X0139301Y0319035I0000000J0000276D01*
G01*
X0139301Y0322106D01*
G75*
G02*
X0139576Y0322382I0000276J0000000D01*
G01*
X0141781Y0322382D01*
G75*
G02*
X0142057Y0322106I0000000J-000276D01*
G01*
G37*
G36*
G01*
X0135757Y0322106D02*
X0135757Y0319035D01*
G75*
G02*
X0135482Y0318760I-000276J0000000D01*
G01*
X0133277Y0318760D01*
G75*
G02*
X0133001Y0319035I0000000J0000276D01*
G01*
X0133001Y0322106D01*
G75*
G02*
X0133277Y0322382I0000276J0000000D01*
G01*
X0135482Y0322382D01*
G75*
G02*
X0135757Y0322106I0000000J-000276D01*
G01*
G37*
G36*
G01*
X0064507Y0069587D02*
X0067185Y0069587D01*
G75*
G02*
X0067519Y0069252I0000000J-000335D01*
G01*
X0067519Y0066575D01*
G75*
G02*
X0067185Y0066240I-000335J0000000D01*
G01*
X0064507Y0066240D01*
G75*
G02*
X0064173Y0066575I0000000J0000335D01*
G01*
X0064173Y0069252D01*
G75*
G02*
X0064507Y0069587I0000335J0000000D01*
G01*
G37*
G36*
G01*
X0064507Y0063366D02*
X0067185Y0063366D01*
G75*
G02*
X0067519Y0063031I0000000J-000335D01*
G01*
X0067519Y0060354D01*
G75*
G02*
X0067185Y0060020I-000335J0000000D01*
G01*
X0064507Y0060020D01*
G75*
G02*
X0064173Y0060354I0000000J0000335D01*
G01*
X0064173Y0063031D01*
G75*
G02*
X0064507Y0063366I0000335J0000000D01*
G01*
G37*
G36*
G01*
X0068897Y0077185D02*
X0068897Y0079902D01*
G75*
G02*
X0069803Y0080807I0000906J0000000D01*
G01*
X0075078Y0080807D01*
G75*
G02*
X0075984Y0079902I0000000J-000906D01*
G01*
X0075984Y0077185D01*
G75*
G02*
X0075078Y0076280I-000906J0000000D01*
G01*
X0069803Y0076280D01*
G75*
G02*
X0068897Y0077185I0000000J0000906D01*
G01*
G37*
G36*
G01*
X0068897Y0065768D02*
X0068897Y0068484D01*
G75*
G02*
X0069803Y0069390I0000906J0000000D01*
G01*
X0075078Y0069390D01*
G75*
G02*
X0075984Y0068484I0000000J-000906D01*
G01*
X0075984Y0065768D01*
G75*
G02*
X0075078Y0064862I-000906J0000000D01*
G01*
X0069803Y0064862D01*
G75*
G02*
X0068897Y0065768I0000000J0000906D01*
G01*
G37*
G36*
G01*
X0367322Y0340059D02*
X0367322Y0344980D01*
G75*
G02*
X0367716Y0345374I0000394J0000000D01*
G01*
X0370866Y0345374D01*
G75*
G02*
X0371259Y0344980I0000000J-000394D01*
G01*
X0371259Y0340059D01*
G75*
G02*
X0370866Y0339665I-000394J0000000D01*
G01*
X0367716Y0339665D01*
G75*
G02*
X0367322Y0340059I0000000J0000394D01*
G01*
G37*
G36*
G01*
X0374803Y0340059D02*
X0374803Y0344980D01*
G75*
G02*
X0375196Y0345374I0000394J0000000D01*
G01*
X0378346Y0345374D01*
G75*
G02*
X0378740Y0344980I0000000J-000394D01*
G01*
X0378740Y0340059D01*
G75*
G02*
X0378346Y0339665I-000394J0000000D01*
G01*
X0375196Y0339665D01*
G75*
G02*
X0374803Y0340059I0000000J0000394D01*
G01*
G37*
G36*
G01*
X0004960Y0078799D02*
X0007637Y0078799D01*
G75*
G02*
X0007972Y0078465I0000000J-000335D01*
G01*
X0007972Y0075787D01*
G75*
G02*
X0007637Y0075453I-000335J0000000D01*
G01*
X0004960Y0075453D01*
G75*
G02*
X0004626Y0075787I0000000J0000335D01*
G01*
X0004626Y0078465D01*
G75*
G02*
X0004960Y0078799I0000335J0000000D01*
G01*
G37*
G36*
G01*
X0004960Y0072579D02*
X0007637Y0072579D01*
G75*
G02*
X0007972Y0072244I0000000J-000335D01*
G01*
X0007972Y0069567D01*
G75*
G02*
X0007637Y0069232I-000335J0000000D01*
G01*
X0004960Y0069232D01*
G75*
G02*
X0004626Y0069567I0000000J0000335D01*
G01*
X0004626Y0072244D01*
G75*
G02*
X0004960Y0072579I0000335J0000000D01*
G01*
G37*
G36*
G01*
X0117126Y0292677D02*
X0117126Y0289606D01*
G75*
G02*
X0116850Y0289331I-000276J0000000D01*
G01*
X0114645Y0289331D01*
G75*
G02*
X0114370Y0289606I0000000J0000276D01*
G01*
X0114370Y0292677D01*
G75*
G02*
X0114645Y0292953I0000276J0000000D01*
G01*
X0116850Y0292953D01*
G75*
G02*
X0117126Y0292677I0000000J-000276D01*
G01*
G37*
G36*
G01*
X0110826Y0292677D02*
X0110826Y0289606D01*
G75*
G02*
X0110551Y0289331I-000276J0000000D01*
G01*
X0108346Y0289331D01*
G75*
G02*
X0108070Y0289606I0000000J0000276D01*
G01*
X0108070Y0292677D01*
G75*
G02*
X0108346Y0292953I0000276J0000000D01*
G01*
X0110551Y0292953D01*
G75*
G02*
X0110826Y0292677I0000000J-000276D01*
G01*
G37*
G36*
G01*
X0077559Y0077185D02*
X0077559Y0079902D01*
G75*
G02*
X0078464Y0080807I0000906J0000000D01*
G01*
X0083740Y0080807D01*
G75*
G02*
X0084645Y0079902I0000000J-000906D01*
G01*
X0084645Y0077185D01*
G75*
G02*
X0083740Y0076280I-000906J0000000D01*
G01*
X0078464Y0076280D01*
G75*
G02*
X0077559Y0077185I0000000J0000906D01*
G01*
G37*
G36*
G01*
X0077559Y0065768D02*
X0077559Y0068484D01*
G75*
G02*
X0078464Y0069390I0000906J0000000D01*
G01*
X0083740Y0069390D01*
G75*
G02*
X0084645Y0068484I0000000J-000906D01*
G01*
X0084645Y0065768D01*
G75*
G02*
X0083740Y0064862I-000906J0000000D01*
G01*
X0078464Y0064862D01*
G75*
G02*
X0077559Y0065768I0000000J0000906D01*
G01*
G37*
G36*
G01*
X0031259Y0022776D02*
X0028582Y0022776D01*
G75*
G02*
X0028248Y0023110I0000000J0000335D01*
G01*
X0028248Y0025787D01*
G75*
G02*
X0028582Y0026122I0000335J0000000D01*
G01*
X0031259Y0026122D01*
G75*
G02*
X0031594Y0025787I0000000J-000335D01*
G01*
X0031594Y0023110D01*
G75*
G02*
X0031259Y0022776I-000335J0000000D01*
G01*
G37*
G36*
G01*
X0031259Y0028996D02*
X0028582Y0028996D01*
G75*
G02*
X0028248Y0029331I0000000J0000335D01*
G01*
X0028248Y0032008D01*
G75*
G02*
X0028582Y0032343I0000335J0000000D01*
G01*
X0031259Y0032343D01*
G75*
G02*
X0031594Y0032008I0000000J-000335D01*
G01*
X0031594Y0029331D01*
G75*
G02*
X0031259Y0028996I-000335J0000000D01*
G01*
G37*
G36*
G01*
X0113385Y0106575D02*
X0113385Y0103819D01*
G75*
G02*
X0112401Y0102835I-000984J0000000D01*
G01*
X0105708Y0102835D01*
G75*
G02*
X0104724Y0103819I0000000J0000984D01*
G01*
X0104724Y0106575D01*
G75*
G02*
X0105708Y0107559I0000984J0000000D01*
G01*
X0112401Y0107559D01*
G75*
G02*
X0113385Y0106575I0000000J-000984D01*
G01*
G37*
G36*
G01*
X0096850Y0112598D02*
X0096850Y0103740D01*
G75*
G02*
X0095866Y0102756I-000984J0000000D01*
G01*
X0085826Y0102756D01*
G75*
G02*
X0084842Y0103740I0000000J0000984D01*
G01*
X0084842Y0112598D01*
G75*
G02*
X0085826Y0113583I0000984J0000000D01*
G01*
X0095866Y0113583D01*
G75*
G02*
X0096850Y0112598I0000000J-000984D01*
G01*
G37*
G36*
G01*
X0096850Y0124606D02*
X0096850Y0115748D01*
G75*
G02*
X0095866Y0114764I-000984J0000000D01*
G01*
X0085826Y0114764D01*
G75*
G02*
X0084842Y0115748I0000000J0000984D01*
G01*
X0084842Y0124606D01*
G75*
G02*
X0085826Y0125591I0000984J0000000D01*
G01*
X0095866Y0125591D01*
G75*
G02*
X0096850Y0124606I0000000J-000984D01*
G01*
G37*
G36*
G01*
X0083661Y0112598D02*
X0083661Y0103740D01*
G75*
G02*
X0082677Y0102756I-000984J0000000D01*
G01*
X0072637Y0102756D01*
G75*
G02*
X0071653Y0103740I0000000J0000984D01*
G01*
X0071653Y0112598D01*
G75*
G02*
X0072637Y0113583I0000984J0000000D01*
G01*
X0082677Y0113583D01*
G75*
G02*
X0083661Y0112598I0000000J-000984D01*
G01*
G37*
G36*
G01*
X0083661Y0124606D02*
X0083661Y0115748D01*
G75*
G02*
X0082677Y0114764I-000984J0000000D01*
G01*
X0072637Y0114764D01*
G75*
G02*
X0071653Y0115748I0000000J0000984D01*
G01*
X0071653Y0124606D01*
G75*
G02*
X0072637Y0125591I0000984J0000000D01*
G01*
X0082677Y0125591D01*
G75*
G02*
X0083661Y0124606I0000000J-000984D01*
G01*
G37*
G36*
G01*
X0113385Y0124528D02*
X0113385Y0121772D01*
G75*
G02*
X0112401Y0120787I-000984J0000000D01*
G01*
X0105708Y0120787D01*
G75*
G02*
X0104724Y0121772I0000000J0000984D01*
G01*
X0104724Y0124528D01*
G75*
G02*
X0105708Y0125512I0000984J0000000D01*
G01*
X0112401Y0125512D01*
G75*
G02*
X0113385Y0124528I0000000J-000984D01*
G01*
G37*
D83*
X0121653Y0196063D03*
G36*
G01*
X0064311Y0081142D02*
X0067381Y0081142D01*
G75*
G02*
X0067657Y0080866I0000000J-000276D01*
G01*
X0067657Y0078661D01*
G75*
G02*
X0067381Y0078386I-000276J0000000D01*
G01*
X0064311Y0078386D01*
G75*
G02*
X0064035Y0078661I0000000J0000276D01*
G01*
X0064035Y0080866D01*
G75*
G02*
X0064311Y0081142I0000276J0000000D01*
G01*
G37*
G36*
G01*
X0064311Y0074843D02*
X0067381Y0074843D01*
G75*
G02*
X0067657Y0074567I0000000J-000276D01*
G01*
X0067657Y0072362D01*
G75*
G02*
X0067381Y0072087I-000276J0000000D01*
G01*
X0064311Y0072087D01*
G75*
G02*
X0064035Y0072362I0000000J0000276D01*
G01*
X0064035Y0074567D01*
G75*
G02*
X0064311Y0074843I0000276J0000000D01*
G01*
G37*
G36*
G01*
X0113385Y0189252D02*
X0113385Y0186496D01*
G75*
G02*
X0112401Y0185512I-000984J0000000D01*
G01*
X0105708Y0185512D01*
G75*
G02*
X0104724Y0186496I0000000J0000984D01*
G01*
X0104724Y0189252D01*
G75*
G02*
X0105708Y0190236I0000984J0000000D01*
G01*
X0112401Y0190236D01*
G75*
G02*
X0113385Y0189252I0000000J-000984D01*
G01*
G37*
G36*
G01*
X0096850Y0195276D02*
X0096850Y0186417D01*
G75*
G02*
X0095866Y0185433I-000984J0000000D01*
G01*
X0085826Y0185433D01*
G75*
G02*
X0084842Y0186417I0000000J0000984D01*
G01*
X0084842Y0195276D01*
G75*
G02*
X0085826Y0196260I0000984J0000000D01*
G01*
X0095866Y0196260D01*
G75*
G02*
X0096850Y0195276I0000000J-000984D01*
G01*
G37*
G36*
G01*
X0096850Y0207283D02*
X0096850Y0198425D01*
G75*
G02*
X0095866Y0197441I-000984J0000000D01*
G01*
X0085826Y0197441D01*
G75*
G02*
X0084842Y0198425I0000000J0000984D01*
G01*
X0084842Y0207283D01*
G75*
G02*
X0085826Y0208268I0000984J0000000D01*
G01*
X0095866Y0208268D01*
G75*
G02*
X0096850Y0207283I0000000J-000984D01*
G01*
G37*
G36*
G01*
X0083661Y0195276D02*
X0083661Y0186417D01*
G75*
G02*
X0082677Y0185433I-000984J0000000D01*
G01*
X0072637Y0185433D01*
G75*
G02*
X0071653Y0186417I0000000J0000984D01*
G01*
X0071653Y0195276D01*
G75*
G02*
X0072637Y0196260I0000984J0000000D01*
G01*
X0082677Y0196260D01*
G75*
G02*
X0083661Y0195276I0000000J-000984D01*
G01*
G37*
G36*
G01*
X0083661Y0207283D02*
X0083661Y0198425D01*
G75*
G02*
X0082677Y0197441I-000984J0000000D01*
G01*
X0072637Y0197441D01*
G75*
G02*
X0071653Y0198425I0000000J0000984D01*
G01*
X0071653Y0207283D01*
G75*
G02*
X0072637Y0208268I0000984J0000000D01*
G01*
X0082677Y0208268D01*
G75*
G02*
X0083661Y0207283I0000000J-000984D01*
G01*
G37*
G36*
G01*
X0113385Y0207205D02*
X0113385Y0204449D01*
G75*
G02*
X0112401Y0203465I-000984J0000000D01*
G01*
X0105708Y0203465D01*
G75*
G02*
X0104724Y0204449I0000000J0000984D01*
G01*
X0104724Y0207205D01*
G75*
G02*
X0105708Y0208189I0000984J0000000D01*
G01*
X0112401Y0208189D01*
G75*
G02*
X0113385Y0207205I0000000J-000984D01*
G01*
G37*
D56*
X0389763Y0064173D03*
X0389763Y0070079D03*
X0389763Y0075984D03*
X0389763Y0081890D03*
X0389763Y0087795D03*
X0389763Y0093701D03*
X0389763Y0099606D03*
X0389763Y0105512D03*
X0389763Y0111417D03*
X0389763Y0117323D03*
X0389763Y0123228D03*
X0389763Y0129134D03*
X0389763Y0135039D03*
X0339763Y0135039D03*
X0339763Y0129134D03*
X0339763Y0123228D03*
X0339763Y0117323D03*
X0339763Y0111417D03*
X0339763Y0105512D03*
X0339763Y0099606D03*
X0339763Y0093701D03*
X0339763Y0087795D03*
X0339763Y0081890D03*
X0339763Y0075984D03*
X0339763Y0070079D03*
X0339763Y0064173D03*
G36*
G01*
X0367322Y0359744D02*
X0367322Y0364665D01*
G75*
G02*
X0367716Y0365059I0000394J0000000D01*
G01*
X0370866Y0365059D01*
G75*
G02*
X0371259Y0364665I0000000J-000394D01*
G01*
X0371259Y0359744D01*
G75*
G02*
X0370866Y0359350I-000394J0000000D01*
G01*
X0367716Y0359350D01*
G75*
G02*
X0367322Y0359744I0000000J0000394D01*
G01*
G37*
G36*
G01*
X0374803Y0359744D02*
X0374803Y0364665D01*
G75*
G02*
X0375196Y0365059I0000394J0000000D01*
G01*
X0378346Y0365059D01*
G75*
G02*
X0378740Y0364665I0000000J-000394D01*
G01*
X0378740Y0359744D01*
G75*
G02*
X0378346Y0359350I-000394J0000000D01*
G01*
X0375196Y0359350D01*
G75*
G02*
X0374803Y0359744I0000000J0000394D01*
G01*
G37*
G36*
G01*
X0086220Y0077185D02*
X0086220Y0079902D01*
G75*
G02*
X0087126Y0080807I0000906J0000000D01*
G01*
X0092401Y0080807D01*
G75*
G02*
X0093307Y0079902I0000000J-000906D01*
G01*
X0093307Y0077185D01*
G75*
G02*
X0092401Y0076280I-000906J0000000D01*
G01*
X0087126Y0076280D01*
G75*
G02*
X0086220Y0077185I0000000J0000906D01*
G01*
G37*
G36*
G01*
X0086220Y0065768D02*
X0086220Y0068484D01*
G75*
G02*
X0087126Y0069390I0000906J0000000D01*
G01*
X0092401Y0069390D01*
G75*
G02*
X0093307Y0068484I0000000J-000906D01*
G01*
X0093307Y0065768D01*
G75*
G02*
X0092401Y0064862I-000906J0000000D01*
G01*
X0087126Y0064862D01*
G75*
G02*
X0086220Y0065768I0000000J0000906D01*
G01*
G37*
G36*
G01*
X0168699Y0029605D02*
X0173620Y0029605D01*
G75*
G02*
X0174014Y0029211I0000000J-000394D01*
G01*
X0174014Y0026061D01*
G75*
G02*
X0173620Y0025668I-000394J0000000D01*
G01*
X0168699Y0025668D01*
G75*
G02*
X0168305Y0026061I0000000J0000394D01*
G01*
X0168305Y0029211D01*
G75*
G02*
X0168699Y0029605I0000394J0000000D01*
G01*
G37*
G36*
G01*
X0168699Y0022124D02*
X0173620Y0022124D01*
G75*
G02*
X0174014Y0021731I0000000J-000394D01*
G01*
X0174014Y0018581D01*
G75*
G02*
X0173620Y0018187I-000394J0000000D01*
G01*
X0168699Y0018187D01*
G75*
G02*
X0168305Y0018581I0000000J0000394D01*
G01*
X0168305Y0021731D01*
G75*
G02*
X0168699Y0022124I0000394J0000000D01*
G01*
G37*
G36*
G01*
X0117362Y0318898D02*
X0120433Y0318898D01*
G75*
G02*
X0120708Y0318622I0000000J-000276D01*
G01*
X0120708Y0316417D01*
G75*
G02*
X0120433Y0316142I-000276J0000000D01*
G01*
X0117362Y0316142D01*
G75*
G02*
X0117086Y0316417I0000000J0000276D01*
G01*
X0117086Y0318622D01*
G75*
G02*
X0117362Y0318898I0000276J0000000D01*
G01*
G37*
G36*
G01*
X0117362Y0312598D02*
X0120433Y0312598D01*
G75*
G02*
X0120708Y0312323I0000000J-000276D01*
G01*
X0120708Y0310118D01*
G75*
G02*
X0120433Y0309843I-000276J0000000D01*
G01*
X0117362Y0309843D01*
G75*
G02*
X0117086Y0310118I0000000J0000276D01*
G01*
X0117086Y0312323D01*
G75*
G02*
X0117362Y0312598I0000276J0000000D01*
G01*
G37*
G36*
G01*
X0076811Y0298819D02*
X0072795Y0298819D01*
G75*
G02*
X0072440Y0299173I0000000J0000354D01*
G01*
X0072440Y0302008D01*
G75*
G02*
X0072795Y0302362I0000354J0000000D01*
G01*
X0076811Y0302362D01*
G75*
G02*
X0077165Y0302008I0000000J-000354D01*
G01*
X0077165Y0299173D01*
G75*
G02*
X0076811Y0298819I-000354J0000000D01*
G01*
G37*
G36*
G01*
X0076811Y0311811D02*
X0072795Y0311811D01*
G75*
G02*
X0072440Y0312165I0000000J0000354D01*
G01*
X0072440Y0315000D01*
G75*
G02*
X0072795Y0315354I0000354J0000000D01*
G01*
X0076811Y0315354D01*
G75*
G02*
X0077165Y0315000I0000000J-000354D01*
G01*
X0077165Y0312165D01*
G75*
G02*
X0076811Y0311811I-000354J0000000D01*
G01*
G37*
G36*
G01*
X0380905Y0359744D02*
X0380905Y0364665D01*
G75*
G02*
X0381299Y0365059I0000394J0000000D01*
G01*
X0384448Y0365059D01*
G75*
G02*
X0384842Y0364665I0000000J-000394D01*
G01*
X0384842Y0359744D01*
G75*
G02*
X0384448Y0359350I-000394J0000000D01*
G01*
X0381299Y0359350D01*
G75*
G02*
X0380905Y0359744I0000000J0000394D01*
G01*
G37*
G36*
G01*
X0388385Y0359744D02*
X0388385Y0364665D01*
G75*
G02*
X0388779Y0365059I0000394J0000000D01*
G01*
X0391929Y0365059D01*
G75*
G02*
X0392322Y0364665I0000000J-000394D01*
G01*
X0392322Y0359744D01*
G75*
G02*
X0391929Y0359350I-000394J0000000D01*
G01*
X0388779Y0359350D01*
G75*
G02*
X0388385Y0359744I0000000J0000394D01*
G01*
G37*
G36*
G01*
X0367322Y0349902D02*
X0367322Y0354823D01*
G75*
G02*
X0367716Y0355217I0000394J0000000D01*
G01*
X0370866Y0355217D01*
G75*
G02*
X0371259Y0354823I0000000J-000394D01*
G01*
X0371259Y0349902D01*
G75*
G02*
X0370866Y0349508I-000394J0000000D01*
G01*
X0367716Y0349508D01*
G75*
G02*
X0367322Y0349902I0000000J0000394D01*
G01*
G37*
G36*
G01*
X0374803Y0349902D02*
X0374803Y0354823D01*
G75*
G02*
X0375196Y0355217I0000394J0000000D01*
G01*
X0378346Y0355217D01*
G75*
G02*
X0378740Y0354823I0000000J-000394D01*
G01*
X0378740Y0349902D01*
G75*
G02*
X0378346Y0349508I-000394J0000000D01*
G01*
X0375196Y0349508D01*
G75*
G02*
X0374803Y0349902I0000000J0000394D01*
G01*
G37*
D84*
X0031003Y0086299D03*
X0031003Y0080551D03*
X0031003Y0074803D03*
X0031003Y0069055D03*
X0031003Y0063307D03*
X0039862Y0086299D03*
X0039862Y0080551D03*
X0039862Y0074803D03*
X0039862Y0069055D03*
X0039862Y0063307D03*
D57*
X0016535Y0084646D03*
X0016535Y0080709D03*
X0016535Y0076772D03*
X0016535Y0072835D03*
X0016535Y0068898D03*
X0016535Y0064961D03*
X0054330Y0064961D03*
X0054330Y0068898D03*
X0054330Y0072835D03*
X0054330Y0076772D03*
X0054330Y0080709D03*
X0054330Y0084646D03*
D84*
X0057086Y0049055D03*
X0057086Y0043307D03*
X0057086Y0037559D03*
X0057086Y0031811D03*
X0057086Y0026063D03*
X0065944Y0049055D03*
X0065944Y0043307D03*
X0065944Y0037559D03*
X0065944Y0031811D03*
X0065944Y0026063D03*
D57*
X0042618Y0047402D03*
X0042618Y0043465D03*
X0042618Y0039528D03*
X0042618Y0035591D03*
X0042618Y0031654D03*
X0042618Y0027717D03*
X0080413Y0027717D03*
X0080413Y0031654D03*
X0080413Y0035591D03*
X0080413Y0039528D03*
X0080413Y0043465D03*
X0080413Y0047402D03*
G36*
G01*
X0113385Y0134134D02*
X0113385Y0131378D01*
G75*
G02*
X0112401Y0130394I-000984J0000000D01*
G01*
X0105708Y0130394D01*
G75*
G02*
X0104724Y0131378I0000000J0000984D01*
G01*
X0104724Y0134134D01*
G75*
G02*
X0105708Y0135118I0000984J0000000D01*
G01*
X0112401Y0135118D01*
G75*
G02*
X0113385Y0134134I0000000J-000984D01*
G01*
G37*
G36*
G01*
X0096850Y0140157D02*
X0096850Y0131299D01*
G75*
G02*
X0095866Y0130315I-000984J0000000D01*
G01*
X0085826Y0130315D01*
G75*
G02*
X0084842Y0131299I0000000J0000984D01*
G01*
X0084842Y0140157D01*
G75*
G02*
X0085826Y0141142I0000984J0000000D01*
G01*
X0095866Y0141142D01*
G75*
G02*
X0096850Y0140157I0000000J-000984D01*
G01*
G37*
G36*
G01*
X0096850Y0152165D02*
X0096850Y0143307D01*
G75*
G02*
X0095866Y0142323I-000984J0000000D01*
G01*
X0085826Y0142323D01*
G75*
G02*
X0084842Y0143307I0000000J0000984D01*
G01*
X0084842Y0152165D01*
G75*
G02*
X0085826Y0153150I0000984J0000000D01*
G01*
X0095866Y0153150D01*
G75*
G02*
X0096850Y0152165I0000000J-000984D01*
G01*
G37*
G36*
G01*
X0083661Y0140157D02*
X0083661Y0131299D01*
G75*
G02*
X0082677Y0130315I-000984J0000000D01*
G01*
X0072637Y0130315D01*
G75*
G02*
X0071653Y0131299I0000000J0000984D01*
G01*
X0071653Y0140157D01*
G75*
G02*
X0072637Y0141142I0000984J0000000D01*
G01*
X0082677Y0141142D01*
G75*
G02*
X0083661Y0140157I0000000J-000984D01*
G01*
G37*
G36*
G01*
X0083661Y0152165D02*
X0083661Y0143307D01*
G75*
G02*
X0082677Y0142323I-000984J0000000D01*
G01*
X0072637Y0142323D01*
G75*
G02*
X0071653Y0143307I0000000J0000984D01*
G01*
X0071653Y0152165D01*
G75*
G02*
X0072637Y0153150I0000984J0000000D01*
G01*
X0082677Y0153150D01*
G75*
G02*
X0083661Y0152165I0000000J-000984D01*
G01*
G37*
G36*
G01*
X0113385Y0152087D02*
X0113385Y0149331D01*
G75*
G02*
X0112401Y0148346I-000984J0000000D01*
G01*
X0105708Y0148346D01*
G75*
G02*
X0104724Y0149331I0000000J0000984D01*
G01*
X0104724Y0152087D01*
G75*
G02*
X0105708Y0153071I0000984J0000000D01*
G01*
X0112401Y0153071D01*
G75*
G02*
X0113385Y0152087I0000000J-000984D01*
G01*
G37*
D71*
X0183661Y0036102D03*
X0186811Y0036102D03*
X0191929Y0036102D03*
X0195866Y0036102D03*
X0197834Y0036102D03*
X0201771Y0036102D03*
X0206889Y0036102D03*
X0210039Y0036102D03*
X0208858Y0036102D03*
X0205708Y0036102D03*
X0203740Y0036102D03*
X0199803Y0036102D03*
X0193897Y0036102D03*
X0189960Y0036102D03*
X0187992Y0036102D03*
X0184842Y0036102D03*
G36*
G01*
X0078326Y0091339D02*
X0075610Y0091339D01*
G75*
G02*
X0074704Y0092244I0000000J0000906D01*
G01*
X0074704Y0097520D01*
G75*
G02*
X0075610Y0098425I0000906J0000000D01*
G01*
X0078326Y0098425D01*
G75*
G02*
X0079232Y0097520I0000000J-000906D01*
G01*
X0079232Y0092244D01*
G75*
G02*
X0078326Y0091339I-000906J0000000D01*
G01*
G37*
G36*
G01*
X0089744Y0091339D02*
X0087027Y0091339D01*
G75*
G02*
X0086122Y0092244I0000000J0000906D01*
G01*
X0086122Y0097520D01*
G75*
G02*
X0087027Y0098425I0000906J0000000D01*
G01*
X0089744Y0098425D01*
G75*
G02*
X0090649Y0097520I0000000J-000906D01*
G01*
X0090649Y0092244D01*
G75*
G02*
X0089744Y0091339I-000906J0000000D01*
G01*
G37*
G36*
G01*
X0076811Y0269291D02*
X0072795Y0269291D01*
G75*
G02*
X0072440Y0269646I0000000J0000354D01*
G01*
X0072440Y0272480D01*
G75*
G02*
X0072795Y0272835I0000354J0000000D01*
G01*
X0076811Y0272835D01*
G75*
G02*
X0077165Y0272480I0000000J-000354D01*
G01*
X0077165Y0269646D01*
G75*
G02*
X0076811Y0269291I-000354J0000000D01*
G01*
G37*
G36*
G01*
X0076811Y0282283D02*
X0072795Y0282283D01*
G75*
G02*
X0072440Y0282638I0000000J0000354D01*
G01*
X0072440Y0285472D01*
G75*
G02*
X0072795Y0285827I0000354J0000000D01*
G01*
X0076811Y0285827D01*
G75*
G02*
X0077165Y0285472I0000000J-000354D01*
G01*
X0077165Y0282638D01*
G75*
G02*
X0076811Y0282283I-000354J0000000D01*
G01*
G37*
G36*
G01*
X0091377Y0043504D02*
X0094448Y0043504D01*
G75*
G02*
X0094724Y0043228I0000000J-000276D01*
G01*
X0094724Y0041024D01*
G75*
G02*
X0094448Y0040748I-000276J0000000D01*
G01*
X0091377Y0040748D01*
G75*
G02*
X0091102Y0041024I0000000J0000276D01*
G01*
X0091102Y0043228D01*
G75*
G02*
X0091377Y0043504I0000276J0000000D01*
G01*
G37*
G36*
G01*
X0091377Y0037205D02*
X0094448Y0037205D01*
G75*
G02*
X0094724Y0036929I0000000J-000276D01*
G01*
X0094724Y0034724D01*
G75*
G02*
X0094448Y0034449I-000276J0000000D01*
G01*
X0091377Y0034449D01*
G75*
G02*
X0091102Y0034724I0000000J0000276D01*
G01*
X0091102Y0036929D01*
G75*
G02*
X0091377Y0037205I0000276J0000000D01*
G01*
G37*
D75*
X0276863Y0277333D03*
X0276863Y0238583D03*
X0271863Y0238583D03*
X0266863Y0238583D03*
X0261863Y0238583D03*
X0261863Y0277333D03*
X0266863Y0277333D03*
X0271863Y0277333D03*
G36*
G01*
X0007637Y0057028D02*
X0004960Y0057028D01*
G75*
G02*
X0004626Y0057362I0000000J0000335D01*
G01*
X0004626Y0060039D01*
G75*
G02*
X0004960Y0060374I0000335J0000000D01*
G01*
X0007637Y0060374D01*
G75*
G02*
X0007972Y0060039I0000000J-000335D01*
G01*
X0007972Y0057362D01*
G75*
G02*
X0007637Y0057028I-000335J0000000D01*
G01*
G37*
G36*
G01*
X0007637Y0063248D02*
X0004960Y0063248D01*
G75*
G02*
X0004626Y0063583I0000000J0000335D01*
G01*
X0004626Y0066260D01*
G75*
G02*
X0004960Y0066595I0000335J0000000D01*
G01*
X0007637Y0066595D01*
G75*
G02*
X0007972Y0066260I0000000J-000335D01*
G01*
X0007972Y0063583D01*
G75*
G02*
X0007637Y0063248I-000335J0000000D01*
G01*
G37*
X0106791Y0014665D02*
G01*
G75*
D104*
X0151870Y0039032D02*
D03*
X0151870Y0021315D02*
D03*
D105*
X0148543Y0063484D02*
D03*
X0121181Y0063484D02*
D03*
D106*
X0137303Y0040256D02*
D03*
X0121161Y0040256D02*
D03*
D107*
X0139074Y0022145D02*
D03*
X0123326Y0022145D02*
D03*
D108*
X0116135Y0083923D02*
D03*
X0125387Y0080183D02*
D03*
D108*
X0125387Y0087663D02*
D03*
D109*
X0148222Y0093602D02*
D03*
D109*
X0148222Y0089862D02*
D03*
X0148222Y0086122D02*
D03*
X0156686Y0086122D02*
D03*
X0156686Y0093602D02*
D03*
D110*
X0160538Y0079601D02*
D03*
X0147546Y0079601D02*
D03*
D111*
X0142252Y0079889D02*
D03*
X0130834Y0079889D02*
D03*
D112*
X0161437Y0047342D02*
D03*
X0155216Y0047342D02*
D03*
X0150846Y0047342D02*
D03*
X0144626Y0047342D02*
D03*
D113*
X0110760Y0024453D02*
D03*
X0110760Y0028587D02*
D03*
X0161315Y0066327D02*
D03*
X0161315Y0070461D02*
D03*
X0161315Y0061614D02*
D03*
X0161315Y0057480D02*
D03*
X0162207Y0041965D02*
D03*
X0162207Y0037831D02*
D03*
D114*
X0143104Y0086172D02*
D03*
X0143104Y0090109D02*
D03*
X0129429Y0087074D02*
D03*
X0138090Y0087074D02*
D03*
X0129429Y0093471D02*
D03*
X0138090Y0093471D02*
D03*
D115*
X0121056Y0093602D02*
D03*
X0124600Y0093602D02*
D03*
D116*
X0157057Y0070264D02*
D03*
X0157057Y0066720D02*
D03*
X0157057Y0061220D02*
D03*
X0157057Y0057677D02*
D03*
X0162207Y0029664D02*
D03*
X0162207Y0033208D02*
D03*
X0312894Y0333169D02*
G01*
G75*
D300*
X0323118Y0318464D02*
D03*
X0315638Y0318464D02*
D03*
X0315638Y0326929D02*
D03*
X0319378Y0326929D02*
D03*
X0323118Y0302815D02*
D03*
X0315638Y0302815D02*
D03*
X0315638Y0311279D02*
D03*
X0319378Y0311279D02*
D03*
D300*
X0323118Y0326929D02*
D03*
X0323118Y0311279D02*
D03*
X0176280Y0314862D02*
%LPD*%
G01*
G36*
G01*
X0193898Y0297421D02*
X0195355Y0297421D01*
G75*
G02*
X0195886Y0296890I0000000J-000531D01*
G01*
X0195886Y0295827D01*
G75*
G02*
X0195355Y0295295I-000531J0000000D01*
G01*
X0193898Y0295295D01*
G75*
G02*
X0193367Y0295827I0000000J0000531D01*
G01*
X0193367Y0296890D01*
G75*
G02*
X0193898Y0297421I0000531J0000000D01*
G01*
G37*
G36*
G01*
X0193898Y0301437D02*
X0195355Y0301437D01*
G75*
G02*
X0195886Y0300905I0000000J-000531D01*
G01*
X0195886Y0299842D01*
G75*
G02*
X0195355Y0299311I-000531J0000000D01*
G01*
X0193898Y0299311D01*
G75*
G02*
X0193367Y0299842I0000000J0000531D01*
G01*
X0193367Y0300905D01*
G75*
G02*
X0193898Y0301437I0000531J0000000D01*
G01*
G37*
G36*
G01*
X0178209Y0274173D02*
X0178209Y0275630D01*
G75*
G02*
X0178741Y0276161I0000531J0000000D01*
G01*
X0179804Y0276161D01*
G75*
G02*
X0180335Y0275630I0000000J-000531D01*
G01*
X0180335Y0274173D01*
G75*
G02*
X0179804Y0273642I-000531J0000000D01*
G01*
X0178741Y0273642D01*
G75*
G02*
X0178209Y0274173I0000000J0000531D01*
G01*
G37*
G36*
G01*
X0182225Y0274173D02*
X0182225Y0275630D01*
G75*
G02*
X0182756Y0276161I0000531J0000000D01*
G01*
X0183819Y0276161D01*
G75*
G02*
X0184351Y0275630I0000000J-000531D01*
G01*
X0184351Y0274173D01*
G75*
G02*
X0183819Y0273642I-000531J0000000D01*
G01*
X0182756Y0273642D01*
G75*
G02*
X0182225Y0274173I0000000J0000531D01*
G01*
G37*
G36*
G01*
X0210552Y0285145D02*
X0211733Y0285145D01*
G75*
G02*
X0212323Y0284555I0000000J-000591D01*
G01*
X0212323Y0278059D01*
G75*
G02*
X0211733Y0277468I-000591J0000000D01*
G01*
X0210552Y0277468D01*
G75*
G02*
X0209961Y0278059I0000000J0000591D01*
G01*
X0209961Y0284555D01*
G75*
G02*
X0210552Y0285145I0000591J0000000D01*
G01*
G37*
G36*
G01*
X0205552Y0285145D02*
X0206733Y0285145D01*
G75*
G02*
X0207323Y0284555I0000000J-000591D01*
G01*
X0207323Y0278059D01*
G75*
G02*
X0206733Y0277468I-000591J0000000D01*
G01*
X0205552Y0277468D01*
G75*
G02*
X0204961Y0278059I0000000J0000591D01*
G01*
X0204961Y0284555D01*
G75*
G02*
X0205552Y0285145I0000591J0000000D01*
G01*
G37*
G36*
G01*
X0200552Y0285145D02*
X0201733Y0285145D01*
G75*
G02*
X0202323Y0284555I0000000J-000591D01*
G01*
X0202323Y0278059D01*
G75*
G02*
X0201733Y0277468I-000591J0000000D01*
G01*
X0200552Y0277468D01*
G75*
G02*
X0199961Y0278059I0000000J0000591D01*
G01*
X0199961Y0284555D01*
G75*
G02*
X0200552Y0285145I0000591J0000000D01*
G01*
G37*
G36*
G01*
X0195552Y0285145D02*
X0196733Y0285145D01*
G75*
G02*
X0197323Y0284555I0000000J-000591D01*
G01*
X0197323Y0278059D01*
G75*
G02*
X0196733Y0277468I-000591J0000000D01*
G01*
X0195552Y0277468D01*
G75*
G02*
X0194961Y0278059I0000000J0000591D01*
G01*
X0194961Y0284555D01*
G75*
G02*
X0195552Y0285145I0000591J0000000D01*
G01*
G37*
G36*
G01*
X0195552Y0265657D02*
X0196733Y0265657D01*
G75*
G02*
X0197323Y0265067I0000000J-000591D01*
G01*
X0197323Y0258571D01*
G75*
G02*
X0196733Y0257980I-000591J0000000D01*
G01*
X0195552Y0257980D01*
G75*
G02*
X0194961Y0258571I0000000J0000591D01*
G01*
X0194961Y0265067D01*
G75*
G02*
X0195552Y0265657I0000591J0000000D01*
G01*
G37*
G36*
G01*
X0200552Y0265657D02*
X0201733Y0265657D01*
G75*
G02*
X0202323Y0265067I0000000J-000591D01*
G01*
X0202323Y0258571D01*
G75*
G02*
X0201733Y0257980I-000591J0000000D01*
G01*
X0200552Y0257980D01*
G75*
G02*
X0199961Y0258571I0000000J0000591D01*
G01*
X0199961Y0265067D01*
G75*
G02*
X0200552Y0265657I0000591J0000000D01*
G01*
G37*
G36*
G01*
X0205552Y0265657D02*
X0206733Y0265657D01*
G75*
G02*
X0207323Y0265067I0000000J-000591D01*
G01*
X0207323Y0258571D01*
G75*
G02*
X0206733Y0257980I-000591J0000000D01*
G01*
X0205552Y0257980D01*
G75*
G02*
X0204961Y0258571I0000000J0000591D01*
G01*
X0204961Y0265067D01*
G75*
G02*
X0205552Y0265657I0000591J0000000D01*
G01*
G37*
G36*
G01*
X0210552Y0265657D02*
X0211733Y0265657D01*
G75*
G02*
X0212323Y0265067I0000000J-000591D01*
G01*
X0212323Y0258571D01*
G75*
G02*
X0211733Y0257980I-000591J0000000D01*
G01*
X0210552Y0257980D01*
G75*
G02*
X0209961Y0258571I0000000J0000591D01*
G01*
X0209961Y0265067D01*
G75*
G02*
X0210552Y0265657I0000591J0000000D01*
G01*
G37*
D157*
X0211280Y0299665D03*
X0208721Y0299665D03*
X0206162Y0299665D03*
X0206162Y0292185D03*
X0208721Y0292185D03*
X0211280Y0292185D03*
G36*
G01*
X0192192Y0283504D02*
X0192192Y0282047D01*
G75*
G02*
X0191660Y0281516I-000531J0000000D01*
G01*
X0190597Y0281516D01*
G75*
G02*
X0190066Y0282047I0000000J0000531D01*
G01*
X0190066Y0283504D01*
G75*
G02*
X0190597Y0284035I0000531J0000000D01*
G01*
X0191660Y0284035D01*
G75*
G02*
X0192192Y0283504I0000000J-000531D01*
G01*
G37*
G36*
G01*
X0188176Y0283504D02*
X0188176Y0282047D01*
G75*
G02*
X0187645Y0281516I-000531J0000000D01*
G01*
X0186582Y0281516D01*
G75*
G02*
X0186050Y0282047I0000000J0000531D01*
G01*
X0186050Y0283504D01*
G75*
G02*
X0186582Y0284035I0000531J0000000D01*
G01*
X0187645Y0284035D01*
G75*
G02*
X0188176Y0283504I0000000J-000531D01*
G01*
G37*
G36*
G01*
X0186129Y0278169D02*
X0186129Y0279508D01*
G75*
G02*
X0186680Y0280059I0000551J0000000D01*
G01*
X0187782Y0280059D01*
G75*
G02*
X0188334Y0279508I0000000J-000551D01*
G01*
X0188334Y0278169D01*
G75*
G02*
X0187782Y0277618I-000551J0000000D01*
G01*
X0186680Y0277618D01*
G75*
G02*
X0186129Y0278169I0000000J0000551D01*
G01*
G37*
G36*
G01*
X0189908Y0278169D02*
X0189908Y0279508D01*
G75*
G02*
X0190460Y0280059I0000551J0000000D01*
G01*
X0191562Y0280059D01*
G75*
G02*
X0192113Y0279508I0000000J-000551D01*
G01*
X0192113Y0278169D01*
G75*
G02*
X0191562Y0277618I-000551J0000000D01*
G01*
X0190460Y0277618D01*
G75*
G02*
X0189908Y0278169I0000000J0000551D01*
G01*
G37*
G36*
G01*
X0178209Y0282047D02*
X0178209Y0283504D01*
G75*
G02*
X0178741Y0284035I0000531J0000000D01*
G01*
X0179804Y0284035D01*
G75*
G02*
X0180335Y0283504I0000000J-000531D01*
G01*
X0180335Y0282047D01*
G75*
G02*
X0179804Y0281516I-000531J0000000D01*
G01*
X0178741Y0281516D01*
G75*
G02*
X0178209Y0282047I0000000J0000531D01*
G01*
G37*
G36*
G01*
X0182225Y0282047D02*
X0182225Y0283504D01*
G75*
G02*
X0182756Y0284035I0000531J0000000D01*
G01*
X0183819Y0284035D01*
G75*
G02*
X0184351Y0283504I0000000J-000531D01*
G01*
X0184351Y0282047D01*
G75*
G02*
X0183819Y0281516I-000531J0000000D01*
G01*
X0182756Y0281516D01*
G75*
G02*
X0182225Y0282047I0000000J0000531D01*
G01*
G37*
G36*
G01*
X0184272Y0270453D02*
X0184272Y0269114D01*
G75*
G02*
X0183721Y0268563I-000551J0000000D01*
G01*
X0182619Y0268563D01*
G75*
G02*
X0182067Y0269114I0000000J0000551D01*
G01*
X0182067Y0270453D01*
G75*
G02*
X0182619Y0271004I0000551J0000000D01*
G01*
X0183721Y0271004D01*
G75*
G02*
X0184272Y0270453I0000000J-000551D01*
G01*
G37*
G36*
G01*
X0180493Y0270453D02*
X0180493Y0269114D01*
G75*
G02*
X0179941Y0268563I-000551J0000000D01*
G01*
X0178839Y0268563D01*
G75*
G02*
X0178288Y0269114I0000000J0000551D01*
G01*
X0178288Y0270453D01*
G75*
G02*
X0178839Y0271004I0000551J0000000D01*
G01*
X0179941Y0271004D01*
G75*
G02*
X0180493Y0270453I0000000J-000551D01*
G01*
G37*
G36*
G01*
X0188130Y0293582D02*
X0188130Y0292244D01*
G75*
G02*
X0187579Y0291693I-000551J0000000D01*
G01*
X0186477Y0291693D01*
G75*
G02*
X0185926Y0292244I0000000J0000551D01*
G01*
X0185926Y0293582D01*
G75*
G02*
X0186477Y0294134I0000551J0000000D01*
G01*
X0187579Y0294134D01*
G75*
G02*
X0188130Y0293582I0000000J-000551D01*
G01*
G37*
G36*
G01*
X0184351Y0293582D02*
X0184351Y0292244D01*
G75*
G02*
X0183800Y0291693I-000551J0000000D01*
G01*
X0182697Y0291693D01*
G75*
G02*
X0182146Y0292244I0000000J0000551D01*
G01*
X0182146Y0293582D01*
G75*
G02*
X0182697Y0294134I0000551J0000000D01*
G01*
X0183800Y0294134D01*
G75*
G02*
X0184351Y0293582I0000000J-000551D01*
G01*
G37*
G36*
G01*
X0191378Y0287815D02*
X0189922Y0287815D01*
G75*
G02*
X0189390Y0288346I0000000J0000531D01*
G01*
X0189390Y0289409D01*
G75*
G02*
X0189922Y0289941I0000531J0000000D01*
G01*
X0191378Y0289941D01*
G75*
G02*
X0191910Y0289409I0000000J-000531D01*
G01*
X0191910Y0288346D01*
G75*
G02*
X0191378Y0287815I-000531J0000000D01*
G01*
G37*
G36*
G01*
X0191378Y0291831D02*
X0189922Y0291831D01*
G75*
G02*
X0189390Y0292362I0000000J0000531D01*
G01*
X0189390Y0293425D01*
G75*
G02*
X0189922Y0293956I0000531J0000000D01*
G01*
X0191378Y0293956D01*
G75*
G02*
X0191910Y0293425I0000000J-000531D01*
G01*
X0191910Y0292362D01*
G75*
G02*
X0191378Y0291831I-000531J0000000D01*
G01*
G37*
G36*
G01*
X0192107Y0256988D02*
X0190768Y0256988D01*
G75*
G02*
X0190217Y0257539I0000000J0000551D01*
G01*
X0190217Y0258642D01*
G75*
G02*
X0190768Y0259193I0000551J0000000D01*
G01*
X0192107Y0259193D01*
G75*
G02*
X0192658Y0258642I0000000J-000551D01*
G01*
X0192658Y0257539D01*
G75*
G02*
X0192107Y0256988I-000551J0000000D01*
G01*
G37*
G36*
G01*
X0192107Y0260768D02*
X0190768Y0260768D01*
G75*
G02*
X0190217Y0261319I0000000J0000551D01*
G01*
X0190217Y0262421D01*
G75*
G02*
X0190768Y0262972I0000551J0000000D01*
G01*
X0192107Y0262972D01*
G75*
G02*
X0192658Y0262421I0000000J-000551D01*
G01*
X0192658Y0261319D01*
G75*
G02*
X0192107Y0260768I-000551J0000000D01*
G01*
G37*
G36*
G01*
X0197870Y0306043D02*
X0199887Y0306043D01*
G75*
G02*
X0200749Y0305182I0000000J-000861D01*
G01*
X0200749Y0303459D01*
G75*
G02*
X0199887Y0302598I-000861J0000000D01*
G01*
X0197870Y0302598D01*
G75*
G02*
X0197008Y0303459I0000000J0000861D01*
G01*
X0197008Y0305182D01*
G75*
G02*
X0197870Y0306043I0000861J0000000D01*
G01*
G37*
G36*
G01*
X0197870Y0312244D02*
X0199887Y0312244D01*
G75*
G02*
X0200749Y0311383I0000000J-000861D01*
G01*
X0200749Y0309660D01*
G75*
G02*
X0199887Y0308799I-000861J0000000D01*
G01*
X0197870Y0308799D01*
G75*
G02*
X0197008Y0309660I0000000J0000861D01*
G01*
X0197008Y0311383D01*
G75*
G02*
X0197870Y0312244I0000861J0000000D01*
G01*
G37*
G36*
G01*
X0203091Y0287264D02*
X0203091Y0288602D01*
G75*
G02*
X0203642Y0289153I0000551J0000000D01*
G01*
X0204745Y0289153D01*
G75*
G02*
X0205296Y0288602I0000000J-000551D01*
G01*
X0205296Y0287264D01*
G75*
G02*
X0204745Y0286712I-000551J0000000D01*
G01*
X0203642Y0286712D01*
G75*
G02*
X0203091Y0287264I0000000J0000551D01*
G01*
G37*
G36*
G01*
X0206871Y0287264D02*
X0206871Y0288602D01*
G75*
G02*
X0207422Y0289153I0000551J0000000D01*
G01*
X0208524Y0289153D01*
G75*
G02*
X0209075Y0288602I0000000J-000551D01*
G01*
X0209075Y0287264D01*
G75*
G02*
X0208524Y0286712I-000551J0000000D01*
G01*
X0207422Y0286712D01*
G75*
G02*
X0206871Y0287264I0000000J0000551D01*
G01*
G37*
G36*
G01*
X0205945Y0304901D02*
X0204489Y0304901D01*
G75*
G02*
X0203957Y0305433I0000000J0000531D01*
G01*
X0203957Y0306496D01*
G75*
G02*
X0204489Y0307027I0000531J0000000D01*
G01*
X0205945Y0307027D01*
G75*
G02*
X0206477Y0306496I0000000J-000531D01*
G01*
X0206477Y0305433D01*
G75*
G02*
X0205945Y0304901I-000531J0000000D01*
G01*
G37*
G36*
G01*
X0205945Y0308917D02*
X0204489Y0308917D01*
G75*
G02*
X0203957Y0309449I0000000J0000531D01*
G01*
X0203957Y0310512D01*
G75*
G02*
X0204489Y0311043I0000531J0000000D01*
G01*
X0205945Y0311043D01*
G75*
G02*
X0206477Y0310512I0000000J-000531D01*
G01*
X0206477Y0309449D01*
G75*
G02*
X0205945Y0308917I-000531J0000000D01*
G01*
G37*
G36*
G01*
X0193859Y0293956D02*
X0195315Y0293956D01*
G75*
G02*
X0195847Y0293425I0000000J-000531D01*
G01*
X0195847Y0292362D01*
G75*
G02*
X0195315Y0291831I-000531J0000000D01*
G01*
X0193859Y0291831D01*
G75*
G02*
X0193327Y0292362I0000000J0000531D01*
G01*
X0193327Y0293425D01*
G75*
G02*
X0193859Y0293956I0000531J0000000D01*
G01*
G37*
G36*
G01*
X0193859Y0289941D02*
X0195315Y0289941D01*
G75*
G02*
X0195847Y0289409I0000000J-000531D01*
G01*
X0195847Y0288346D01*
G75*
G02*
X0195315Y0287815I-000531J0000000D01*
G01*
X0193859Y0287815D01*
G75*
G02*
X0193327Y0288346I0000000J0000531D01*
G01*
X0193327Y0289409D01*
G75*
G02*
X0193859Y0289941I0000531J0000000D01*
G01*
G37*
G36*
G01*
X0188068Y0288819D02*
X0188068Y0287362D01*
G75*
G02*
X0187537Y0286831I-000531J0000000D01*
G01*
X0186474Y0286831D01*
G75*
G02*
X0185942Y0287362I0000000J0000531D01*
G01*
X0185942Y0288819D01*
G75*
G02*
X0186474Y0289350I0000531J0000000D01*
G01*
X0187537Y0289350D01*
G75*
G02*
X0188068Y0288819I0000000J-000531D01*
G01*
G37*
G36*
G01*
X0184052Y0288819D02*
X0184052Y0287362D01*
G75*
G02*
X0183521Y0286831I-000531J0000000D01*
G01*
X0182458Y0286831D01*
G75*
G02*
X0181927Y0287362I0000000J0000531D01*
G01*
X0181927Y0288819D01*
G75*
G02*
X0182458Y0289350I0000531J0000000D01*
G01*
X0183521Y0289350D01*
G75*
G02*
X0184052Y0288819I0000000J-000531D01*
G01*
G37*
G36*
G01*
X0194666Y0306161D02*
X0193327Y0306161D01*
G75*
G02*
X0192776Y0306712I0000000J0000551D01*
G01*
X0192776Y0307815D01*
G75*
G02*
X0193327Y0308366I0000551J0000000D01*
G01*
X0194666Y0308366D01*
G75*
G02*
X0195217Y0307815I0000000J-000551D01*
G01*
X0195217Y0306712D01*
G75*
G02*
X0194666Y0306161I-000551J0000000D01*
G01*
G37*
G36*
G01*
X0194666Y0309941D02*
X0193327Y0309941D01*
G75*
G02*
X0192776Y0310492I0000000J0000551D01*
G01*
X0192776Y0311594D01*
G75*
G02*
X0193327Y0312145I0000551J0000000D01*
G01*
X0194666Y0312145D01*
G75*
G02*
X0195217Y0311594I0000000J-000551D01*
G01*
X0195217Y0310492D01*
G75*
G02*
X0194666Y0309941I-000551J0000000D01*
G01*
G37*
G36*
G01*
X0186129Y0269114D02*
X0186129Y0270453D01*
G75*
G02*
X0186680Y0271004I0000551J0000000D01*
G01*
X0187782Y0271004D01*
G75*
G02*
X0188334Y0270453I0000000J-000551D01*
G01*
X0188334Y0269114D01*
G75*
G02*
X0187782Y0268563I-000551J0000000D01*
G01*
X0186680Y0268563D01*
G75*
G02*
X0186129Y0269114I0000000J0000551D01*
G01*
G37*
G36*
G01*
X0189908Y0269114D02*
X0189908Y0270453D01*
G75*
G02*
X0190460Y0271004I0000551J0000000D01*
G01*
X0191562Y0271004D01*
G75*
G02*
X0192113Y0270453I0000000J-000551D01*
G01*
X0192113Y0269114D01*
G75*
G02*
X0191562Y0268563I-000551J0000000D01*
G01*
X0190460Y0268563D01*
G75*
G02*
X0189908Y0269114I0000000J0000551D01*
G01*
G37*
G36*
G01*
X0178603Y0294134D02*
X0180060Y0294134D01*
G75*
G02*
X0180591Y0293602I0000000J-000531D01*
G01*
X0180591Y0292539D01*
G75*
G02*
X0180060Y0292008I-000531J0000000D01*
G01*
X0178603Y0292008D01*
G75*
G02*
X0178071Y0292539I0000000J0000531D01*
G01*
X0178071Y0293602D01*
G75*
G02*
X0178603Y0294134I0000531J0000000D01*
G01*
G37*
G36*
G01*
X0178603Y0290118D02*
X0180060Y0290118D01*
G75*
G02*
X0180591Y0289586I0000000J-000531D01*
G01*
X0180591Y0288523D01*
G75*
G02*
X0180060Y0287992I-000531J0000000D01*
G01*
X0178603Y0287992D01*
G75*
G02*
X0178071Y0288523I0000000J0000531D01*
G01*
X0178071Y0289586D01*
G75*
G02*
X0178603Y0290118I0000531J0000000D01*
G01*
G37*
D156*
X0179823Y0264875D03*
X0179823Y0262316D03*
X0179823Y0259757D03*
X0187304Y0259757D03*
X0187304Y0262316D03*
X0187304Y0264875D03*
G36*
G01*
X0188609Y0310824D02*
X0189790Y0310824D01*
G75*
G02*
X0190381Y0310233I0000000J-000591D01*
G01*
X0190381Y0306198D01*
G75*
G02*
X0189790Y0305607I-000591J0000000D01*
G01*
X0188609Y0305607D01*
G75*
G02*
X0188019Y0306198I0000000J0000591D01*
G01*
X0188019Y0310233D01*
G75*
G02*
X0188609Y0310824I0000591J0000000D01*
G01*
G37*
G36*
G01*
X0184869Y0310824D02*
X0186050Y0310824D01*
G75*
G02*
X0186641Y0310233I0000000J-000591D01*
G01*
X0186641Y0306198D01*
G75*
G02*
X0186050Y0305607I-000591J0000000D01*
G01*
X0184869Y0305607D01*
G75*
G02*
X0184278Y0306198I0000000J0000591D01*
G01*
X0184278Y0310233D01*
G75*
G02*
X0184869Y0310824I0000591J0000000D01*
G01*
G37*
G36*
G01*
X0181129Y0310824D02*
X0182310Y0310824D01*
G75*
G02*
X0182900Y0310233I0000000J-000591D01*
G01*
X0182900Y0306198D01*
G75*
G02*
X0182310Y0305607I-000591J0000000D01*
G01*
X0181129Y0305607D01*
G75*
G02*
X0180538Y0306198I0000000J0000591D01*
G01*
X0180538Y0310233D01*
G75*
G02*
X0181129Y0310824I0000591J0000000D01*
G01*
G37*
G36*
G01*
X0181129Y0301867D02*
X0182310Y0301867D01*
G75*
G02*
X0182900Y0301277I0000000J-000591D01*
G01*
X0182900Y0297241D01*
G75*
G02*
X0182310Y0296651I-000591J0000000D01*
G01*
X0181129Y0296651D01*
G75*
G02*
X0180538Y0297241I0000000J0000591D01*
G01*
X0180538Y0301277D01*
G75*
G02*
X0181129Y0301867I0000591J0000000D01*
G01*
G37*
G36*
G01*
X0184869Y0301867D02*
X0186050Y0301867D01*
G75*
G02*
X0186641Y0301277I0000000J-000591D01*
G01*
X0186641Y0297241D01*
G75*
G02*
X0186050Y0296651I-000591J0000000D01*
G01*
X0184869Y0296651D01*
G75*
G02*
X0184278Y0297241I0000000J0000591D01*
G01*
X0184278Y0301277D01*
G75*
G02*
X0184869Y0301867I0000591J0000000D01*
G01*
G37*
G36*
G01*
X0188609Y0301867D02*
X0189790Y0301867D01*
G75*
G02*
X0190381Y0301277I0000000J-000591D01*
G01*
X0190381Y0297241D01*
G75*
G02*
X0189790Y0296651I-000591J0000000D01*
G01*
X0188609Y0296651D01*
G75*
G02*
X0188019Y0297241I0000000J0000591D01*
G01*
X0188019Y0301277D01*
G75*
G02*
X0188609Y0301867I0000591J0000000D01*
G01*
G37*
G36*
G01*
X0200493Y0299705D02*
X0201831Y0299705D01*
G75*
G02*
X0202382Y0299153I0000000J-000551D01*
G01*
X0202382Y0298051D01*
G75*
G02*
X0201831Y0297500I-000551J0000000D01*
G01*
X0200493Y0297500D01*
G75*
G02*
X0199941Y0298051I0000000J0000551D01*
G01*
X0199941Y0299153D01*
G75*
G02*
X0200493Y0299705I0000551J0000000D01*
G01*
G37*
G36*
G01*
X0200493Y0295925D02*
X0201831Y0295925D01*
G75*
G02*
X0202382Y0295374I0000000J-000551D01*
G01*
X0202382Y0294271D01*
G75*
G02*
X0201831Y0293720I-000551J0000000D01*
G01*
X0200493Y0293720D01*
G75*
G02*
X0199941Y0294271I0000000J0000551D01*
G01*
X0199941Y0295374D01*
G75*
G02*
X0200493Y0295925I0000551J0000000D01*
G01*
G37*
G36*
G01*
X0178288Y0278169D02*
X0178288Y0279508D01*
G75*
G02*
X0178839Y0280059I0000551J0000000D01*
G01*
X0179941Y0280059D01*
G75*
G02*
X0180493Y0279508I0000000J-000551D01*
G01*
X0180493Y0278169D01*
G75*
G02*
X0179941Y0277618I-000551J0000000D01*
G01*
X0178839Y0277618D01*
G75*
G02*
X0178288Y0278169I0000000J0000551D01*
G01*
G37*
G36*
G01*
X0182067Y0278169D02*
X0182067Y0279508D01*
G75*
G02*
X0182619Y0280059I0000551J0000000D01*
G01*
X0183721Y0280059D01*
G75*
G02*
X0184272Y0279508I0000000J-000551D01*
G01*
X0184272Y0278169D01*
G75*
G02*
X0183721Y0277618I-000551J0000000D01*
G01*
X0182619Y0277618D01*
G75*
G02*
X0182067Y0278169I0000000J0000551D01*
G01*
G37*
G36*
G01*
X0186050Y0274173D02*
X0186050Y0275630D01*
G75*
G02*
X0186582Y0276161I0000531J0000000D01*
G01*
X0187645Y0276161D01*
G75*
G02*
X0188176Y0275630I0000000J-000531D01*
G01*
X0188176Y0274173D01*
G75*
G02*
X0187645Y0273642I-000531J0000000D01*
G01*
X0186582Y0273642D01*
G75*
G02*
X0186050Y0274173I0000000J0000531D01*
G01*
G37*
G36*
G01*
X0190066Y0274173D02*
X0190066Y0275630D01*
G75*
G02*
X0190597Y0276161I0000531J0000000D01*
G01*
X0191660Y0276161D01*
G75*
G02*
X0192192Y0275630I0000000J-000531D01*
G01*
X0192192Y0274173D01*
G75*
G02*
X0191660Y0273642I-000531J0000000D01*
G01*
X0190597Y0273642D01*
G75*
G02*
X0190066Y0274173I0000000J0000531D01*
G01*
G37*
X0132776Y0314862D02*
%LPD*%
G01*
D310*
X0145768Y0281004D03*
X0143800Y0281004D03*
X0141831Y0281004D03*
X0139863Y0281004D03*
X0137894Y0281004D03*
X0137894Y0263681D03*
X0139863Y0263681D03*
X0141831Y0263681D03*
X0143800Y0263681D03*
X0145768Y0263681D03*
G36*
G01*
X0158957Y0273484D02*
X0158957Y0270413D01*
G75*
G02*
X0158682Y0270138I-000276J0000000D01*
G01*
X0156477Y0270138D01*
G75*
G02*
X0156201Y0270413I0000000J0000276D01*
G01*
X0156201Y0273484D01*
G75*
G02*
X0156477Y0273760I0000276J0000000D01*
G01*
X0158682Y0273760D01*
G75*
G02*
X0158957Y0273484I0000000J-000276D01*
G01*
G37*
G36*
G01*
X0152658Y0273484D02*
X0152658Y0270413D01*
G75*
G02*
X0152382Y0270138I-000276J0000000D01*
G01*
X0150178Y0270138D01*
G75*
G02*
X0149902Y0270413I0000000J0000276D01*
G01*
X0149902Y0273484D01*
G75*
G02*
X0150178Y0273760I0000276J0000000D01*
G01*
X0152382Y0273760D01*
G75*
G02*
X0152658Y0273484I0000000J-000276D01*
G01*
G37*
G36*
G01*
X0165611Y0259153D02*
X0162540Y0259153D01*
G75*
G02*
X0162264Y0259429I0000000J0000276D01*
G01*
X0162264Y0261634D01*
G75*
G02*
X0162540Y0261909I0000276J0000000D01*
G01*
X0165611Y0261909D01*
G75*
G02*
X0165886Y0261634I0000000J-000276D01*
G01*
X0165886Y0259429D01*
G75*
G02*
X0165611Y0259153I-000276J0000000D01*
G01*
G37*
G36*
G01*
X0165611Y0265453D02*
X0162540Y0265453D01*
G75*
G02*
X0162264Y0265728I0000000J0000276D01*
G01*
X0162264Y0267933D01*
G75*
G02*
X0162540Y0268208I0000276J0000000D01*
G01*
X0165611Y0268208D01*
G75*
G02*
X0165886Y0267933I0000000J-000276D01*
G01*
X0165886Y0265728D01*
G75*
G02*
X0165611Y0265453I-000276J0000000D01*
G01*
G37*
G36*
G01*
X0158957Y0279390D02*
X0158957Y0276319D01*
G75*
G02*
X0158682Y0276043I-000276J0000000D01*
G01*
X0156477Y0276043D01*
G75*
G02*
X0156201Y0276319I0000000J0000276D01*
G01*
X0156201Y0279390D01*
G75*
G02*
X0156477Y0279665I0000276J0000000D01*
G01*
X0158682Y0279665D01*
G75*
G02*
X0158957Y0279390I0000000J-000276D01*
G01*
G37*
G36*
G01*
X0152658Y0279390D02*
X0152658Y0276319D01*
G75*
G02*
X0152382Y0276043I-000276J0000000D01*
G01*
X0150178Y0276043D01*
G75*
G02*
X0149902Y0276319I0000000J0000276D01*
G01*
X0149902Y0279390D01*
G75*
G02*
X0150178Y0279665I0000276J0000000D01*
G01*
X0152382Y0279665D01*
G75*
G02*
X0152658Y0279390I0000000J-000276D01*
G01*
G37*
G36*
G01*
X0165281Y0271063D02*
X0163263Y0271063D01*
G75*
G02*
X0162402Y0271924I0000000J0000861D01*
G01*
X0162402Y0273646D01*
G75*
G02*
X0163263Y0274508I0000861J0000000D01*
G01*
X0165281Y0274508D01*
G75*
G02*
X0166142Y0273646I0000000J-000861D01*
G01*
X0166142Y0271924D01*
G75*
G02*
X0165281Y0271063I-000861J0000000D01*
G01*
G37*
G36*
G01*
X0165281Y0277264D02*
X0163263Y0277264D01*
G75*
G02*
X0162402Y0278125I0000000J0000861D01*
G01*
X0162402Y0279847D01*
G75*
G02*
X0163263Y0280708I0000861J0000000D01*
G01*
X0165281Y0280708D01*
G75*
G02*
X0166142Y0279847I0000000J-000861D01*
G01*
X0166142Y0278125D01*
G75*
G02*
X0165281Y0277264I-000861J0000000D01*
G01*
G37*
G36*
G01*
X0158319Y0265118D02*
X0155642Y0265118D01*
G75*
G02*
X0155307Y0265453I0000000J0000335D01*
G01*
X0155307Y0268130D01*
G75*
G02*
X0155642Y0268464I0000335J0000000D01*
G01*
X0158319Y0268464D01*
G75*
G02*
X0158654Y0268130I0000000J-000335D01*
G01*
X0158654Y0265453D01*
G75*
G02*
X0158319Y0265118I-000335J0000000D01*
G01*
G37*
G36*
G01*
X0158319Y0258897D02*
X0155642Y0258897D01*
G75*
G02*
X0155307Y0259232I0000000J0000335D01*
G01*
X0155307Y0261909D01*
G75*
G02*
X0155642Y0262244I0000335J0000000D01*
G01*
X0158319Y0262244D01*
G75*
G02*
X0158654Y0261909I0000000J-000335D01*
G01*
X0158654Y0259232D01*
G75*
G02*
X0158319Y0258897I-000335J0000000D01*
G01*
G37*
G36*
G01*
X0153012Y0258897D02*
X0150335Y0258897D01*
G75*
G02*
X0150000Y0259232I0000000J0000335D01*
G01*
X0150000Y0261909D01*
G75*
G02*
X0150335Y0262244I0000335J0000000D01*
G01*
X0153012Y0262244D01*
G75*
G02*
X0153347Y0261909I0000000J-000335D01*
G01*
X0153347Y0259232D01*
G75*
G02*
X0153012Y0258897I-000335J0000000D01*
G01*
G37*
G36*
G01*
X0153012Y0265118D02*
X0150335Y0265118D01*
G75*
G02*
X0150000Y0265453I0000000J0000335D01*
G01*
X0150000Y0268130D01*
G75*
G02*
X0150335Y0268464I0000335J0000000D01*
G01*
X0153012Y0268464D01*
G75*
G02*
X0153347Y0268130I0000000J-000335D01*
G01*
X0153347Y0265453D01*
G75*
G02*
X0153012Y0265118I-000335J0000000D01*
G01*
G37*
G36*
G01*
X0159213Y0284311D02*
X0159213Y0281634D01*
G75*
G02*
X0158878Y0281299I-000335J0000000D01*
G01*
X0156201Y0281299D01*
G75*
G02*
X0155867Y0281634I0000000J0000335D01*
G01*
X0155867Y0284311D01*
G75*
G02*
X0156201Y0284645I0000335J0000000D01*
G01*
X0158878Y0284645D01*
G75*
G02*
X0159213Y0284311I0000000J-000335D01*
G01*
G37*
G36*
G01*
X0152993Y0284311D02*
X0152993Y0281634D01*
G75*
G02*
X0152658Y0281299I-000335J0000000D01*
G01*
X0149981Y0281299D01*
G75*
G02*
X0149646Y0281634I0000000J0000335D01*
G01*
X0149646Y0284311D01*
G75*
G02*
X0149981Y0284645I0000335J0000000D01*
G01*
X0152658Y0284645D01*
G75*
G02*
X0152993Y0284311I0000000J-000335D01*
G01*
G37*
X0401280Y0165748D02*
%LPD*%
G01*
G36*
G01*
X0365571Y0233356D02*
X0365571Y0231998D01*
G75*
G02*
X0364991Y0231417I-000581J0000000D01*
G01*
X0363829Y0231417D01*
G75*
G02*
X0363249Y0231998I0000000J0000581D01*
G01*
X0363249Y0233356D01*
G75*
G02*
X0363829Y0233937I0000581J0000000D01*
G01*
X0364991Y0233937D01*
G75*
G02*
X0365571Y0233356I0000000J-000581D01*
G01*
G37*
G36*
G01*
X0361752Y0233356D02*
X0361752Y0231998D01*
G75*
G02*
X0361172Y0231417I-000581J0000000D01*
G01*
X0360010Y0231417D01*
G75*
G02*
X0359430Y0231998I0000000J0000581D01*
G01*
X0359430Y0233356D01*
G75*
G02*
X0360010Y0233937I0000581J0000000D01*
G01*
X0361172Y0233937D01*
G75*
G02*
X0361752Y0233356I0000000J-000581D01*
G01*
G37*
G36*
G01*
X0380995Y0174783D02*
X0379636Y0174783D01*
G75*
G02*
X0379056Y0175364I0000000J0000581D01*
G01*
X0379056Y0176526D01*
G75*
G02*
X0379636Y0177106I0000581J0000000D01*
G01*
X0380995Y0177106D01*
G75*
G02*
X0381575Y0176526I0000000J-000581D01*
G01*
X0381575Y0175364D01*
G75*
G02*
X0380995Y0174783I-000581J0000000D01*
G01*
G37*
G36*
G01*
X0380995Y0178602D02*
X0379636Y0178602D01*
G75*
G02*
X0379056Y0179183I0000000J0000581D01*
G01*
X0379056Y0180344D01*
G75*
G02*
X0379636Y0180925I0000581J0000000D01*
G01*
X0380995Y0180925D01*
G75*
G02*
X0381575Y0180344I0000000J-000581D01*
G01*
X0381575Y0179183D01*
G75*
G02*
X0380995Y0178602I-000581J0000000D01*
G01*
G37*
G36*
G01*
X0365798Y0185310D02*
X0365798Y0187328D01*
G75*
G02*
X0366659Y0188189I0000861J0000000D01*
G01*
X0368381Y0188189D01*
G75*
G02*
X0369243Y0187328I0000000J-000861D01*
G01*
X0369243Y0185310D01*
G75*
G02*
X0368381Y0184449I-000861J0000000D01*
G01*
X0366659Y0184449D01*
G75*
G02*
X0365798Y0185310I0000000J0000861D01*
G01*
G37*
G36*
G01*
X0371999Y0185310D02*
X0371999Y0187328D01*
G75*
G02*
X0372860Y0188189I0000861J0000000D01*
G01*
X0374582Y0188189D01*
G75*
G02*
X0375443Y0187328I0000000J-000861D01*
G01*
X0375443Y0185310D01*
G75*
G02*
X0374582Y0184449I-000861J0000000D01*
G01*
X0372860Y0184449D01*
G75*
G02*
X0371999Y0185310I0000000J0000861D01*
G01*
G37*
G36*
G01*
X0390827Y0231801D02*
X0390827Y0233159D01*
G75*
G02*
X0391408Y0233740I0000581J0000000D01*
G01*
X0392569Y0233740D01*
G75*
G02*
X0393150Y0233159I0000000J-000581D01*
G01*
X0393150Y0231801D01*
G75*
G02*
X0392569Y0231220I-000581J0000000D01*
G01*
X0391408Y0231220D01*
G75*
G02*
X0390827Y0231801I0000000J0000581D01*
G01*
G37*
G36*
G01*
X0394646Y0231801D02*
X0394646Y0233159D01*
G75*
G02*
X0395227Y0233740I0000581J0000000D01*
G01*
X0396388Y0233740D01*
G75*
G02*
X0396969Y0233159I0000000J-000581D01*
G01*
X0396969Y0231801D01*
G75*
G02*
X0396388Y0231220I-000581J0000000D01*
G01*
X0395227Y0231220D01*
G75*
G02*
X0394646Y0231801I0000000J0000581D01*
G01*
G37*
D164*
X0375000Y0180610D03*
X0367520Y0180610D03*
X0371260Y0172736D03*
G36*
G01*
X0390827Y0227618D02*
X0390827Y0228976D01*
G75*
G02*
X0391408Y0229557I0000581J0000000D01*
G01*
X0392569Y0229557D01*
G75*
G02*
X0393150Y0228976I0000000J-000581D01*
G01*
X0393150Y0227618D01*
G75*
G02*
X0392569Y0227037I-000581J0000000D01*
G01*
X0391408Y0227037D01*
G75*
G02*
X0390827Y0227618I0000000J0000581D01*
G01*
G37*
G36*
G01*
X0394646Y0227618D02*
X0394646Y0228976D01*
G75*
G02*
X0395227Y0229557I0000581J0000000D01*
G01*
X0396388Y0229557D01*
G75*
G02*
X0396969Y0228976I0000000J-000581D01*
G01*
X0396969Y0227618D01*
G75*
G02*
X0396388Y0227037I-000581J0000000D01*
G01*
X0395227Y0227037D01*
G75*
G02*
X0394646Y0227618I0000000J0000581D01*
G01*
G37*
G36*
G01*
X0366910Y0231998D02*
X0366910Y0233356D01*
G75*
G02*
X0367491Y0233937I0000581J0000000D01*
G01*
X0368652Y0233937D01*
G75*
G02*
X0369233Y0233356I0000000J-000581D01*
G01*
X0369233Y0231998D01*
G75*
G02*
X0368652Y0231417I-000581J0000000D01*
G01*
X0367491Y0231417D01*
G75*
G02*
X0366910Y0231998I0000000J0000581D01*
G01*
G37*
G36*
G01*
X0370729Y0231998D02*
X0370729Y0233356D01*
G75*
G02*
X0371310Y0233937I0000581J0000000D01*
G01*
X0372471Y0233937D01*
G75*
G02*
X0373052Y0233356I0000000J-000581D01*
G01*
X0373052Y0231998D01*
G75*
G02*
X0372471Y0231417I-000581J0000000D01*
G01*
X0371310Y0231417D01*
G75*
G02*
X0370729Y0231998I0000000J0000581D01*
G01*
G37*
G36*
G01*
X0354646Y0228238D02*
X0354646Y0226880D01*
G75*
G02*
X0354065Y0226299I-000581J0000000D01*
G01*
X0352904Y0226299D01*
G75*
G02*
X0352323Y0226880I0000000J0000581D01*
G01*
X0352323Y0228238D01*
G75*
G02*
X0352904Y0228819I0000581J0000000D01*
G01*
X0354065Y0228819D01*
G75*
G02*
X0354646Y0228238I0000000J-000581D01*
G01*
G37*
G36*
G01*
X0350827Y0228238D02*
X0350827Y0226880D01*
G75*
G02*
X0350247Y0226299I-000581J0000000D01*
G01*
X0349085Y0226299D01*
G75*
G02*
X0348504Y0226880I0000000J0000581D01*
G01*
X0348504Y0228238D01*
G75*
G02*
X0349085Y0228819I0000581J0000000D01*
G01*
X0350247Y0228819D01*
G75*
G02*
X0350827Y0228238I0000000J-000581D01*
G01*
G37*
G36*
G01*
X0381418Y0233356D02*
X0381418Y0231998D01*
G75*
G02*
X0380837Y0231417I-000581J0000000D01*
G01*
X0379676Y0231417D01*
G75*
G02*
X0379095Y0231998I0000000J0000581D01*
G01*
X0379095Y0233356D01*
G75*
G02*
X0379676Y0233937I0000581J0000000D01*
G01*
X0380837Y0233937D01*
G75*
G02*
X0381418Y0233356I0000000J-000581D01*
G01*
G37*
G36*
G01*
X0377599Y0233356D02*
X0377599Y0231998D01*
G75*
G02*
X0377018Y0231417I-000581J0000000D01*
G01*
X0375857Y0231417D01*
G75*
G02*
X0375276Y0231998I0000000J0000581D01*
G01*
X0375276Y0233356D01*
G75*
G02*
X0375857Y0233937I0000581J0000000D01*
G01*
X0377018Y0233937D01*
G75*
G02*
X0377599Y0233356I0000000J-000581D01*
G01*
G37*
G36*
G01*
X0354646Y0193592D02*
X0354646Y0192234D01*
G75*
G02*
X0354065Y0191654I-000581J0000000D01*
G01*
X0352904Y0191654D01*
G75*
G02*
X0352323Y0192234I0000000J0000581D01*
G01*
X0352323Y0193592D01*
G75*
G02*
X0352904Y0194173I0000581J0000000D01*
G01*
X0354065Y0194173D01*
G75*
G02*
X0354646Y0193592I0000000J-000581D01*
G01*
G37*
G36*
G01*
X0350827Y0193592D02*
X0350827Y0192234D01*
G75*
G02*
X0350247Y0191654I-000581J0000000D01*
G01*
X0349085Y0191654D01*
G75*
G02*
X0348504Y0192234I0000000J0000581D01*
G01*
X0348504Y0193592D01*
G75*
G02*
X0349085Y0194173I0000581J0000000D01*
G01*
X0350247Y0194173D01*
G75*
G02*
X0350827Y0193592I0000000J-000581D01*
G01*
G37*
D315*
X0379528Y0255059D03*
X0379528Y0243051D03*
X0392717Y0255059D03*
X0392717Y0243051D03*
D311*
X0361319Y0258031D03*
X0361319Y0240079D03*
G36*
G01*
X0381093Y0182559D02*
X0379735Y0182559D01*
G75*
G02*
X0379154Y0183140I0000000J0000581D01*
G01*
X0379154Y0184301D01*
G75*
G02*
X0379735Y0184882I0000581J0000000D01*
G01*
X0381093Y0184882D01*
G75*
G02*
X0381674Y0184301I0000000J-000581D01*
G01*
X0381674Y0183140D01*
G75*
G02*
X0381093Y0182559I-000581J0000000D01*
G01*
G37*
G36*
G01*
X0381093Y0186378D02*
X0379735Y0186378D01*
G75*
G02*
X0379154Y0186959I0000000J0000581D01*
G01*
X0379154Y0188120D01*
G75*
G02*
X0379735Y0188701I0000581J0000000D01*
G01*
X0381093Y0188701D01*
G75*
G02*
X0381674Y0188120I0000000J-000581D01*
G01*
X0381674Y0186959D01*
G75*
G02*
X0381093Y0186378I-000581J0000000D01*
G01*
G37*
G36*
G01*
X0394759Y0221063D02*
X0396777Y0221063D01*
G75*
G02*
X0397638Y0220202I0000000J-000861D01*
G01*
X0397638Y0218479D01*
G75*
G02*
X0396777Y0217618I-000861J0000000D01*
G01*
X0394759Y0217618D01*
G75*
G02*
X0393898Y0218479I0000000J0000861D01*
G01*
X0393898Y0220202D01*
G75*
G02*
X0394759Y0221063I0000861J0000000D01*
G01*
G37*
G36*
G01*
X0394759Y0214862D02*
X0396777Y0214862D01*
G75*
G02*
X0397638Y0214001I0000000J-000861D01*
G01*
X0397638Y0212279D01*
G75*
G02*
X0396777Y0211417I-000861J0000000D01*
G01*
X0394759Y0211417D01*
G75*
G02*
X0393898Y0212279I0000000J0000861D01*
G01*
X0393898Y0214001D01*
G75*
G02*
X0394759Y0214862I0000861J0000000D01*
G01*
G37*
G36*
G01*
X0390827Y0223435D02*
X0390827Y0224793D01*
G75*
G02*
X0391408Y0225374I0000581J0000000D01*
G01*
X0392569Y0225374D01*
G75*
G02*
X0393150Y0224793I0000000J-000581D01*
G01*
X0393150Y0223435D01*
G75*
G02*
X0392569Y0222854I-000581J0000000D01*
G01*
X0391408Y0222854D01*
G75*
G02*
X0390827Y0223435I0000000J0000581D01*
G01*
G37*
G36*
G01*
X0394646Y0223435D02*
X0394646Y0224793D01*
G75*
G02*
X0395227Y0225374I0000581J0000000D01*
G01*
X0396388Y0225374D01*
G75*
G02*
X0396969Y0224793I0000000J-000581D01*
G01*
X0396969Y0223435D01*
G75*
G02*
X0396388Y0222854I-000581J0000000D01*
G01*
X0395227Y0222854D01*
G75*
G02*
X0394646Y0223435I0000000J0000581D01*
G01*
G37*
G36*
G01*
X0395374Y0267544D02*
X0395374Y0265527D01*
G75*
G02*
X0394513Y0264665I-000861J0000000D01*
G01*
X0392791Y0264665D01*
G75*
G02*
X0391930Y0265527I0000000J0000861D01*
G01*
X0391930Y0267544D01*
G75*
G02*
X0392791Y0268405I0000861J0000000D01*
G01*
X0394513Y0268405D01*
G75*
G02*
X0395374Y0267544I0000000J-000861D01*
G01*
G37*
G36*
G01*
X0389174Y0267544D02*
X0389174Y0265527D01*
G75*
G02*
X0388312Y0264665I-000861J0000000D01*
G01*
X0386590Y0264665D01*
G75*
G02*
X0385729Y0265527I0000000J0000861D01*
G01*
X0385729Y0267544D01*
G75*
G02*
X0386590Y0268405I0000861J0000000D01*
G01*
X0388312Y0268405D01*
G75*
G02*
X0389174Y0267544I0000000J-000861D01*
G01*
G37*
G36*
G01*
X0396777Y0199705D02*
X0394759Y0199705D01*
G75*
G02*
X0393898Y0200566I0000000J0000861D01*
G01*
X0393898Y0202288D01*
G75*
G02*
X0394759Y0203150I0000861J0000000D01*
G01*
X0396777Y0203150D01*
G75*
G02*
X0397638Y0202288I0000000J-000861D01*
G01*
X0397638Y0200566D01*
G75*
G02*
X0396777Y0199705I-000861J0000000D01*
G01*
G37*
G36*
G01*
X0396777Y0205905D02*
X0394759Y0205905D01*
G75*
G02*
X0393898Y0206767I0000000J0000861D01*
G01*
X0393898Y0208489D01*
G75*
G02*
X0394759Y0209350I0000861J0000000D01*
G01*
X0396777Y0209350D01*
G75*
G02*
X0397638Y0208489I0000000J-000861D01*
G01*
X0397638Y0206767D01*
G75*
G02*
X0396777Y0205905I-000861J0000000D01*
G01*
G37*
G36*
G01*
X0392599Y0195384D02*
X0392599Y0196742D01*
G75*
G02*
X0393180Y0197323I0000581J0000000D01*
G01*
X0394341Y0197323D01*
G75*
G02*
X0394922Y0196742I0000000J-000581D01*
G01*
X0394922Y0195384D01*
G75*
G02*
X0394341Y0194803I-000581J0000000D01*
G01*
X0393180Y0194803D01*
G75*
G02*
X0392599Y0195384I0000000J0000581D01*
G01*
G37*
G36*
G01*
X0396418Y0195384D02*
X0396418Y0196742D01*
G75*
G02*
X0396999Y0197323I0000581J0000000D01*
G01*
X0398160Y0197323D01*
G75*
G02*
X0398741Y0196742I0000000J-000581D01*
G01*
X0398741Y0195384D01*
G75*
G02*
X0398160Y0194803I-000581J0000000D01*
G01*
X0396999Y0194803D01*
G75*
G02*
X0396418Y0195384I0000000J0000581D01*
G01*
G37*
G36*
G01*
X0379922Y0229823D02*
X0380906Y0229823D01*
G75*
G02*
X0381398Y0229331I0000000J-000492D01*
G01*
X0381398Y0224409D01*
G75*
G02*
X0380906Y0223917I-000492J0000000D01*
G01*
X0379922Y0223917D01*
G75*
G02*
X0379430Y0224409I0000000J0000492D01*
G01*
X0379430Y0229331D01*
G75*
G02*
X0379922Y0229823I0000492J0000000D01*
G01*
G37*
G36*
G01*
X0376772Y0229823D02*
X0377756Y0229823D01*
G75*
G02*
X0378249Y0229331I0000000J-000492D01*
G01*
X0378249Y0224409D01*
G75*
G02*
X0377756Y0223917I-000492J0000000D01*
G01*
X0376772Y0223917D01*
G75*
G02*
X0376280Y0224409I0000000J0000492D01*
G01*
X0376280Y0229331D01*
G75*
G02*
X0376772Y0229823I0000492J0000000D01*
G01*
G37*
G36*
G01*
X0373623Y0229823D02*
X0374607Y0229823D01*
G75*
G02*
X0375099Y0229331I0000000J-000492D01*
G01*
X0375099Y0224409D01*
G75*
G02*
X0374607Y0223917I-000492J0000000D01*
G01*
X0373623Y0223917D01*
G75*
G02*
X0373130Y0224409I0000000J0000492D01*
G01*
X0373130Y0229331D01*
G75*
G02*
X0373623Y0229823I0000492J0000000D01*
G01*
G37*
G36*
G01*
X0370473Y0229823D02*
X0371457Y0229823D01*
G75*
G02*
X0371949Y0229331I0000000J-000492D01*
G01*
X0371949Y0224409D01*
G75*
G02*
X0371457Y0223917I-000492J0000000D01*
G01*
X0370473Y0223917D01*
G75*
G02*
X0369981Y0224409I0000000J0000492D01*
G01*
X0369981Y0229331D01*
G75*
G02*
X0370473Y0229823I0000492J0000000D01*
G01*
G37*
G36*
G01*
X0367323Y0229823D02*
X0368308Y0229823D01*
G75*
G02*
X0368800Y0229331I0000000J-000492D01*
G01*
X0368800Y0224409D01*
G75*
G02*
X0368308Y0223917I-000492J0000000D01*
G01*
X0367323Y0223917D01*
G75*
G02*
X0366831Y0224409I0000000J0000492D01*
G01*
X0366831Y0229331D01*
G75*
G02*
X0367323Y0229823I0000492J0000000D01*
G01*
G37*
G36*
G01*
X0364174Y0229823D02*
X0365158Y0229823D01*
G75*
G02*
X0365650Y0229331I0000000J-000492D01*
G01*
X0365650Y0224409D01*
G75*
G02*
X0365158Y0223917I-000492J0000000D01*
G01*
X0364174Y0223917D01*
G75*
G02*
X0363682Y0224409I0000000J0000492D01*
G01*
X0363682Y0229331D01*
G75*
G02*
X0364174Y0229823I0000492J0000000D01*
G01*
G37*
G36*
G01*
X0361024Y0229823D02*
X0362008Y0229823D01*
G75*
G02*
X0362500Y0229331I0000000J-000492D01*
G01*
X0362500Y0224409D01*
G75*
G02*
X0362008Y0223917I-000492J0000000D01*
G01*
X0361024Y0223917D01*
G75*
G02*
X0360532Y0224409I0000000J0000492D01*
G01*
X0360532Y0229331D01*
G75*
G02*
X0361024Y0229823I0000492J0000000D01*
G01*
G37*
G36*
G01*
X0357874Y0229823D02*
X0358859Y0229823D01*
G75*
G02*
X0359351Y0229331I0000000J-000492D01*
G01*
X0359351Y0224409D01*
G75*
G02*
X0358859Y0223917I-000492J0000000D01*
G01*
X0357874Y0223917D01*
G75*
G02*
X0357382Y0224409I0000000J0000492D01*
G01*
X0357382Y0229331D01*
G75*
G02*
X0357874Y0229823I0000492J0000000D01*
G01*
G37*
G36*
G01*
X0350493Y0222441D02*
X0355414Y0222441D01*
G75*
G02*
X0355906Y0221949I0000000J-000492D01*
G01*
X0355906Y0220965D01*
G75*
G02*
X0355414Y0220472I-000492J0000000D01*
G01*
X0350493Y0220472D01*
G75*
G02*
X0350000Y0220965I0000000J0000492D01*
G01*
X0350000Y0221949D01*
G75*
G02*
X0350493Y0222441I0000492J0000000D01*
G01*
G37*
G36*
G01*
X0350493Y0219291D02*
X0355414Y0219291D01*
G75*
G02*
X0355906Y0218799I0000000J-000492D01*
G01*
X0355906Y0217815D01*
G75*
G02*
X0355414Y0217323I-000492J0000000D01*
G01*
X0350493Y0217323D01*
G75*
G02*
X0350000Y0217815I0000000J0000492D01*
G01*
X0350000Y0218799D01*
G75*
G02*
X0350493Y0219291I0000492J0000000D01*
G01*
G37*
G36*
G01*
X0350493Y0216142D02*
X0355414Y0216142D01*
G75*
G02*
X0355906Y0215650I0000000J-000492D01*
G01*
X0355906Y0214665D01*
G75*
G02*
X0355414Y0214173I-000492J0000000D01*
G01*
X0350493Y0214173D01*
G75*
G02*
X0350000Y0214665I0000000J0000492D01*
G01*
X0350000Y0215650D01*
G75*
G02*
X0350493Y0216142I0000492J0000000D01*
G01*
G37*
G36*
G01*
X0350493Y0212992D02*
X0355414Y0212992D01*
G75*
G02*
X0355906Y0212500I0000000J-000492D01*
G01*
X0355906Y0211516D01*
G75*
G02*
X0355414Y0211024I-000492J0000000D01*
G01*
X0350493Y0211024D01*
G75*
G02*
X0350000Y0211516I0000000J0000492D01*
G01*
X0350000Y0212500D01*
G75*
G02*
X0350493Y0212992I0000492J0000000D01*
G01*
G37*
G36*
G01*
X0350493Y0209842D02*
X0355414Y0209842D01*
G75*
G02*
X0355906Y0209350I0000000J-000492D01*
G01*
X0355906Y0208366D01*
G75*
G02*
X0355414Y0207874I-000492J0000000D01*
G01*
X0350493Y0207874D01*
G75*
G02*
X0350000Y0208366I0000000J0000492D01*
G01*
X0350000Y0209350D01*
G75*
G02*
X0350493Y0209842I0000492J0000000D01*
G01*
G37*
G36*
G01*
X0350493Y0206693D02*
X0355414Y0206693D01*
G75*
G02*
X0355906Y0206201I0000000J-000492D01*
G01*
X0355906Y0205217D01*
G75*
G02*
X0355414Y0204724I-000492J0000000D01*
G01*
X0350493Y0204724D01*
G75*
G02*
X0350000Y0205217I0000000J0000492D01*
G01*
X0350000Y0206201D01*
G75*
G02*
X0350493Y0206693I0000492J0000000D01*
G01*
G37*
G36*
G01*
X0350493Y0203543D02*
X0355414Y0203543D01*
G75*
G02*
X0355906Y0203051I0000000J-000492D01*
G01*
X0355906Y0202067D01*
G75*
G02*
X0355414Y0201575I-000492J0000000D01*
G01*
X0350493Y0201575D01*
G75*
G02*
X0350000Y0202067I0000000J0000492D01*
G01*
X0350000Y0203051D01*
G75*
G02*
X0350493Y0203543I0000492J0000000D01*
G01*
G37*
G36*
G01*
X0350493Y0200394D02*
X0355414Y0200394D01*
G75*
G02*
X0355906Y0199902I0000000J-000492D01*
G01*
X0355906Y0198917D01*
G75*
G02*
X0355414Y0198425I-000492J0000000D01*
G01*
X0350493Y0198425D01*
G75*
G02*
X0350000Y0198917I0000000J0000492D01*
G01*
X0350000Y0199902D01*
G75*
G02*
X0350493Y0200394I0000492J0000000D01*
G01*
G37*
G36*
G01*
X0357874Y0196949D02*
X0358859Y0196949D01*
G75*
G02*
X0359351Y0196457I0000000J-000492D01*
G01*
X0359351Y0191535D01*
G75*
G02*
X0358859Y0191043I-000492J0000000D01*
G01*
X0357874Y0191043D01*
G75*
G02*
X0357382Y0191535I0000000J0000492D01*
G01*
X0357382Y0196457D01*
G75*
G02*
X0357874Y0196949I0000492J0000000D01*
G01*
G37*
G36*
G01*
X0361024Y0196949D02*
X0362008Y0196949D01*
G75*
G02*
X0362500Y0196457I0000000J-000492D01*
G01*
X0362500Y0191535D01*
G75*
G02*
X0362008Y0191043I-000492J0000000D01*
G01*
X0361024Y0191043D01*
G75*
G02*
X0360532Y0191535I0000000J0000492D01*
G01*
X0360532Y0196457D01*
G75*
G02*
X0361024Y0196949I0000492J0000000D01*
G01*
G37*
G36*
G01*
X0364174Y0196949D02*
X0365158Y0196949D01*
G75*
G02*
X0365650Y0196457I0000000J-000492D01*
G01*
X0365650Y0191535D01*
G75*
G02*
X0365158Y0191043I-000492J0000000D01*
G01*
X0364174Y0191043D01*
G75*
G02*
X0363682Y0191535I0000000J0000492D01*
G01*
X0363682Y0196457D01*
G75*
G02*
X0364174Y0196949I0000492J0000000D01*
G01*
G37*
G36*
G01*
X0367323Y0196949D02*
X0368308Y0196949D01*
G75*
G02*
X0368800Y0196457I0000000J-000492D01*
G01*
X0368800Y0191535D01*
G75*
G02*
X0368308Y0191043I-000492J0000000D01*
G01*
X0367323Y0191043D01*
G75*
G02*
X0366831Y0191535I0000000J0000492D01*
G01*
X0366831Y0196457D01*
G75*
G02*
X0367323Y0196949I0000492J0000000D01*
G01*
G37*
G36*
G01*
X0370473Y0196949D02*
X0371457Y0196949D01*
G75*
G02*
X0371949Y0196457I0000000J-000492D01*
G01*
X0371949Y0191535D01*
G75*
G02*
X0371457Y0191043I-000492J0000000D01*
G01*
X0370473Y0191043D01*
G75*
G02*
X0369981Y0191535I0000000J0000492D01*
G01*
X0369981Y0196457D01*
G75*
G02*
X0370473Y0196949I0000492J0000000D01*
G01*
G37*
G36*
G01*
X0373623Y0196949D02*
X0374607Y0196949D01*
G75*
G02*
X0375099Y0196457I0000000J-000492D01*
G01*
X0375099Y0191535D01*
G75*
G02*
X0374607Y0191043I-000492J0000000D01*
G01*
X0373623Y0191043D01*
G75*
G02*
X0373130Y0191535I0000000J0000492D01*
G01*
X0373130Y0196457D01*
G75*
G02*
X0373623Y0196949I0000492J0000000D01*
G01*
G37*
G36*
G01*
X0376772Y0196949D02*
X0377756Y0196949D01*
G75*
G02*
X0378249Y0196457I0000000J-000492D01*
G01*
X0378249Y0191535D01*
G75*
G02*
X0377756Y0191043I-000492J0000000D01*
G01*
X0376772Y0191043D01*
G75*
G02*
X0376280Y0191535I0000000J0000492D01*
G01*
X0376280Y0196457D01*
G75*
G02*
X0376772Y0196949I0000492J0000000D01*
G01*
G37*
G36*
G01*
X0379922Y0196949D02*
X0380906Y0196949D01*
G75*
G02*
X0381398Y0196457I0000000J-000492D01*
G01*
X0381398Y0191535D01*
G75*
G02*
X0380906Y0191043I-000492J0000000D01*
G01*
X0379922Y0191043D01*
G75*
G02*
X0379430Y0191535I0000000J0000492D01*
G01*
X0379430Y0196457D01*
G75*
G02*
X0379922Y0196949I0000492J0000000D01*
G01*
G37*
G36*
G01*
X0383367Y0200394D02*
X0388288Y0200394D01*
G75*
G02*
X0388780Y0199902I0000000J-000492D01*
G01*
X0388780Y0198917D01*
G75*
G02*
X0388288Y0198425I-000492J0000000D01*
G01*
X0383367Y0198425D01*
G75*
G02*
X0382874Y0198917I0000000J0000492D01*
G01*
X0382874Y0199902D01*
G75*
G02*
X0383367Y0200394I0000492J0000000D01*
G01*
G37*
G36*
G01*
X0383367Y0203543D02*
X0388288Y0203543D01*
G75*
G02*
X0388780Y0203051I0000000J-000492D01*
G01*
X0388780Y0202067D01*
G75*
G02*
X0388288Y0201575I-000492J0000000D01*
G01*
X0383367Y0201575D01*
G75*
G02*
X0382874Y0202067I0000000J0000492D01*
G01*
X0382874Y0203051D01*
G75*
G02*
X0383367Y0203543I0000492J0000000D01*
G01*
G37*
G36*
G01*
X0383367Y0206693D02*
X0388288Y0206693D01*
G75*
G02*
X0388780Y0206201I0000000J-000492D01*
G01*
X0388780Y0205217D01*
G75*
G02*
X0388288Y0204724I-000492J0000000D01*
G01*
X0383367Y0204724D01*
G75*
G02*
X0382874Y0205217I0000000J0000492D01*
G01*
X0382874Y0206201D01*
G75*
G02*
X0383367Y0206693I0000492J0000000D01*
G01*
G37*
G36*
G01*
X0383367Y0209842D02*
X0388288Y0209842D01*
G75*
G02*
X0388780Y0209350I0000000J-000492D01*
G01*
X0388780Y0208366D01*
G75*
G02*
X0388288Y0207874I-000492J0000000D01*
G01*
X0383367Y0207874D01*
G75*
G02*
X0382874Y0208366I0000000J0000492D01*
G01*
X0382874Y0209350D01*
G75*
G02*
X0383367Y0209842I0000492J0000000D01*
G01*
G37*
G36*
G01*
X0383367Y0212992D02*
X0388288Y0212992D01*
G75*
G02*
X0388780Y0212500I0000000J-000492D01*
G01*
X0388780Y0211516D01*
G75*
G02*
X0388288Y0211024I-000492J0000000D01*
G01*
X0383367Y0211024D01*
G75*
G02*
X0382874Y0211516I0000000J0000492D01*
G01*
X0382874Y0212500D01*
G75*
G02*
X0383367Y0212992I0000492J0000000D01*
G01*
G37*
G36*
G01*
X0383367Y0216142D02*
X0388288Y0216142D01*
G75*
G02*
X0388780Y0215650I0000000J-000492D01*
G01*
X0388780Y0214665D01*
G75*
G02*
X0388288Y0214173I-000492J0000000D01*
G01*
X0383367Y0214173D01*
G75*
G02*
X0382874Y0214665I0000000J0000492D01*
G01*
X0382874Y0215650D01*
G75*
G02*
X0383367Y0216142I0000492J0000000D01*
G01*
G37*
G36*
G01*
X0383367Y0219291D02*
X0388288Y0219291D01*
G75*
G02*
X0388780Y0218799I0000000J-000492D01*
G01*
X0388780Y0217815D01*
G75*
G02*
X0388288Y0217323I-000492J0000000D01*
G01*
X0383367Y0217323D01*
G75*
G02*
X0382874Y0217815I0000000J0000492D01*
G01*
X0382874Y0218799D01*
G75*
G02*
X0383367Y0219291I0000492J0000000D01*
G01*
G37*
G36*
G01*
X0383367Y0222441D02*
X0388288Y0222441D01*
G75*
G02*
X0388780Y0221949I0000000J-000492D01*
G01*
X0388780Y0220965D01*
G75*
G02*
X0388288Y0220472I-000492J0000000D01*
G01*
X0383367Y0220472D01*
G75*
G02*
X0382874Y0220965I0000000J0000492D01*
G01*
X0382874Y0221949D01*
G75*
G02*
X0383367Y0222441I0000492J0000000D01*
G01*
G37*
G36*
G01*
X0361821Y0187815D02*
X0363180Y0187815D01*
G75*
G02*
X0363760Y0187234I0000000J-000581D01*
G01*
X0363760Y0186073D01*
G75*
G02*
X0363180Y0185492I-000581J0000000D01*
G01*
X0361821Y0185492D01*
G75*
G02*
X0361241Y0186073I0000000J0000581D01*
G01*
X0361241Y0187234D01*
G75*
G02*
X0361821Y0187815I0000581J0000000D01*
G01*
G37*
G36*
G01*
X0361821Y0183996D02*
X0363180Y0183996D01*
G75*
G02*
X0363760Y0183415I0000000J-000581D01*
G01*
X0363760Y0182254D01*
G75*
G02*
X0363180Y0181673I-000581J0000000D01*
G01*
X0361821Y0181673D01*
G75*
G02*
X0361241Y0182254I0000000J0000581D01*
G01*
X0361241Y0183415D01*
G75*
G02*
X0361821Y0183996I0000581J0000000D01*
G01*
G37*
G36*
G01*
X0385217Y0194892D02*
X0385217Y0196250D01*
G75*
G02*
X0385798Y0196831I0000581J0000000D01*
G01*
X0386959Y0196831D01*
G75*
G02*
X0387540Y0196250I0000000J-000581D01*
G01*
X0387540Y0194892D01*
G75*
G02*
X0386959Y0194311I-000581J0000000D01*
G01*
X0385798Y0194311D01*
G75*
G02*
X0385217Y0194892I0000000J0000581D01*
G01*
G37*
G36*
G01*
X0389036Y0194892D02*
X0389036Y0196250D01*
G75*
G02*
X0389617Y0196831I0000581J0000000D01*
G01*
X0390778Y0196831D01*
G75*
G02*
X0391359Y0196250I0000000J-000581D01*
G01*
X0391359Y0194892D01*
G75*
G02*
X0390778Y0194311I-000581J0000000D01*
G01*
X0389617Y0194311D01*
G75*
G02*
X0389036Y0194892I0000000J0000581D01*
G01*
G37*
G36*
G01*
X0363180Y0171248D02*
X0361821Y0171248D01*
G75*
G02*
X0361241Y0171829I0000000J0000581D01*
G01*
X0361241Y0172990D01*
G75*
G02*
X0361821Y0173571I0000581J0000000D01*
G01*
X0363180Y0173571D01*
G75*
G02*
X0363760Y0172990I0000000J-000581D01*
G01*
X0363760Y0171829D01*
G75*
G02*
X0363180Y0171248I-000581J0000000D01*
G01*
G37*
G36*
G01*
X0363180Y0175067D02*
X0361821Y0175067D01*
G75*
G02*
X0361241Y0175648I0000000J0000581D01*
G01*
X0361241Y0176809D01*
G75*
G02*
X0361821Y0177390I0000581J0000000D01*
G01*
X0363180Y0177390D01*
G75*
G02*
X0363760Y0176809I0000000J-000581D01*
G01*
X0363760Y0175648D01*
G75*
G02*
X0363180Y0175067I-000581J0000000D01*
G01*
G37*
D160*
X0357579Y0172736D03*
X0357579Y0180217D03*
X0349705Y0176476D03*
G36*
G01*
X0383347Y0231801D02*
X0383347Y0233159D01*
G75*
G02*
X0383928Y0233740I0000581J0000000D01*
G01*
X0385089Y0233740D01*
G75*
G02*
X0385670Y0233159I0000000J-000581D01*
G01*
X0385670Y0231801D01*
G75*
G02*
X0385089Y0231220I-000581J0000000D01*
G01*
X0383928Y0231220D01*
G75*
G02*
X0383347Y0231801I0000000J0000581D01*
G01*
G37*
G36*
G01*
X0387166Y0231801D02*
X0387166Y0233159D01*
G75*
G02*
X0387747Y0233740I0000581J0000000D01*
G01*
X0388908Y0233740D01*
G75*
G02*
X0389489Y0233159I0000000J-000581D01*
G01*
X0389489Y0231801D01*
G75*
G02*
X0388908Y0231220I-000581J0000000D01*
G01*
X0387747Y0231220D01*
G75*
G02*
X0387166Y0231801I0000000J0000581D01*
G01*
G37*
G36*
G01*
X0348308Y0185674D02*
X0348308Y0187692D01*
G75*
G02*
X0349169Y0188553I0000861J0000000D01*
G01*
X0350891Y0188553D01*
G75*
G02*
X0351752Y0187692I0000000J-000861D01*
G01*
X0351752Y0185674D01*
G75*
G02*
X0350891Y0184813I-000861J0000000D01*
G01*
X0349169Y0184813D01*
G75*
G02*
X0348308Y0185674I0000000J0000861D01*
G01*
G37*
G36*
G01*
X0354508Y0185674D02*
X0354508Y0187692D01*
G75*
G02*
X0355370Y0188553I0000861J0000000D01*
G01*
X0357092Y0188553D01*
G75*
G02*
X0357953Y0187692I0000000J-000861D01*
G01*
X0357953Y0185674D01*
G75*
G02*
X0357092Y0184813I-000861J0000000D01*
G01*
X0355370Y0184813D01*
G75*
G02*
X0354508Y0185674I0000000J0000861D01*
G01*
G37*
X0322835Y0199606D02*
G01*
G75*
D67*
X0269488Y0058267D02*
D03*
D66*
X0283268Y0058267D02*
D03*
D69*
X0189370Y0164370D02*
D03*
D64*
X0231103Y0058267D02*
D03*
X0315355Y0199212D02*
D03*
D65*
X0201575Y0199212D02*
D03*
X0307087Y0058267D02*
D03*
D62*
X0322441Y0163582D02*
D03*
D63*
X0322441Y0195078D02*
D03*
D61*
X0322441Y0109842D02*
D03*
D70*
X0189370Y0187204D02*
D03*
D68*
X0189370Y0071653D02*
D03*
D59*
X0322441Y0092323D02*
D03*
X0322441Y0068307D02*
D03*
D60*
X0322441Y0080315D02*
D03*
X0189370Y0105905D02*
D03*
D396*
X0199213Y0181516D02*
D03*
X0192126Y0181516D02*
D03*
X0192126Y0191555D02*
D03*
X0199213Y0191555D02*
D03*
X0311024Y0132775D02*
D03*
X0318111Y0132775D02*
D03*
X0318111Y0142815D02*
D03*
X0311024Y0142815D02*
D03*
X0311024Y0126673D02*
D03*
X0318111Y0126673D02*
D03*
X0318111Y0116633D02*
D03*
X0311024Y0116633D02*
D03*
D397*
X0199213Y0184960D02*
D03*
X0199213Y0188110D02*
D03*
X0192126Y0188110D02*
D03*
X0192126Y0184960D02*
D03*
X0318111Y0139370D02*
D03*
X0318111Y0136220D02*
D03*
X0311024Y0136220D02*
D03*
X0311024Y0139370D02*
D03*
X0311024Y0123228D02*
D03*
X0311024Y0120078D02*
D03*
X0318111Y0120078D02*
D03*
X0318111Y0123228D02*
D03*
D398*
X0203425Y0184512D02*
D03*
X0203425Y0181953D02*
D03*
X0203425Y0179393D02*
D03*
X0210905Y0184512D02*
D03*
X0210905Y0179393D02*
D03*
X0210905Y0181953D02*
D03*
X0210905Y0189137D02*
D03*
X0210905Y0194256D02*
D03*
X0203425Y0189137D02*
D03*
X0203425Y0191697D02*
D03*
X0203425Y0194256D02*
D03*
X0210905Y0191697D02*
D03*
D184*
X0270633Y0085236D02*
D03*
X0270633Y0087204D02*
D03*
X0270633Y0089173D02*
D03*
X0270633Y0091141D02*
D03*
X0270633Y0093110D02*
D03*
X0270633Y0095078D02*
D03*
X0270633Y0097047D02*
D03*
X0270633Y0099015D02*
D03*
X0270633Y0100984D02*
D03*
X0270633Y0104921D02*
D03*
X0270633Y0106890D02*
D03*
X0270633Y0108858D02*
D03*
X0270633Y0110827D02*
D03*
X0270633Y0112795D02*
D03*
X0270633Y0114764D02*
D03*
X0270633Y0116732D02*
D03*
X0270633Y0118701D02*
D03*
X0270633Y0120669D02*
D03*
X0270633Y0122638D02*
D03*
X0270633Y0124606D02*
D03*
X0270633Y0126574D02*
D03*
X0270633Y0128543D02*
D03*
X0270633Y0130511D02*
D03*
X0270633Y0132480D02*
D03*
X0209609Y0132480D02*
D03*
X0209609Y0130511D02*
D03*
X0209609Y0128543D02*
D03*
X0209609Y0126574D02*
D03*
X0209609Y0124606D02*
D03*
X0209609Y0122638D02*
D03*
X0209609Y0120669D02*
D03*
X0209609Y0118701D02*
D03*
X0209609Y0116732D02*
D03*
X0209609Y0114764D02*
D03*
X0209609Y0112795D02*
D03*
X0209609Y0110827D02*
D03*
X0209609Y0108858D02*
D03*
X0209609Y0106890D02*
D03*
X0209609Y0104921D02*
D03*
X0209609Y0102953D02*
D03*
X0209609Y0100984D02*
D03*
X0209609Y0099015D02*
D03*
X0209609Y0097047D02*
D03*
X0209609Y0095078D02*
D03*
X0209609Y0093110D02*
D03*
X0209609Y0091141D02*
D03*
X0209609Y0089173D02*
D03*
X0209609Y0085236D02*
D03*
X0270633Y0102953D02*
D03*
X0209609Y0087204D02*
D03*
D185*
X0263743Y0139370D02*
D03*
X0259806Y0139370D02*
D03*
X0257837Y0139370D02*
D03*
X0255869Y0139370D02*
D03*
X0253900Y0139370D02*
D03*
X0251932Y0139370D02*
D03*
X0249963Y0139370D02*
D03*
X0247995Y0139370D02*
D03*
X0246026Y0139370D02*
D03*
X0244058Y0139370D02*
D03*
X0242089Y0139370D02*
D03*
X0240121Y0139370D02*
D03*
X0238152Y0139370D02*
D03*
X0236184Y0139370D02*
D03*
X0234215Y0139370D02*
D03*
X0232247Y0139370D02*
D03*
X0230278Y0139370D02*
D03*
X0228310Y0139370D02*
D03*
X0226341Y0139370D02*
D03*
X0224373Y0139370D02*
D03*
X0222404Y0139370D02*
D03*
X0220436Y0139370D02*
D03*
X0218467Y0139370D02*
D03*
X0216499Y0139370D02*
D03*
X0216499Y0078346D02*
D03*
X0218467Y0078346D02*
D03*
X0220436Y0078346D02*
D03*
X0222404Y0078346D02*
D03*
X0224373Y0078346D02*
D03*
X0226341Y0078346D02*
D03*
X0228310Y0078346D02*
D03*
X0230278Y0078346D02*
D03*
X0232247Y0078346D02*
D03*
X0234215Y0078346D02*
D03*
X0236184Y0078346D02*
D03*
X0238152Y0078346D02*
D03*
X0240121Y0078346D02*
D03*
X0242089Y0078346D02*
D03*
X0244058Y0078346D02*
D03*
X0246026Y0078346D02*
D03*
X0247995Y0078346D02*
D03*
X0249963Y0078346D02*
D03*
X0251932Y0078346D02*
D03*
X0253900Y0078346D02*
D03*
X0255869Y0078346D02*
D03*
X0257837Y0078346D02*
D03*
X0259806Y0078346D02*
D03*
X0261774Y0078346D02*
D03*
X0263743Y0078346D02*
D03*
X0261774Y0139370D02*
D03*
D186*
X0267126Y0156299D02*
D03*
X0239174Y0156299D02*
D03*
X0295079Y0156299D02*
D03*
X0289567Y0161417D02*
D03*
X0261614Y0151181D02*
D03*
X0261614Y0153740D02*
D03*
X0261614Y0156299D02*
D03*
X0261614Y0158858D02*
D03*
X0261614Y0161417D02*
D03*
X0261614Y0163976D02*
D03*
X0261614Y0166535D02*
D03*
X0239174Y0151181D02*
D03*
X0239174Y0153740D02*
D03*
X0239174Y0158858D02*
D03*
X0239174Y0161417D02*
D03*
X0239174Y0163976D02*
D03*
X0239174Y0166535D02*
D03*
X0317520Y0151181D02*
D03*
X0317520Y0153740D02*
D03*
X0317520Y0156299D02*
D03*
X0317520Y0158858D02*
D03*
X0317520Y0161417D02*
D03*
X0317520Y0163976D02*
D03*
X0317520Y0166535D02*
D03*
X0295079Y0151181D02*
D03*
X0295079Y0153740D02*
D03*
X0295079Y0158858D02*
D03*
X0295079Y0161417D02*
D03*
X0295079Y0163976D02*
D03*
X0295079Y0166535D02*
D03*
X0289567Y0151181D02*
D03*
X0289567Y0153740D02*
D03*
X0289567Y0156299D02*
D03*
X0289567Y0158858D02*
D03*
X0289567Y0163976D02*
D03*
X0289567Y0166535D02*
D03*
X0267126Y0151181D02*
D03*
X0267126Y0153740D02*
D03*
X0267126Y0158858D02*
D03*
X0267126Y0161417D02*
D03*
X0267126Y0163976D02*
D03*
X0267126Y0166535D02*
D03*
X0211221Y0166535D02*
D03*
X0211221Y0163976D02*
D03*
X0211221Y0161417D02*
D03*
X0211221Y0158858D02*
D03*
X0211221Y0156299D02*
D03*
X0211221Y0153740D02*
D03*
X0211221Y0151181D02*
D03*
X0233662Y0166535D02*
D03*
X0233662Y0163976D02*
D03*
X0233662Y0161417D02*
D03*
X0233662Y0158858D02*
D03*
X0233662Y0156299D02*
D03*
X0233662Y0153740D02*
D03*
X0233662Y0151181D02*
D03*
D399*
X0198426Y0064173D02*
D03*
X0194685Y0064173D02*
D03*
X0202166Y0064173D02*
D03*
X0202166Y0073622D02*
D03*
X0198426Y0073622D02*
D03*
X0194685Y0073622D02*
D03*
D400*
X0196976Y0085433D02*
D03*
X0196976Y0080708D02*
D03*
X0198445Y0094980D02*
D03*
X0284985Y0068195D02*
D03*
X0271673Y0144061D02*
D03*
X0200912Y0085433D02*
D03*
X0194507Y0094980D02*
D03*
X0199807Y0131964D02*
D03*
X0195870Y0131964D02*
D03*
X0199807Y0141019D02*
D03*
X0195870Y0141019D02*
D03*
X0200912Y0080708D02*
D03*
X0281048Y0068195D02*
D03*
X0288125Y0084910D02*
D03*
X0284188Y0084910D02*
D03*
X0267736Y0144061D02*
D03*
X0267717Y0139765D02*
D03*
X0271654Y0139765D02*
D03*
D189*
X0194519Y0103615D02*
D03*
X0194519Y0105583D02*
D03*
X0200818Y0101646D02*
D03*
X0200818Y0103615D02*
D03*
X0200818Y0099678D02*
D03*
X0200818Y0105583D02*
D03*
X0194519Y0099678D02*
D03*
X0194519Y0101646D02*
D03*
D190*
X0196684Y0105780D02*
D03*
X0198653Y0105780D02*
D03*
X0198653Y0099481D02*
D03*
X0196684Y0099481D02*
D03*
D401*
X0199424Y0110630D02*
D03*
X0199424Y0127165D02*
D03*
D402*
X0227953Y0183071D02*
D03*
X0218504Y0183071D02*
D03*
X0223229Y0183071D02*
D03*
X0232677Y0183071D02*
D03*
X0218504Y0194488D02*
D03*
X0227953Y0194488D02*
D03*
X0223229Y0194488D02*
D03*
X0232677Y0194488D02*
D03*
X0238887Y0176091D02*
D03*
X0238887Y0172154D02*
D03*
X0232677Y0190551D02*
D03*
D03*
X0232677Y0186614D02*
D03*
X0227953Y0190551D02*
D03*
X0227953Y0186614D02*
D03*
X0232677Y0179134D02*
D03*
X0223229Y0190551D02*
D03*
X0223229Y0186614D02*
D03*
X0227953Y0179134D02*
D03*
X0223229Y0179134D02*
D03*
X0218504Y0190551D02*
D03*
X0218504Y0186614D02*
D03*
X0218504Y0190551D02*
D03*
X0218504Y0179134D02*
D03*
X0227953Y0190551D02*
D03*
X0223229Y0190551D02*
D03*
X0318701Y0188189D02*
D03*
X0318701Y0192126D02*
D03*
X0294095Y0190551D02*
D03*
X0294095Y0194488D02*
D03*
X0279922Y0190551D02*
D03*
X0279922Y0194488D02*
D03*
X0261024Y0186614D02*
D03*
X0261024Y0190551D02*
D03*
X0261024Y0194488D02*
D03*
X0261024Y0190551D02*
D03*
X0246851Y0186614D02*
D03*
X0246851Y0190551D02*
D03*
X0318701Y0171456D02*
D03*
X0318701Y0175393D02*
D03*
X0312992Y0190551D02*
D03*
X0312992Y0186614D02*
D03*
X0308268Y0190551D02*
D03*
X0308268Y0186614D02*
D03*
X0303544Y0190551D02*
D03*
X0303544Y0186614D02*
D03*
X0298819Y0190551D02*
D03*
X0298819Y0186614D02*
D03*
X0312992Y0190551D02*
D03*
X0312992Y0194488D02*
D03*
X0308268Y0190551D02*
D03*
X0308268Y0194488D02*
D03*
X0303544Y0190551D02*
D03*
X0303544Y0194488D02*
D03*
X0298819Y0190551D02*
D03*
X0298819Y0194488D02*
D03*
X0294095Y0190551D02*
D03*
X0294095Y0186614D02*
D03*
X0289370Y0190551D02*
D03*
X0289370Y0186614D02*
D03*
X0284646Y0190551D02*
D03*
X0284646Y0186614D02*
D03*
X0279922Y0190551D02*
D03*
X0279922Y0186614D02*
D03*
X0289370Y0190551D02*
D03*
X0289370Y0194488D02*
D03*
X0284646Y0190551D02*
D03*
X0284646Y0194488D02*
D03*
X0275197Y0186614D02*
D03*
X0275197Y0190551D02*
D03*
X0270473Y0186614D02*
D03*
X0270473Y0190551D02*
D03*
X0265748Y0186614D02*
D03*
X0265748Y0190551D02*
D03*
X0275197Y0194488D02*
D03*
X0275197Y0190551D02*
D03*
X0270473Y0194488D02*
D03*
X0270473Y0190551D02*
D03*
X0265748Y0194488D02*
D03*
X0265748Y0190551D02*
D03*
X0256299Y0186614D02*
D03*
X0256299Y0190551D02*
D03*
X0251575Y0186614D02*
D03*
X0251575Y0190551D02*
D03*
X0242126Y0186614D02*
D03*
X0242126Y0190551D02*
D03*
X0256299Y0194488D02*
D03*
X0256299Y0190551D02*
D03*
X0251575Y0194488D02*
D03*
X0251575Y0190551D02*
D03*
X0246851Y0194488D02*
D03*
X0246851Y0190551D02*
D03*
X0242126Y0194488D02*
D03*
X0242126Y0190551D02*
D03*
X0318701Y0180512D02*
D03*
X0318701Y0184449D02*
D03*
D403*
X0253937Y0177559D02*
D03*
X0272835Y0177559D02*
D03*
X0291733Y0177559D02*
D03*
X0310630Y0177559D02*
D03*
X0282284Y0173819D02*
D03*
X0282284Y0177559D02*
D03*
X0282284Y0181299D02*
D03*
X0291733Y0181299D02*
D03*
X0291733Y0173819D02*
D03*
X0301181Y0173819D02*
D03*
X0301181Y0177559D02*
D03*
X0301181Y0181299D02*
D03*
X0310630Y0181299D02*
D03*
X0310630Y0173819D02*
D03*
X0263386Y0173819D02*
D03*
X0263386Y0177559D02*
D03*
X0263386Y0181299D02*
D03*
X0272835Y0181299D02*
D03*
X0272835Y0173819D02*
D03*
X0244488Y0173819D02*
D03*
X0244488Y0177559D02*
D03*
X0244488Y0181299D02*
D03*
X0253937Y0181299D02*
D03*
X0253937Y0173819D02*
D03*
D404*
X0287922Y0080524D02*
D03*
X0270000Y0070275D02*
D03*
D195*
X0297244Y0105647D02*
D03*
X0316142Y0110647D02*
D03*
X0316142Y0095647D02*
D03*
X0316142Y0100647D02*
D03*
X0316142Y0105647D02*
D03*
X0297244Y0095647D02*
D03*
X0297244Y0100647D02*
D03*
X0297244Y0110647D02*
D03*
D405*
X0315552Y0088006D02*
D03*
X0297441Y0088006D02*
D03*
D406*
X0281090Y0119532D02*
D03*
X0297299Y0120080D02*
D03*
X0280613Y0127692D02*
D03*
X0280613Y0135303D02*
D03*
X0297299Y0127692D02*
D03*
X0297299Y0135303D02*
D03*
X0280613Y0142915D02*
D03*
X0297299Y0142915D02*
D03*
X0287783Y0119532D02*
D03*
X0287306Y0127692D02*
D03*
X0287306Y0135303D02*
D03*
X0287306Y0142915D02*
D03*
X0303992Y0127692D02*
D03*
X0303992Y0120080D02*
D03*
X0287783Y0111555D02*
D03*
X0281090Y0111555D02*
D03*
X0281090Y0104468D02*
D03*
X0287783Y0104468D02*
D03*
X0287783Y0097382D02*
D03*
X0281090Y0097382D02*
D03*
X0281090Y0090295D02*
D03*
X0287783Y0090295D02*
D03*
X0303992Y0135303D02*
D03*
X0303992Y0142915D02*
D03*
X0281090Y0062795D02*
D03*
X0287783Y0062795D02*
D03*
D407*
X0194416Y0090208D02*
D03*
X0200716Y0090208D02*
D03*
X0201776Y0136649D02*
D03*
X0195476Y0136649D02*
D03*
D408*
X0235041Y0067266D02*
D03*
X0251576Y0067266D02*
D03*
D404*
X0270000Y0062795D02*
D03*
X0260748Y0066535D02*
D03*
X0287922Y0073044D02*
D03*
X0278670Y0076784D02*
D03*
D409*
X0306496Y0063596D02*
D03*
D410*
X0306496Y0088006D02*
D03*
D24*
X0237205Y0190551D02*
D03*
X0318111Y0196456D02*
D03*
D411*
X0200014Y0172809D02*
D03*
X0200014Y0155093D02*
D03*
X0130413Y0225098D02*
G01*
G75*
D463*
X0143425Y0213681D02*
D03*
X0134173Y0217421D02*
D03*
D463*
X0143425Y0221161D02*
D03*
D338*
X0155039Y0206122D02*
D03*
X0150039Y0206122D02*
D03*
X0145039Y0206122D02*
D03*
X0140039Y0206122D02*
D03*
X0155039Y0187224D02*
D03*
X0150039Y0187224D02*
D03*
X0145039Y0187224D02*
D03*
X0140039Y0187224D02*
D03*
D464*
X0134744Y0190413D02*
D03*
X0134744Y0184193D02*
D03*
X0134744Y0198759D02*
D03*
X0134744Y0204980D02*
D03*
D465*
X0148326Y0220571D02*
D03*
X0148326Y0214271D02*
D03*
D28*
X0132283Y0209941D02*
D03*
M02*
