G04 #@! TF.GenerationSoftware,KiCad,Pcbnew,8.0.9-8.0.9-0~ubuntu24.04.1*
G04 #@! TF.CreationDate,2026-02-26T22:36:56+00:00*
G04 #@! TF.ProjectId,uaefi,75616566-692e-46b6-9963-61645f706362,E*
G04 #@! TF.SameCoordinates,Original*
G04 #@! TF.FileFunction,Paste,Top*
G04 #@! TF.FilePolarity,Positive*
%FSLAX46Y46*%
G04 Gerber Fmt 4.6, Leading zero omitted, Abs format (unit mm)*
G04 Created by KiCad (PCBNEW 8.0.9-8.0.9-0~ubuntu24.04.1) date 2026-02-26 22:36:56*
%MOMM*%
%LPD*%
G01*
G04 APERTURE LIST*
%ADD10O,0.000001X0.000001*%
%ADD11R,1.300000X1.000000*%
%ADD12R,1.950000X1.160000*%
%ADD13R,2.000000X0.650000*%
%ADD14R,0.300000X1.150000*%
%ADD15R,0.690000X1.350000*%
G04 APERTURE END LIST*
G04 #@! TO.C,R40*
G36*
G01*
X99249999Y87375000D02*
X99249999Y88625000D01*
G75*
G02*
X99349999Y88725000I100000J0D01*
G01*
X100149999Y88725000D01*
G75*
G02*
X100249999Y88625000I0J-100000D01*
G01*
X100249999Y87375000D01*
G75*
G02*
X100149999Y87275000I-100000J0D01*
G01*
X99349999Y87275000D01*
G75*
G02*
X99249999Y87375000I0J100000D01*
G01*
G37*
G36*
G01*
X101150021Y87375000D02*
X101150021Y88625000D01*
G75*
G02*
X101250021Y88725000I100000J0D01*
G01*
X102050021Y88725000D01*
G75*
G02*
X102150021Y88625000I0J-100000D01*
G01*
X102150021Y87375000D01*
G75*
G02*
X102050021Y87275000I-100000J0D01*
G01*
X101250021Y87275000D01*
G75*
G02*
X101150021Y87375000I0J100000D01*
G01*
G37*
G04 #@! TD*
G04 #@! TO.C,U7*
G36*
G01*
X31275000Y77610000D02*
X31275000Y77310000D01*
G75*
G02*
X31125000Y77160000I-150000J0D01*
G01*
X29475000Y77160000D01*
G75*
G02*
X29325000Y77310000I0J150000D01*
G01*
X29325000Y77610000D01*
G75*
G02*
X29475000Y77760000I150000J0D01*
G01*
X31125000Y77760000D01*
G75*
G02*
X31275000Y77610000I0J-150000D01*
G01*
G37*
G36*
G01*
X31275000Y78880000D02*
X31275000Y78580000D01*
G75*
G02*
X31125000Y78430000I-150000J0D01*
G01*
X29475000Y78430000D01*
G75*
G02*
X29325000Y78580000I0J150000D01*
G01*
X29325000Y78880000D01*
G75*
G02*
X29475000Y79030000I150000J0D01*
G01*
X31125000Y79030000D01*
G75*
G02*
X31275000Y78880000I0J-150000D01*
G01*
G37*
G36*
G01*
X31275000Y80150000D02*
X31275000Y79850000D01*
G75*
G02*
X31125000Y79700000I-150000J0D01*
G01*
X29475000Y79700000D01*
G75*
G02*
X29325000Y79850000I0J150000D01*
G01*
X29325000Y80150000D01*
G75*
G02*
X29475000Y80300000I150000J0D01*
G01*
X31125000Y80300000D01*
G75*
G02*
X31275000Y80150000I0J-150000D01*
G01*
G37*
G36*
G01*
X31275000Y81420000D02*
X31275000Y81120000D01*
G75*
G02*
X31125000Y80970000I-150000J0D01*
G01*
X29475000Y80970000D01*
G75*
G02*
X29325000Y81120000I0J150000D01*
G01*
X29325000Y81420000D01*
G75*
G02*
X29475000Y81570000I150000J0D01*
G01*
X31125000Y81570000D01*
G75*
G02*
X31275000Y81420000I0J-150000D01*
G01*
G37*
G36*
G01*
X26325000Y81420000D02*
X26325000Y81120000D01*
G75*
G02*
X26175000Y80970000I-150000J0D01*
G01*
X24525000Y80970000D01*
G75*
G02*
X24375000Y81120000I0J150000D01*
G01*
X24375000Y81420000D01*
G75*
G02*
X24525000Y81570000I150000J0D01*
G01*
X26175000Y81570000D01*
G75*
G02*
X26325000Y81420000I0J-150000D01*
G01*
G37*
G36*
G01*
X26325000Y80150000D02*
X26325000Y79850000D01*
G75*
G02*
X26175000Y79700000I-150000J0D01*
G01*
X24525000Y79700000D01*
G75*
G02*
X24375000Y79850000I0J150000D01*
G01*
X24375000Y80150000D01*
G75*
G02*
X24525000Y80300000I150000J0D01*
G01*
X26175000Y80300000D01*
G75*
G02*
X26325000Y80150000I0J-150000D01*
G01*
G37*
G36*
G01*
X26325000Y78880000D02*
X26325000Y78580000D01*
G75*
G02*
X26175000Y78430000I-150000J0D01*
G01*
X24525000Y78430000D01*
G75*
G02*
X24375000Y78580000I0J150000D01*
G01*
X24375000Y78880000D01*
G75*
G02*
X24525000Y79030000I150000J0D01*
G01*
X26175000Y79030000D01*
G75*
G02*
X26325000Y78880000I0J-150000D01*
G01*
G37*
G36*
G01*
X26325000Y77610000D02*
X26325000Y77310000D01*
G75*
G02*
X26175000Y77160000I-150000J0D01*
G01*
X24525000Y77160000D01*
G75*
G02*
X24375000Y77310000I0J150000D01*
G01*
X24375000Y77610000D01*
G75*
G02*
X24525000Y77760000I150000J0D01*
G01*
X26175000Y77760000D01*
G75*
G02*
X26325000Y77610000I0J-150000D01*
G01*
G37*
G04 #@! TD*
G04 #@! TO.C,C24*
G36*
G01*
X9760000Y12715001D02*
X10440000Y12715001D01*
G75*
G02*
X10525000Y12630001I0J-85000D01*
G01*
X10525000Y11950001D01*
G75*
G02*
X10440000Y11865001I-85000J0D01*
G01*
X9760000Y11865001D01*
G75*
G02*
X9675000Y11950001I0J85000D01*
G01*
X9675000Y12630001D01*
G75*
G02*
X9760000Y12715001I85000J0D01*
G01*
G37*
G36*
G01*
X9760000Y11134999D02*
X10440000Y11134999D01*
G75*
G02*
X10525000Y11049999I0J-85000D01*
G01*
X10525000Y10369999D01*
G75*
G02*
X10440000Y10284999I-85000J0D01*
G01*
X9760000Y10284999D01*
G75*
G02*
X9675000Y10369999I0J85000D01*
G01*
X9675000Y11049999D01*
G75*
G02*
X9760000Y11134999I85000J0D01*
G01*
G37*
G04 #@! TD*
G04 #@! TO.C,R39*
G36*
G01*
X99249999Y89875000D02*
X99249999Y91125000D01*
G75*
G02*
X99349999Y91225000I100000J0D01*
G01*
X100149999Y91225000D01*
G75*
G02*
X100249999Y91125000I0J-100000D01*
G01*
X100249999Y89875000D01*
G75*
G02*
X100149999Y89775000I-100000J0D01*
G01*
X99349999Y89775000D01*
G75*
G02*
X99249999Y89875000I0J100000D01*
G01*
G37*
G36*
G01*
X101150021Y89875000D02*
X101150021Y91125000D01*
G75*
G02*
X101250021Y91225000I100000J0D01*
G01*
X102050021Y91225000D01*
G75*
G02*
X102150021Y91125000I0J-100000D01*
G01*
X102150021Y89875000D01*
G75*
G02*
X102050021Y89775000I-100000J0D01*
G01*
X101250021Y89775000D01*
G75*
G02*
X101150021Y89875000I0J100000D01*
G01*
G37*
G04 #@! TD*
G04 #@! TO.C,Q10*
G36*
G01*
X31300000Y42070000D02*
X31300000Y41370000D01*
G75*
G02*
X31050000Y41120000I-250000J0D01*
G01*
X29350000Y41120000D01*
G75*
G02*
X29100000Y41370000I0J250000D01*
G01*
X29100000Y42070000D01*
G75*
G02*
X29350000Y42320000I250000J0D01*
G01*
X31050000Y42320000D01*
G75*
G02*
X31300000Y42070000I0J-250000D01*
G01*
G37*
G36*
G01*
X27100000Y43600000D02*
X27100000Y41350000D01*
G75*
G02*
X26850000Y41100000I-250000J0D01*
G01*
X24300000Y41100000D01*
G75*
G02*
X24050000Y41350000I0J250000D01*
G01*
X24050000Y43600000D01*
G75*
G02*
X24300000Y43850000I250000J0D01*
G01*
X26850000Y43850000D01*
G75*
G02*
X27100000Y43600000I0J-250000D01*
G01*
G37*
G36*
G01*
X27100000Y46650000D02*
X27100000Y44400000D01*
G75*
G02*
X26850000Y44150000I-250000J0D01*
G01*
X24300000Y44150000D01*
G75*
G02*
X24050000Y44400000I0J250000D01*
G01*
X24050000Y46650000D01*
G75*
G02*
X24300000Y46900000I250000J0D01*
G01*
X26850000Y46900000D01*
G75*
G02*
X27100000Y46650000I0J-250000D01*
G01*
G37*
G36*
G01*
X23750000Y43600000D02*
X23750000Y41350000D01*
G75*
G02*
X23500000Y41100000I-250000J0D01*
G01*
X20950000Y41100000D01*
G75*
G02*
X20700000Y41350000I0J250000D01*
G01*
X20700000Y43600000D01*
G75*
G02*
X20950000Y43850000I250000J0D01*
G01*
X23500000Y43850000D01*
G75*
G02*
X23750000Y43600000I0J-250000D01*
G01*
G37*
G36*
G01*
X23750000Y46650000D02*
X23750000Y44400000D01*
G75*
G02*
X23500000Y44150000I-250000J0D01*
G01*
X20950000Y44150000D01*
G75*
G02*
X20700000Y44400000I0J250000D01*
G01*
X20700000Y46650000D01*
G75*
G02*
X20950000Y46900000I250000J0D01*
G01*
X23500000Y46900000D01*
G75*
G02*
X23750000Y46650000I0J-250000D01*
G01*
G37*
G36*
G01*
X31300000Y46630000D02*
X31300000Y45930000D01*
G75*
G02*
X31050000Y45680000I-250000J0D01*
G01*
X29350000Y45680000D01*
G75*
G02*
X29100000Y45930000I0J250000D01*
G01*
X29100000Y46630000D01*
G75*
G02*
X29350000Y46880000I250000J0D01*
G01*
X31050000Y46880000D01*
G75*
G02*
X31300000Y46630000I0J-250000D01*
G01*
G37*
G04 #@! TD*
G04 #@! TO.C,Q7*
G36*
G01*
X31300000Y63070000D02*
X31300000Y62370000D01*
G75*
G02*
X31050000Y62120000I-250000J0D01*
G01*
X29350000Y62120000D01*
G75*
G02*
X29100000Y62370000I0J250000D01*
G01*
X29100000Y63070000D01*
G75*
G02*
X29350000Y63320000I250000J0D01*
G01*
X31050000Y63320000D01*
G75*
G02*
X31300000Y63070000I0J-250000D01*
G01*
G37*
G36*
G01*
X27100000Y64600000D02*
X27100000Y62350000D01*
G75*
G02*
X26850000Y62100000I-250000J0D01*
G01*
X24300000Y62100000D01*
G75*
G02*
X24050000Y62350000I0J250000D01*
G01*
X24050000Y64600000D01*
G75*
G02*
X24300000Y64850000I250000J0D01*
G01*
X26850000Y64850000D01*
G75*
G02*
X27100000Y64600000I0J-250000D01*
G01*
G37*
G36*
G01*
X27100000Y67650000D02*
X27100000Y65400000D01*
G75*
G02*
X26850000Y65150000I-250000J0D01*
G01*
X24300000Y65150000D01*
G75*
G02*
X24050000Y65400000I0J250000D01*
G01*
X24050000Y67650000D01*
G75*
G02*
X24300000Y67900000I250000J0D01*
G01*
X26850000Y67900000D01*
G75*
G02*
X27100000Y67650000I0J-250000D01*
G01*
G37*
G36*
G01*
X23750000Y64600000D02*
X23750000Y62350000D01*
G75*
G02*
X23500000Y62100000I-250000J0D01*
G01*
X20950000Y62100000D01*
G75*
G02*
X20700000Y62350000I0J250000D01*
G01*
X20700000Y64600000D01*
G75*
G02*
X20950000Y64850000I250000J0D01*
G01*
X23500000Y64850000D01*
G75*
G02*
X23750000Y64600000I0J-250000D01*
G01*
G37*
G36*
G01*
X23750000Y67650000D02*
X23750000Y65400000D01*
G75*
G02*
X23500000Y65150000I-250000J0D01*
G01*
X20950000Y65150000D01*
G75*
G02*
X20700000Y65400000I0J250000D01*
G01*
X20700000Y67650000D01*
G75*
G02*
X20950000Y67900000I250000J0D01*
G01*
X23500000Y67900000D01*
G75*
G02*
X23750000Y67650000I0J-250000D01*
G01*
G37*
G36*
G01*
X31300000Y67630000D02*
X31300000Y66930000D01*
G75*
G02*
X31050000Y66680000I-250000J0D01*
G01*
X29350000Y66680000D01*
G75*
G02*
X29100000Y66930000I0J250000D01*
G01*
X29100000Y67630000D01*
G75*
G02*
X29350000Y67880000I250000J0D01*
G01*
X31050000Y67880000D01*
G75*
G02*
X31300000Y67630000I0J-250000D01*
G01*
G37*
G04 #@! TD*
G04 #@! TO.C,Q8*
G36*
G01*
X31300000Y56070000D02*
X31300000Y55370000D01*
G75*
G02*
X31050000Y55120000I-250000J0D01*
G01*
X29350000Y55120000D01*
G75*
G02*
X29100000Y55370000I0J250000D01*
G01*
X29100000Y56070000D01*
G75*
G02*
X29350000Y56320000I250000J0D01*
G01*
X31050000Y56320000D01*
G75*
G02*
X31300000Y56070000I0J-250000D01*
G01*
G37*
G36*
G01*
X27100000Y57600000D02*
X27100000Y55350000D01*
G75*
G02*
X26850000Y55100000I-250000J0D01*
G01*
X24300000Y55100000D01*
G75*
G02*
X24050000Y55350000I0J250000D01*
G01*
X24050000Y57600000D01*
G75*
G02*
X24300000Y57850000I250000J0D01*
G01*
X26850000Y57850000D01*
G75*
G02*
X27100000Y57600000I0J-250000D01*
G01*
G37*
G36*
G01*
X27100000Y60650000D02*
X27100000Y58400000D01*
G75*
G02*
X26850000Y58150000I-250000J0D01*
G01*
X24300000Y58150000D01*
G75*
G02*
X24050000Y58400000I0J250000D01*
G01*
X24050000Y60650000D01*
G75*
G02*
X24300000Y60900000I250000J0D01*
G01*
X26850000Y60900000D01*
G75*
G02*
X27100000Y60650000I0J-250000D01*
G01*
G37*
G36*
G01*
X23750000Y57600000D02*
X23750000Y55350000D01*
G75*
G02*
X23500000Y55100000I-250000J0D01*
G01*
X20950000Y55100000D01*
G75*
G02*
X20700000Y55350000I0J250000D01*
G01*
X20700000Y57600000D01*
G75*
G02*
X20950000Y57850000I250000J0D01*
G01*
X23500000Y57850000D01*
G75*
G02*
X23750000Y57600000I0J-250000D01*
G01*
G37*
G36*
G01*
X23750000Y60650000D02*
X23750000Y58400000D01*
G75*
G02*
X23500000Y58150000I-250000J0D01*
G01*
X20950000Y58150000D01*
G75*
G02*
X20700000Y58400000I0J250000D01*
G01*
X20700000Y60650000D01*
G75*
G02*
X20950000Y60900000I250000J0D01*
G01*
X23500000Y60900000D01*
G75*
G02*
X23750000Y60650000I0J-250000D01*
G01*
G37*
G36*
G01*
X31300000Y60630000D02*
X31300000Y59930000D01*
G75*
G02*
X31050000Y59680000I-250000J0D01*
G01*
X29350000Y59680000D01*
G75*
G02*
X29100000Y59930000I0J250000D01*
G01*
X29100000Y60630000D01*
G75*
G02*
X29350000Y60880000I250000J0D01*
G01*
X31050000Y60880000D01*
G75*
G02*
X31300000Y60630000I0J-250000D01*
G01*
G37*
G04 #@! TD*
G04 #@! TO.C,C26*
G36*
G01*
X25760000Y9215001D02*
X26440000Y9215001D01*
G75*
G02*
X26525000Y9130001I0J-85000D01*
G01*
X26525000Y8450001D01*
G75*
G02*
X26440000Y8365001I-85000J0D01*
G01*
X25760000Y8365001D01*
G75*
G02*
X25675000Y8450001I0J85000D01*
G01*
X25675000Y9130001D01*
G75*
G02*
X25760000Y9215001I85000J0D01*
G01*
G37*
G36*
G01*
X25760000Y7634999D02*
X26440000Y7634999D01*
G75*
G02*
X26525000Y7549999I0J-85000D01*
G01*
X26525000Y6869999D01*
G75*
G02*
X26440000Y6784999I-85000J0D01*
G01*
X25760000Y6784999D01*
G75*
G02*
X25675000Y6869999I0J85000D01*
G01*
X25675000Y7549999D01*
G75*
G02*
X25760000Y7634999I85000J0D01*
G01*
G37*
G04 #@! TD*
G04 #@! TO.C,R1*
G36*
G01*
X38582497Y82815000D02*
X38582497Y82035000D01*
G75*
G02*
X38512497Y81965000I-70000J0D01*
G01*
X37952497Y81965000D01*
G75*
G02*
X37882497Y82035000I0J70000D01*
G01*
X37882497Y82815000D01*
G75*
G02*
X37952497Y82885000I70000J0D01*
G01*
X38512497Y82885000D01*
G75*
G02*
X38582497Y82815000I0J-70000D01*
G01*
G37*
G36*
G01*
X36982497Y82815000D02*
X36982497Y82035000D01*
G75*
G02*
X36912497Y81965000I-70000J0D01*
G01*
X36352497Y81965000D01*
G75*
G02*
X36282497Y82035000I0J70000D01*
G01*
X36282497Y82815000D01*
G75*
G02*
X36352497Y82885000I70000J0D01*
G01*
X36912497Y82885000D01*
G75*
G02*
X36982497Y82815000I0J-70000D01*
G01*
G37*
G04 #@! TD*
G04 #@! TO.C,C13*
G36*
G01*
X18885000Y18675001D02*
X19565000Y18675001D01*
G75*
G02*
X19650000Y18590001I0J-85000D01*
G01*
X19650000Y17910001D01*
G75*
G02*
X19565000Y17825001I-85000J0D01*
G01*
X18885000Y17825001D01*
G75*
G02*
X18800000Y17910001I0J85000D01*
G01*
X18800000Y18590001D01*
G75*
G02*
X18885000Y18675001I85000J0D01*
G01*
G37*
G36*
G01*
X18885000Y17094999D02*
X19565000Y17094999D01*
G75*
G02*
X19650000Y17009999I0J-85000D01*
G01*
X19650000Y16329999D01*
G75*
G02*
X19565000Y16244999I-85000J0D01*
G01*
X18885000Y16244999D01*
G75*
G02*
X18800000Y16329999I0J85000D01*
G01*
X18800000Y17009999D01*
G75*
G02*
X18885000Y17094999I85000J0D01*
G01*
G37*
G04 #@! TD*
G04 #@! TO.C,F4*
G36*
G01*
X20000000Y20605010D02*
X20000000Y21295010D01*
G75*
G02*
X20230000Y21525010I230000J0D01*
G01*
X21570000Y21525010D01*
G75*
G02*
X21800000Y21295010I0J-230000D01*
G01*
X21800000Y20605010D01*
G75*
G02*
X21570000Y20375010I-230000J0D01*
G01*
X20230000Y20375010D01*
G75*
G02*
X20000000Y20605010I0J230000D01*
G01*
G37*
G36*
G01*
X20000000Y17704990D02*
X20000000Y18394990D01*
G75*
G02*
X20230000Y18624990I230000J0D01*
G01*
X21570000Y18624990D01*
G75*
G02*
X21800000Y18394990I0J-230000D01*
G01*
X21800000Y17704990D01*
G75*
G02*
X21570000Y17474990I-230000J0D01*
G01*
X20230000Y17474990D01*
G75*
G02*
X20000000Y17704990I0J230000D01*
G01*
G37*
G04 #@! TD*
G04 #@! TO.C,R37*
G36*
G01*
X95799999Y87375000D02*
X95799999Y88625000D01*
G75*
G02*
X95899999Y88725000I100000J0D01*
G01*
X96699999Y88725000D01*
G75*
G02*
X96799999Y88625000I0J-100000D01*
G01*
X96799999Y87375000D01*
G75*
G02*
X96699999Y87275000I-100000J0D01*
G01*
X95899999Y87275000D01*
G75*
G02*
X95799999Y87375000I0J100000D01*
G01*
G37*
G36*
G01*
X97700021Y87375000D02*
X97700021Y88625000D01*
G75*
G02*
X97800021Y88725000I100000J0D01*
G01*
X98600021Y88725000D01*
G75*
G02*
X98700021Y88625000I0J-100000D01*
G01*
X98700021Y87375000D01*
G75*
G02*
X98600021Y87275000I-100000J0D01*
G01*
X97800021Y87275000D01*
G75*
G02*
X97700021Y87375000I0J100000D01*
G01*
G37*
G04 #@! TD*
G04 #@! TO.C,C11*
G36*
G01*
X3760000Y21015001D02*
X4440000Y21015001D01*
G75*
G02*
X4525000Y20930001I0J-85000D01*
G01*
X4525000Y20250001D01*
G75*
G02*
X4440000Y20165001I-85000J0D01*
G01*
X3760000Y20165001D01*
G75*
G02*
X3675000Y20250001I0J85000D01*
G01*
X3675000Y20930001D01*
G75*
G02*
X3760000Y21015001I85000J0D01*
G01*
G37*
G36*
G01*
X3760000Y19434999D02*
X4440000Y19434999D01*
G75*
G02*
X4525000Y19349999I0J-85000D01*
G01*
X4525000Y18669999D01*
G75*
G02*
X4440000Y18584999I-85000J0D01*
G01*
X3760000Y18584999D01*
G75*
G02*
X3675000Y18669999I0J85000D01*
G01*
X3675000Y19349999D01*
G75*
G02*
X3760000Y19434999I85000J0D01*
G01*
G37*
G04 #@! TD*
G04 #@! TO.C,R10*
G36*
G01*
X32250000Y75340000D02*
X32250000Y74560000D01*
G75*
G02*
X32180000Y74490000I-70000J0D01*
G01*
X31620000Y74490000D01*
G75*
G02*
X31550000Y74560000I0J70000D01*
G01*
X31550000Y75340000D01*
G75*
G02*
X31620000Y75410000I70000J0D01*
G01*
X32180000Y75410000D01*
G75*
G02*
X32250000Y75340000I0J-70000D01*
G01*
G37*
G36*
G01*
X30650000Y75340000D02*
X30650000Y74560000D01*
G75*
G02*
X30580000Y74490000I-70000J0D01*
G01*
X30020000Y74490000D01*
G75*
G02*
X29950000Y74560000I0J70000D01*
G01*
X29950000Y75340000D01*
G75*
G02*
X30020000Y75410000I70000J0D01*
G01*
X30580000Y75410000D01*
G75*
G02*
X30650000Y75340000I0J-70000D01*
G01*
G37*
G04 #@! TD*
G04 #@! TO.C,F3*
G36*
G01*
X22200000Y20605010D02*
X22200000Y21295010D01*
G75*
G02*
X22430000Y21525010I230000J0D01*
G01*
X23770000Y21525010D01*
G75*
G02*
X24000000Y21295010I0J-230000D01*
G01*
X24000000Y20605010D01*
G75*
G02*
X23770000Y20375010I-230000J0D01*
G01*
X22430000Y20375010D01*
G75*
G02*
X22200000Y20605010I0J230000D01*
G01*
G37*
G36*
G01*
X22200000Y17704990D02*
X22200000Y18394990D01*
G75*
G02*
X22430000Y18624990I230000J0D01*
G01*
X23770000Y18624990D01*
G75*
G02*
X24000000Y18394990I0J-230000D01*
G01*
X24000000Y17704990D01*
G75*
G02*
X23770000Y17474990I-230000J0D01*
G01*
X22430000Y17474990D01*
G75*
G02*
X22200000Y17704990I0J230000D01*
G01*
G37*
G04 #@! TD*
G04 #@! TO.C,C25*
G36*
G01*
X10440000Y6784999D02*
X9760000Y6784999D01*
G75*
G02*
X9675000Y6869999I0J85000D01*
G01*
X9675000Y7549999D01*
G75*
G02*
X9760000Y7634999I85000J0D01*
G01*
X10440000Y7634999D01*
G75*
G02*
X10525000Y7549999I0J-85000D01*
G01*
X10525000Y6869999D01*
G75*
G02*
X10440000Y6784999I-85000J0D01*
G01*
G37*
G36*
G01*
X10440000Y8365001D02*
X9760000Y8365001D01*
G75*
G02*
X9675000Y8450001I0J85000D01*
G01*
X9675000Y9130001D01*
G75*
G02*
X9760000Y9215001I85000J0D01*
G01*
X10440000Y9215001D01*
G75*
G02*
X10525000Y9130001I0J-85000D01*
G01*
X10525000Y8450001D01*
G75*
G02*
X10440000Y8365001I-85000J0D01*
G01*
G37*
G04 #@! TD*
G04 #@! TO.C,Q12*
G36*
G01*
X31300000Y28070000D02*
X31300000Y27370000D01*
G75*
G02*
X31050000Y27120000I-250000J0D01*
G01*
X29350000Y27120000D01*
G75*
G02*
X29100000Y27370000I0J250000D01*
G01*
X29100000Y28070000D01*
G75*
G02*
X29350000Y28320000I250000J0D01*
G01*
X31050000Y28320000D01*
G75*
G02*
X31300000Y28070000I0J-250000D01*
G01*
G37*
G36*
G01*
X27100000Y29600000D02*
X27100000Y27350000D01*
G75*
G02*
X26850000Y27100000I-250000J0D01*
G01*
X24300000Y27100000D01*
G75*
G02*
X24050000Y27350000I0J250000D01*
G01*
X24050000Y29600000D01*
G75*
G02*
X24300000Y29850000I250000J0D01*
G01*
X26850000Y29850000D01*
G75*
G02*
X27100000Y29600000I0J-250000D01*
G01*
G37*
G36*
G01*
X27100000Y32650000D02*
X27100000Y30400000D01*
G75*
G02*
X26850000Y30150000I-250000J0D01*
G01*
X24300000Y30150000D01*
G75*
G02*
X24050000Y30400000I0J250000D01*
G01*
X24050000Y32650000D01*
G75*
G02*
X24300000Y32900000I250000J0D01*
G01*
X26850000Y32900000D01*
G75*
G02*
X27100000Y32650000I0J-250000D01*
G01*
G37*
G36*
G01*
X23750000Y29600000D02*
X23750000Y27350000D01*
G75*
G02*
X23500000Y27100000I-250000J0D01*
G01*
X20950000Y27100000D01*
G75*
G02*
X20700000Y27350000I0J250000D01*
G01*
X20700000Y29600000D01*
G75*
G02*
X20950000Y29850000I250000J0D01*
G01*
X23500000Y29850000D01*
G75*
G02*
X23750000Y29600000I0J-250000D01*
G01*
G37*
G36*
G01*
X23750000Y32650000D02*
X23750000Y30400000D01*
G75*
G02*
X23500000Y30150000I-250000J0D01*
G01*
X20950000Y30150000D01*
G75*
G02*
X20700000Y30400000I0J250000D01*
G01*
X20700000Y32650000D01*
G75*
G02*
X20950000Y32900000I250000J0D01*
G01*
X23500000Y32900000D01*
G75*
G02*
X23750000Y32650000I0J-250000D01*
G01*
G37*
G36*
G01*
X31300000Y32630000D02*
X31300000Y31930000D01*
G75*
G02*
X31050000Y31680000I-250000J0D01*
G01*
X29350000Y31680000D01*
G75*
G02*
X29100000Y31930000I0J250000D01*
G01*
X29100000Y32630000D01*
G75*
G02*
X29350000Y32880000I250000J0D01*
G01*
X31050000Y32880000D01*
G75*
G02*
X31300000Y32630000I0J-250000D01*
G01*
G37*
G04 #@! TD*
D10*
G04 #@! TO.C,M7*
X33400003Y50799999D03*
G04 #@! TD*
G04 #@! TO.C,R9*
G36*
G01*
X18835000Y21610000D02*
X19615000Y21610000D01*
G75*
G02*
X19685000Y21540000I0J-70000D01*
G01*
X19685000Y20980000D01*
G75*
G02*
X19615000Y20910000I-70000J0D01*
G01*
X18835000Y20910000D01*
G75*
G02*
X18765000Y20980000I0J70000D01*
G01*
X18765000Y21540000D01*
G75*
G02*
X18835000Y21610000I70000J0D01*
G01*
G37*
G36*
G01*
X18835000Y20010000D02*
X19615000Y20010000D01*
G75*
G02*
X19685000Y19940000I0J-70000D01*
G01*
X19685000Y19380000D01*
G75*
G02*
X19615000Y19310000I-70000J0D01*
G01*
X18835000Y19310000D01*
G75*
G02*
X18765000Y19380000I0J70000D01*
G01*
X18765000Y19940000D01*
G75*
G02*
X18835000Y20010000I70000J0D01*
G01*
G37*
G04 #@! TD*
G04 #@! TO.C,Q9*
G36*
G01*
X31300000Y49070000D02*
X31300000Y48370000D01*
G75*
G02*
X31050000Y48120000I-250000J0D01*
G01*
X29350000Y48120000D01*
G75*
G02*
X29100000Y48370000I0J250000D01*
G01*
X29100000Y49070000D01*
G75*
G02*
X29350000Y49320000I250000J0D01*
G01*
X31050000Y49320000D01*
G75*
G02*
X31300000Y49070000I0J-250000D01*
G01*
G37*
G36*
G01*
X27100000Y50600000D02*
X27100000Y48350000D01*
G75*
G02*
X26850000Y48100000I-250000J0D01*
G01*
X24300000Y48100000D01*
G75*
G02*
X24050000Y48350000I0J250000D01*
G01*
X24050000Y50600000D01*
G75*
G02*
X24300000Y50850000I250000J0D01*
G01*
X26850000Y50850000D01*
G75*
G02*
X27100000Y50600000I0J-250000D01*
G01*
G37*
G36*
G01*
X27100000Y53650000D02*
X27100000Y51400000D01*
G75*
G02*
X26850000Y51150000I-250000J0D01*
G01*
X24300000Y51150000D01*
G75*
G02*
X24050000Y51400000I0J250000D01*
G01*
X24050000Y53650000D01*
G75*
G02*
X24300000Y53900000I250000J0D01*
G01*
X26850000Y53900000D01*
G75*
G02*
X27100000Y53650000I0J-250000D01*
G01*
G37*
G36*
G01*
X23750000Y50600000D02*
X23750000Y48350000D01*
G75*
G02*
X23500000Y48100000I-250000J0D01*
G01*
X20950000Y48100000D01*
G75*
G02*
X20700000Y48350000I0J250000D01*
G01*
X20700000Y50600000D01*
G75*
G02*
X20950000Y50850000I250000J0D01*
G01*
X23500000Y50850000D01*
G75*
G02*
X23750000Y50600000I0J-250000D01*
G01*
G37*
G36*
G01*
X23750000Y53650000D02*
X23750000Y51400000D01*
G75*
G02*
X23500000Y51150000I-250000J0D01*
G01*
X20950000Y51150000D01*
G75*
G02*
X20700000Y51400000I0J250000D01*
G01*
X20700000Y53650000D01*
G75*
G02*
X20950000Y53900000I250000J0D01*
G01*
X23500000Y53900000D01*
G75*
G02*
X23750000Y53650000I0J-250000D01*
G01*
G37*
G36*
G01*
X31300000Y53630000D02*
X31300000Y52930000D01*
G75*
G02*
X31050000Y52680000I-250000J0D01*
G01*
X29350000Y52680000D01*
G75*
G02*
X29100000Y52930000I0J250000D01*
G01*
X29100000Y53630000D01*
G75*
G02*
X29350000Y53880000I250000J0D01*
G01*
X31050000Y53880000D01*
G75*
G02*
X31300000Y53630000I0J-250000D01*
G01*
G37*
G04 #@! TD*
D11*
G04 #@! TO.C,U5*
X101500000Y17300000D03*
X101500000Y18800000D03*
X101500000Y20300000D03*
X101500000Y21800000D03*
X101500000Y23300000D03*
X101500000Y24800000D03*
X101500000Y26300000D03*
X101500000Y27800000D03*
X101500000Y29300000D03*
X101500000Y30800000D03*
X101500000Y32300000D03*
X101500000Y33800000D03*
X101500000Y35300000D03*
X88800000Y35300000D03*
X88800000Y33800000D03*
X88800000Y32300000D03*
X88800000Y30800000D03*
X88800000Y29300000D03*
X88800000Y27800000D03*
X88800000Y26300000D03*
X88800000Y24800000D03*
X88800000Y23300000D03*
X88800000Y21800000D03*
X88800000Y20300000D03*
X88800000Y18800000D03*
X88800000Y17300000D03*
G04 #@! TD*
G04 #@! TO.C,R35*
G36*
G01*
X95799999Y92375000D02*
X95799999Y93625000D01*
G75*
G02*
X95899999Y93725000I100000J0D01*
G01*
X96699999Y93725000D01*
G75*
G02*
X96799999Y93625000I0J-100000D01*
G01*
X96799999Y92375000D01*
G75*
G02*
X96699999Y92275000I-100000J0D01*
G01*
X95899999Y92275000D01*
G75*
G02*
X95799999Y92375000I0J100000D01*
G01*
G37*
G36*
G01*
X97700021Y92375000D02*
X97700021Y93625000D01*
G75*
G02*
X97800021Y93725000I100000J0D01*
G01*
X98600021Y93725000D01*
G75*
G02*
X98700021Y93625000I0J-100000D01*
G01*
X98700021Y92375000D01*
G75*
G02*
X98600021Y92275000I-100000J0D01*
G01*
X97800021Y92275000D01*
G75*
G02*
X97700021Y92375000I0J100000D01*
G01*
G37*
G04 #@! TD*
G04 #@! TO.C,F1*
G36*
G01*
X24400000Y20605010D02*
X24400000Y21295010D01*
G75*
G02*
X24630000Y21525010I230000J0D01*
G01*
X25970000Y21525010D01*
G75*
G02*
X26200000Y21295010I0J-230000D01*
G01*
X26200000Y20605010D01*
G75*
G02*
X25970000Y20375010I-230000J0D01*
G01*
X24630000Y20375010D01*
G75*
G02*
X24400000Y20605010I0J230000D01*
G01*
G37*
G36*
G01*
X24400000Y17704990D02*
X24400000Y18394990D01*
G75*
G02*
X24630000Y18624990I230000J0D01*
G01*
X25970000Y18624990D01*
G75*
G02*
X26200000Y18394990I0J-230000D01*
G01*
X26200000Y17704990D01*
G75*
G02*
X25970000Y17474990I-230000J0D01*
G01*
X24630000Y17474990D01*
G75*
G02*
X24400000Y17704990I0J230000D01*
G01*
G37*
G04 #@! TD*
G04 #@! TO.C,R4*
G36*
G01*
X45349609Y8519610D02*
X46599609Y8519610D01*
G75*
G02*
X46699609Y8419610I0J-100000D01*
G01*
X46699609Y7619610D01*
G75*
G02*
X46599609Y7519610I-100000J0D01*
G01*
X45349609Y7519610D01*
G75*
G02*
X45249609Y7619610I0J100000D01*
G01*
X45249609Y8419610D01*
G75*
G02*
X45349609Y8519610I100000J0D01*
G01*
G37*
G36*
G01*
X45349609Y6619588D02*
X46599609Y6619588D01*
G75*
G02*
X46699609Y6519588I0J-100000D01*
G01*
X46699609Y5719588D01*
G75*
G02*
X46599609Y5619588I-100000J0D01*
G01*
X45349609Y5619588D01*
G75*
G02*
X45249609Y5719588I0J100000D01*
G01*
X45249609Y6519588D01*
G75*
G02*
X45349609Y6619588I100000J0D01*
G01*
G37*
G04 #@! TD*
G04 #@! TO.C,R11*
G36*
G01*
X32310000Y82000000D02*
X33090000Y82000000D01*
G75*
G02*
X33160000Y81930000I0J-70000D01*
G01*
X33160000Y81370000D01*
G75*
G02*
X33090000Y81300000I-70000J0D01*
G01*
X32310000Y81300000D01*
G75*
G02*
X32240000Y81370000I0J70000D01*
G01*
X32240000Y81930000D01*
G75*
G02*
X32310000Y82000000I70000J0D01*
G01*
G37*
G36*
G01*
X32310000Y80400000D02*
X33090000Y80400000D01*
G75*
G02*
X33160000Y80330000I0J-70000D01*
G01*
X33160000Y79770000D01*
G75*
G02*
X33090000Y79700000I-70000J0D01*
G01*
X32310000Y79700000D01*
G75*
G02*
X32240000Y79770000I0J70000D01*
G01*
X32240000Y80330000D01*
G75*
G02*
X32310000Y80400000I70000J0D01*
G01*
G37*
G04 #@! TD*
G04 #@! TO.C,D3*
G36*
G01*
X22010000Y76900000D02*
X20990000Y76900000D01*
G75*
G02*
X20900000Y76990000I0J90000D01*
G01*
X20900000Y77710000D01*
G75*
G02*
X20990000Y77800000I90000J0D01*
G01*
X22010000Y77800000D01*
G75*
G02*
X22100000Y77710000I0J-90000D01*
G01*
X22100000Y76990000D01*
G75*
G02*
X22010000Y76900000I-90000J0D01*
G01*
G37*
G36*
G01*
X22010000Y80200000D02*
X20990000Y80200000D01*
G75*
G02*
X20900000Y80290000I0J90000D01*
G01*
X20900000Y81010000D01*
G75*
G02*
X20990000Y81100000I90000J0D01*
G01*
X22010000Y81100000D01*
G75*
G02*
X22100000Y81010000I0J-90000D01*
G01*
X22100000Y80290000D01*
G75*
G02*
X22010000Y80200000I-90000J0D01*
G01*
G37*
G04 #@! TD*
G04 #@! TO.C,R38*
G36*
G01*
X99249999Y92375000D02*
X99249999Y93625000D01*
G75*
G02*
X99349999Y93725000I100000J0D01*
G01*
X100149999Y93725000D01*
G75*
G02*
X100249999Y93625000I0J-100000D01*
G01*
X100249999Y92375000D01*
G75*
G02*
X100149999Y92275000I-100000J0D01*
G01*
X99349999Y92275000D01*
G75*
G02*
X99249999Y92375000I0J100000D01*
G01*
G37*
G36*
G01*
X101150021Y92375000D02*
X101150021Y93625000D01*
G75*
G02*
X101250021Y93725000I100000J0D01*
G01*
X102050021Y93725000D01*
G75*
G02*
X102150021Y93625000I0J-100000D01*
G01*
X102150021Y92375000D01*
G75*
G02*
X102050021Y92275000I-100000J0D01*
G01*
X101250021Y92275000D01*
G75*
G02*
X101150021Y92375000I0J100000D01*
G01*
G37*
G04 #@! TD*
G04 #@! TO.C,R36*
G36*
G01*
X95799999Y89875000D02*
X95799999Y91125000D01*
G75*
G02*
X95899999Y91225000I100000J0D01*
G01*
X96699999Y91225000D01*
G75*
G02*
X96799999Y91125000I0J-100000D01*
G01*
X96799999Y89875000D01*
G75*
G02*
X96699999Y89775000I-100000J0D01*
G01*
X95899999Y89775000D01*
G75*
G02*
X95799999Y89875000I0J100000D01*
G01*
G37*
G36*
G01*
X97700021Y89875000D02*
X97700021Y91125000D01*
G75*
G02*
X97800021Y91225000I100000J0D01*
G01*
X98600021Y91225000D01*
G75*
G02*
X98700021Y91125000I0J-100000D01*
G01*
X98700021Y89875000D01*
G75*
G02*
X98600021Y89775000I-100000J0D01*
G01*
X97800021Y89775000D01*
G75*
G02*
X97700021Y89875000I0J100000D01*
G01*
G37*
G04 #@! TD*
D12*
G04 #@! TO.C,U1*
X10375000Y22920000D03*
X10375000Y21460000D03*
X10375000Y20000000D03*
X10375000Y18540000D03*
X10375000Y17080000D03*
X12625000Y22920000D03*
X12625000Y21460000D03*
X12625000Y20000000D03*
X12625000Y18540000D03*
X12625000Y17080000D03*
D13*
X6700000Y22500000D03*
X6700000Y21500000D03*
X6700000Y20500000D03*
X6700000Y19500000D03*
X6700000Y18500000D03*
X6700000Y17500000D03*
X16300000Y17500000D03*
X16300000Y18500000D03*
X16300000Y19500000D03*
X16300000Y20500000D03*
X16300000Y21500000D03*
X16300000Y22500000D03*
G04 #@! TD*
D12*
G04 #@! TO.C,U2*
X17000000Y13460000D03*
X17000000Y12000000D03*
X17000000Y10540000D03*
X17000000Y9080000D03*
X17000000Y7620000D03*
X19250000Y13460000D03*
X19250000Y12000000D03*
X19250000Y10540000D03*
X19250000Y9080000D03*
X19250000Y7620000D03*
D13*
X13325000Y13040000D03*
X13325000Y12040000D03*
X13325000Y11040000D03*
X13325000Y10040000D03*
X13325000Y9040000D03*
X13325000Y8040000D03*
X22925000Y8040000D03*
X22925000Y9040000D03*
X22925000Y10040000D03*
X22925000Y11040000D03*
X22925000Y12040000D03*
X22925000Y13040000D03*
G04 #@! TD*
G04 #@! TO.C,Q11*
G36*
G01*
X31300000Y35070000D02*
X31300000Y34370000D01*
G75*
G02*
X31050000Y34120000I-250000J0D01*
G01*
X29350000Y34120000D01*
G75*
G02*
X29100000Y34370000I0J250000D01*
G01*
X29100000Y35070000D01*
G75*
G02*
X29350000Y35320000I250000J0D01*
G01*
X31050000Y35320000D01*
G75*
G02*
X31300000Y35070000I0J-250000D01*
G01*
G37*
G36*
G01*
X27100000Y36600000D02*
X27100000Y34350000D01*
G75*
G02*
X26850000Y34100000I-250000J0D01*
G01*
X24300000Y34100000D01*
G75*
G02*
X24050000Y34350000I0J250000D01*
G01*
X24050000Y36600000D01*
G75*
G02*
X24300000Y36850000I250000J0D01*
G01*
X26850000Y36850000D01*
G75*
G02*
X27100000Y36600000I0J-250000D01*
G01*
G37*
G36*
G01*
X27100000Y39650000D02*
X27100000Y37400000D01*
G75*
G02*
X26850000Y37150000I-250000J0D01*
G01*
X24300000Y37150000D01*
G75*
G02*
X24050000Y37400000I0J250000D01*
G01*
X24050000Y39650000D01*
G75*
G02*
X24300000Y39900000I250000J0D01*
G01*
X26850000Y39900000D01*
G75*
G02*
X27100000Y39650000I0J-250000D01*
G01*
G37*
G36*
G01*
X23750000Y36600000D02*
X23750000Y34350000D01*
G75*
G02*
X23500000Y34100000I-250000J0D01*
G01*
X20950000Y34100000D01*
G75*
G02*
X20700000Y34350000I0J250000D01*
G01*
X20700000Y36600000D01*
G75*
G02*
X20950000Y36850000I250000J0D01*
G01*
X23500000Y36850000D01*
G75*
G02*
X23750000Y36600000I0J-250000D01*
G01*
G37*
G36*
G01*
X23750000Y39650000D02*
X23750000Y37400000D01*
G75*
G02*
X23500000Y37150000I-250000J0D01*
G01*
X20950000Y37150000D01*
G75*
G02*
X20700000Y37400000I0J250000D01*
G01*
X20700000Y39650000D01*
G75*
G02*
X20950000Y39900000I250000J0D01*
G01*
X23500000Y39900000D01*
G75*
G02*
X23750000Y39650000I0J-250000D01*
G01*
G37*
G36*
G01*
X31300000Y39630000D02*
X31300000Y38930000D01*
G75*
G02*
X31050000Y38680000I-250000J0D01*
G01*
X29350000Y38680000D01*
G75*
G02*
X29100000Y38930000I0J250000D01*
G01*
X29100000Y39630000D01*
G75*
G02*
X29350000Y39880000I250000J0D01*
G01*
X31050000Y39880000D01*
G75*
G02*
X31300000Y39630000I0J-250000D01*
G01*
G37*
G04 #@! TD*
D14*
G04 #@! TO.C,J9*
X49150000Y10170000D03*
X49950000Y10170000D03*
X51250000Y10170000D03*
X52250000Y10170000D03*
X52750000Y10170000D03*
X53750000Y10170000D03*
X55050000Y10170000D03*
X55850000Y10170000D03*
X55550000Y10170000D03*
X54750000Y10170000D03*
X54250000Y10170000D03*
X53250000Y10170000D03*
X51750000Y10170000D03*
X50750000Y10170000D03*
X50250000Y10170000D03*
X49450000Y10170000D03*
G04 #@! TD*
G04 #@! TO.C,F2*
G36*
G01*
X22394990Y24200000D02*
X21704990Y24200000D01*
G75*
G02*
X21474990Y24430000I0J230000D01*
G01*
X21474990Y25770000D01*
G75*
G02*
X21704990Y26000000I230000J0D01*
G01*
X22394990Y26000000D01*
G75*
G02*
X22624990Y25770000I0J-230000D01*
G01*
X22624990Y24430000D01*
G75*
G02*
X22394990Y24200000I-230000J0D01*
G01*
G37*
G36*
G01*
X25295010Y24200000D02*
X24605010Y24200000D01*
G75*
G02*
X24375010Y24430000I0J230000D01*
G01*
X24375010Y25770000D01*
G75*
G02*
X24605010Y26000000I230000J0D01*
G01*
X25295010Y26000000D01*
G75*
G02*
X25525010Y25770000I0J-230000D01*
G01*
X25525010Y24430000D01*
G75*
G02*
X25295010Y24200000I-230000J0D01*
G01*
G37*
G04 #@! TD*
G04 #@! TO.C,D5*
G36*
G01*
X22010000Y69400000D02*
X20990000Y69400000D01*
G75*
G02*
X20900000Y69490000I0J90000D01*
G01*
X20900000Y70210000D01*
G75*
G02*
X20990000Y70300000I90000J0D01*
G01*
X22010000Y70300000D01*
G75*
G02*
X22100000Y70210000I0J-90000D01*
G01*
X22100000Y69490000D01*
G75*
G02*
X22010000Y69400000I-90000J0D01*
G01*
G37*
G36*
G01*
X22010000Y72700000D02*
X20990000Y72700000D01*
G75*
G02*
X20900000Y72790000I0J90000D01*
G01*
X20900000Y73510000D01*
G75*
G02*
X20990000Y73600000I90000J0D01*
G01*
X22010000Y73600000D01*
G75*
G02*
X22100000Y73510000I0J-90000D01*
G01*
X22100000Y72790000D01*
G75*
G02*
X22010000Y72700000I-90000J0D01*
G01*
G37*
G04 #@! TD*
G04 #@! TO.C,R14*
G36*
G01*
X25710000Y12050000D02*
X26490000Y12050000D01*
G75*
G02*
X26560000Y11980000I0J-70000D01*
G01*
X26560000Y11420000D01*
G75*
G02*
X26490000Y11350000I-70000J0D01*
G01*
X25710000Y11350000D01*
G75*
G02*
X25640000Y11420000I0J70000D01*
G01*
X25640000Y11980000D01*
G75*
G02*
X25710000Y12050000I70000J0D01*
G01*
G37*
G36*
G01*
X25710000Y10450000D02*
X26490000Y10450000D01*
G75*
G02*
X26560000Y10380000I0J-70000D01*
G01*
X26560000Y9820000D01*
G75*
G02*
X26490000Y9750000I-70000J0D01*
G01*
X25710000Y9750000D01*
G75*
G02*
X25640000Y9820000I0J70000D01*
G01*
X25640000Y10380000D01*
G75*
G02*
X25710000Y10450000I70000J0D01*
G01*
G37*
G04 #@! TD*
D15*
G04 #@! TO.C,U3*
X72823250Y71442500D03*
X72823250Y61600000D03*
X71553250Y61600000D03*
X70283250Y61600000D03*
X69013250Y61600000D03*
X69013250Y71442500D03*
X70283250Y71442500D03*
X71553250Y71442500D03*
G04 #@! TD*
G04 #@! TO.C,C12*
G36*
G01*
X4440000Y15484999D02*
X3760000Y15484999D01*
G75*
G02*
X3675000Y15569999I0J85000D01*
G01*
X3675000Y16249999D01*
G75*
G02*
X3760000Y16334999I85000J0D01*
G01*
X4440000Y16334999D01*
G75*
G02*
X4525000Y16249999I0J-85000D01*
G01*
X4525000Y15569999D01*
G75*
G02*
X4440000Y15484999I-85000J0D01*
G01*
G37*
G36*
G01*
X4440000Y17065001D02*
X3760000Y17065001D01*
G75*
G02*
X3675000Y17150001I0J85000D01*
G01*
X3675000Y17830001D01*
G75*
G02*
X3760000Y17915001I85000J0D01*
G01*
X4440000Y17915001D01*
G75*
G02*
X4525000Y17830001I0J-85000D01*
G01*
X4525000Y17150001D01*
G75*
G02*
X4440000Y17065001I-85000J0D01*
G01*
G37*
G04 #@! TD*
M02*
