M48
; DRILL file {KiCad 8.0.9-8.0.9-0~ubuntu24.04.1} date 2026-02-26T22:36:56+0000
; FORMAT={2:4/ absolute / inch / suppress leading zeros}
; #@! TF.CreationDate,2026-02-26T22:36:56+00:00
; #@! TF.GenerationSoftware,Kicad,Pcbnew,8.0.9-8.0.9-0~ubuntu24.04.1
; #@! TF.FileFunction,MixedPlating,1,4
FMAT,2
INCH,TZ
; #@! TA.AperFunction,Plated,PTH,ComponentDrill
T1C0.0118
; #@! TA.AperFunction,Plated,PTH,ComponentDrill
T2C0.0118
; #@! TA.AperFunction,Plated,PTH,ViaDrill
T3C0.0157
; #@! TA.AperFunction,Plated,PTH,ComponentDrill
T4C0.0197
; #@! TA.AperFunction,Plated,PTH,ComponentDrill
T5C0.0236
; #@! TA.AperFunction,Plated,PTH,ComponentDrill
T6C0.0276
; #@! TA.AperFunction,Plated,PTH,ComponentDrill
T7C0.0320
; #@! TA.AperFunction,Plated,PTH,ComponentDrill
T8C0.0335
; #@! TA.AperFunction,Plated,PTH,ComponentDrill
T9C0.0394
; #@! TA.AperFunction,Plated,PTH,ComponentDrill
T10C0.0709
; #@! TA.AperFunction,Plated,PTH,ViaDrill
T11C0.1181
; #@! TA.AperFunction,Plated,PTH,ComponentDrill
T12C0.1200
; #@! TA.AperFunction,Plated,PTH,ComponentDrill
T13C0.1260
; #@! TA.AperFunction,NonPlated,NPTH,ComponentDrill
T14C0.0256
; #@! TA.AperFunction,NonPlated,NPTH,ComponentDrill
T15C0.0591
; #@! TA.AperFunction,NonPlated,NPTH,ComponentDrill
T16C0.1181
%
G90
G05
T1
X13583Y19478
X13789Y19823
X14085Y19360
X15482Y19390
T2
X14002Y31339
X14396Y31339
X15522Y25659
X15994Y25659
X16467Y25659
X16939Y25659
X17254Y3278
X17254Y2884
X18352Y31339
X18746Y31339
X19016Y15591
X19016Y15276
X19016Y14961
X19016Y14646
X19016Y14331
X19016Y14016
X19016Y13701
X19016Y13386
X19016Y13071
X19016Y12756
X19016Y12441
X19016Y12126
X19016Y11811
X19016Y11496
X19016Y10866
X19016Y10315
X19016Y10000
X19016Y9685
X19016Y9370
X19016Y9055
X19016Y8740
X19016Y17283
X19016Y11181
X19173Y5906
X19488Y5906
X19803Y5906
X19872Y25659
X20118Y5906
X20344Y25659
X20433Y5906
X20748Y5906
X20817Y25659
X21063Y5906
X21289Y25659
X21378Y5906
X21614Y19843
X21693Y5906
X22008Y5906
X22087Y19843
X22323Y5906
X22559Y19843
X22638Y5906
X23031Y19843
X23504Y19843
X23583Y5906
X23898Y5906
X23976Y19843
X24213Y5906
X24449Y19843
X24528Y5906
X24843Y5906
X24921Y19843
X25157Y5906
X25394Y19843
X25472Y5906
X25787Y5906
X25866Y19843
X26102Y5906
X26339Y19843
X26811Y19843
X27283Y19843
X27756Y19843
X27795Y5906
X28228Y19843
X28701Y19843
X28858Y5906
X29173Y19843
X29252Y5906
X29646Y19843
X30118Y19843
X30591Y19843
X31063Y19843
X31565Y29774
X31939Y29774
X31959Y33199
X32008Y19843
X32165Y18858
X32165Y18465
X32165Y14252
X32165Y13858
X32165Y13465
X32165Y13071
X32165Y12677
X32165Y12283
X32165Y11890
X32165Y11496
X32165Y10472
X32165Y10157
X32165Y8307
X32165Y7756
X32165Y5906
X32313Y33199
X32313Y29774
X35285Y16795
X35679Y16795
X36073Y16795
X36970Y16795
X37370Y16795
X38297Y27264
X38691Y27264
X39085Y27264
X39478Y27264
T3
X1220Y30827
X1240Y24803
X1248Y4123
X1393Y17480
X1417Y33110
X1496Y28169
X1614Y37126
X1687Y14188
X1925Y27532
X1925Y26083
X1925Y24035
X1945Y22677
X1966Y20596
X1969Y3937
X1972Y8835
X2047Y7677
X2050Y8453
X2087Y6496
X2165Y18071
X2244Y33957
X2598Y21398
X2632Y18091
X2638Y9370
X2740Y18595
X3209Y27539
X3209Y24035
X3228Y26260
X3228Y20610
X3237Y22903
X3238Y19409
X3268Y9291
X3270Y18028
X3297Y7661
X3465Y33819
X3465Y1260
X3504Y4843
X3530Y15076
X3607Y31677
X3642Y17154
X3642Y36703
X3661Y32579
X3740Y5945
X3819Y9252
X3898Y1457
X3931Y6859
X4161Y17182
X4232Y15295
X4252Y1811
X4394Y17568
X4394Y33852
X4488Y4803
X4528Y3976
X4528Y3031
X4567Y9252
X4567Y6850
X4587Y33464
X4756Y6108
X5164Y5584
X5307Y9295
X5315Y6850
X5394Y2283
X5523Y11896
X5591Y31181
X5650Y27874
X5655Y21210
X5689Y22913
X5748Y26220
X5748Y11339
X5827Y5630
X5906Y3937
X6024Y12244
X6063Y9449
X6339Y3150
X6339Y2283
X6357Y38324
X6417Y16850
X6417Y5551
X6437Y9213
X6457Y6378
X6693Y39646
X6693Y10394
X6819Y27921
X6890Y9291
X7126Y5591
X7126Y3150
X7126Y2283
X7146Y7343
X7559Y10591
X7650Y29925
X7831Y18137
X7874Y2283
X7913Y3150
X7992Y32874
X8031Y35669
X8031Y27835
X8071Y30748
X8110Y7677
X8366Y23602
X8424Y20640
X8425Y26378
X8465Y5669
X8780Y20039
X8780Y18110
X8780Y17441
X8799Y23169
X8819Y25984
X8823Y11815
X8937Y2677
X9173Y28031
X9252Y30984
X9252Y29961
X9317Y30511
X9374Y1371
X9469Y32500
X9567Y29291
X9630Y11803
X9685Y14528
X9685Y3583
X9724Y3172
X9803Y4016
X9902Y28583
X9961Y6063
X10000Y33150
X10039Y1220
X10197Y15039
X10394Y2323
X10433Y1575
X10551Y7677
X10650Y31004
X10706Y10049
X10748Y32362
X10906Y39724
X10925Y29075
X11098Y30549
X11181Y12756
X11201Y20941
X11220Y26516
X11220Y23740
X11220Y18740
X11220Y18189
X11260Y24685
X11280Y21926
X11280Y19169
X11280Y16376
X11280Y13658
X11299Y15472
X11417Y27146
X11693Y18729
X11850Y24213
X11850Y15906
X11890Y21417
X11890Y13150
X11929Y29075
X11929Y12087
X12126Y11732
X12323Y21437
X12399Y20942
X12480Y15433
X12500Y14528
X12520Y23740
X12559Y26516
X12559Y10709
X12583Y12555
X12795Y13346
X12874Y27323
X12913Y30551
X12933Y29055
X12953Y10984
X13110Y13661
X13110Y12343
X13189Y11693
X13209Y25236
X13327Y22756
X13346Y17756
X13366Y16988
X13425Y15276
X13504Y31969
X13898Y22756
X13917Y12697
X14016Y25276
X14173Y35929
X14256Y17736
X14744Y10965
X14774Y11938
X15000Y22756
X15315Y31850
X15399Y15243
X15531Y13583
X15692Y11698
X15866Y32480
X15963Y19866
X16142Y14488
X16188Y10851
X16220Y13701
X16417Y17638
X16496Y31811
X16575Y10512
X16614Y14291
X16929Y22205
X16969Y32913
X17087Y20039
X17264Y35965
X17349Y10019
X17362Y30512
X17362Y28189
X17402Y13386
X17402Y25709
X17402Y16811
X17402Y14961
X17402Y10433
X17518Y18402
X17520Y7795
X17559Y2441
X17573Y3667
X17598Y4764
X17618Y5157
X17795Y31850
X18110Y24134
X18187Y39602
X18209Y4705
X18287Y8583
X18346Y19094
X18445Y6154
X18523Y5281
X18523Y4907
X18622Y16102
X18622Y1220
X18661Y18701
X18701Y7165
X18724Y10654
X18956Y4805
X19039Y24154
X19291Y3110
X19606Y31850
X19685Y2323
X19734Y5155
X20000Y21260
X20000Y1260
X20236Y3425
X20433Y33110
X21024Y21299
X21024Y36260
X21052Y23191
X21142Y31811
X21142Y5551
X21142Y1575
X21415Y3577
X21614Y33110
X21614Y30236
X21693Y2323
X21732Y26496
X21850Y1378
X22520Y39646
X22598Y29134
X22621Y27675
X22835Y32559
X22874Y3386
X22913Y5630
X22953Y1260
X23045Y28892
X23263Y4449
X23465Y36417
X23976Y33110
X24016Y22362
X24094Y29882
X24646Y4134
X24803Y30232
X24921Y22205
X25197Y32441
X25197Y25591
X25390Y4783
X25551Y29606
X25551Y23976
X25787Y26929
X26024Y5433
X26260Y33071
X26811Y5591
X26949Y35929
X27402Y30787
X27671Y28622
X27677Y26969
X27677Y37638
X27795Y1339
X28150Y39724
X28189Y26299
X28307Y5551
X28889Y5205
X28898Y25039
X29409Y23228
X29646Y28504
X29843Y32953
X30433Y26850
X31102Y3386
X31260Y23386
X31339Y5551
X31500Y21063
X31535Y28189
X31535Y20138
X31535Y25039
X31693Y22598
X32008Y1378
X32087Y24803
X32283Y26299
X32441Y19409
X32441Y17992
X32480Y14803
X32480Y10984
X32520Y13898
X32520Y9724
X32520Y8780
X32520Y4331
X32559Y8031
X32559Y7323
X32598Y21496
X32742Y31345
X33739Y33451
X33819Y9567
X33881Y35647
X33898Y1339
X33957Y28051
X34016Y26850
X34094Y16470
X34139Y18546
X34173Y11732
X34291Y27283
X34291Y13819
X34331Y33451
X34331Y17992
X34380Y19134
X34409Y39843
X34409Y22638
X34685Y27677
X34803Y33425
X34882Y1417
X35591Y27717
X35846Y16437
X36063Y12559
X36142Y27717
X36417Y9173
X36535Y14213
X36654Y27717
X37402Y1378
X38031Y27795
X38031Y14173
X38583Y29232
X38819Y10472
X38976Y36614
X38976Y35630
X38976Y34646
X38976Y29626
X39055Y16339
X39134Y15079
X39232Y7402
X39370Y13622
X39488Y6811
X39646Y30394
X39701Y35122
X39921Y37205
X39961Y14370
X40118Y27756
X40118Y16417
T4
X1417Y38976
X1417Y2362
X1694Y39645
X1694Y38308
X1694Y3030
X1694Y1694
X2362Y39921
X2362Y38031
X2362Y3307
X2362Y1417
X3030Y39645
X3030Y38308
X3030Y3030
X3030Y1694
X3307Y38976
X3307Y2362
X38031Y38976
X38031Y2362
X38308Y39645
X38308Y38308
X38308Y3030
X38308Y1694
X38976Y39921
X38976Y38031
X38976Y3307
X38976Y1417
X39645Y39645
X39645Y38308
X39645Y3030
X39645Y1694
X39921Y38976
X39921Y2362
T6
X23622Y3150
X23622Y2520
X24311Y3465
X24311Y2835
X24311Y2205
T7
X8228Y8642
X8228Y6713
X8287Y9882
X9094Y8642
X9094Y6713
X9961Y8642
X9961Y6713
X10217Y9882
X18100Y3533
X18100Y2033
X24411Y28681
X24411Y27681
X24411Y26681
X24411Y25681
X24411Y24681
X24411Y23681
T8
X33661Y6102
X33661Y5118
X33661Y4134
X33661Y3150
X33661Y2165
T9
X2165Y5512
X3165Y5512
X4165Y5512
X5226Y31673
X5226Y30673
X5226Y28366
X5226Y27366
X5226Y25059
X5226Y24059
X5226Y21752
X5226Y20752
X5226Y15768
X5226Y14768
X5492Y36112
X5492Y35112
X6226Y31673
X6226Y30673
X6226Y28366
X6226Y27366
X6226Y25059
X6226Y24059
X6226Y21752
X6226Y20752
X6226Y15768
X6226Y14768
X6492Y36112
X6492Y35112
X8799Y36112
X8799Y35112
X9799Y36112
X9799Y35112
X10039Y5315
X10974Y9360
X10974Y8632
X10974Y6683
X10974Y1939
X12106Y36112
X12106Y35112
X13106Y36112
X13106Y35112
X13583Y23622
X14724Y23622
X15413Y36112
X15413Y35112
X16362Y19094
X16413Y36112
X16413Y35112
X16535Y24654
X16535Y23654
X16535Y22654
X16535Y21654
X16535Y20654
X17077Y9183
X17077Y6663
X17077Y5915
X17077Y4222
X17077Y1762
X17362Y19094
X17535Y24654
X17535Y23654
X17535Y22654
X17535Y21654
X17535Y20654
X18535Y24654
X18535Y23654
X18535Y22654
X18535Y21654
X18535Y20654
X19535Y24654
X19535Y23654
X19535Y22654
X19535Y21654
X19535Y20654
X20535Y24654
X20535Y23654
X20535Y22654
X20535Y21654
X20535Y20654
X21535Y24654
X21535Y23654
X21535Y22654
X21535Y21654
X21535Y20654
X25059Y36112
X25059Y35112
X25591Y3937
X25591Y1969
X26059Y36112
X26059Y35112
X28366Y36112
X28366Y35112
X29366Y36112
X29366Y35112
X31673Y36112
X31673Y35112
X32673Y36112
X32673Y35112
X33740Y10433
X33740Y8583
X34626Y15906
X34980Y36112
X34980Y35112
X35128Y31831
X35128Y30831
X35626Y15906
X35980Y36112
X35980Y35112
X36128Y31831
X36128Y30831
X36626Y15906
X37626Y15906
X38626Y15906
X39626Y15906
T10
X4636Y32008
X4636Y30354
X4636Y28701
X4636Y27047
X4636Y25394
X4636Y23740
X4636Y22087
X4636Y20433
X4636Y18780
X4636Y16102
X4636Y14449
X4636Y12795
X4636Y11142
X5157Y36703
X5157Y34537
X6801Y32008
X6801Y30354
X6801Y28701
X6801Y27047
X6801Y25394
X6801Y23740
X6801Y22087
X6801Y20433
X6801Y18780
X6801Y16102
X6801Y14449
X6801Y12795
X6801Y11142
X6811Y36703
X6811Y34537
X8465Y36703
X8465Y34537
X10118Y36703
X10118Y34537
X11772Y36703
X11772Y34537
X13425Y36703
X13425Y34537
X15079Y36703
X15079Y34537
X16732Y36703
X16732Y34537
X18386Y36703
X18386Y34537
X20039Y36703
X20039Y34537
X24724Y36703
X24724Y34537
X26378Y36703
X26378Y34537
X28031Y36703
X28031Y34537
X29685Y36703
X29685Y34537
X31339Y36703
X31339Y34537
X32992Y36703
X32992Y34537
X34537Y32165
X34537Y30512
X34537Y28858
X34646Y36703
X34646Y34537
X36299Y36703
X36299Y34537
X36703Y32165
X36703Y30512
X36703Y28858
T11
X26228Y23346
X26378Y29252
T12
X29411Y30681
X29411Y21681
T13
X2362Y38976
X2362Y2362
X38976Y38976
X38976Y2362
T14
X19531Y3585
X21807Y3585
T15
X37205Y12441
X37205Y9488
T16
X1762Y32008
X1762Y18780
X1762Y16102
X1762Y11142
X5157Y39577
X20039Y39577
X24724Y39577
X36299Y39577
X39577Y32165
X39577Y28858
T5
X18969Y3998G85X18969Y3565
G05
X18969Y2254G85X18969Y2018
G05
X22370Y3998G85X22370Y3565
G05
X22370Y2254G85X22370Y2018
G05
T6
X23711Y4272G85X24222Y4272
G05
X23711Y1398G85X24222Y1398
G05
M30
