G04 #@! TF.GenerationSoftware,KiCad,Pcbnew,8.0.9-8.0.9-0~ubuntu24.04.1*
G04 #@! TF.CreationDate,2026-02-26T22:36:56+00:00*
G04 #@! TF.ProjectId,uaefi,75616566-692e-46b6-9963-61645f706362,E*
G04 #@! TF.SameCoordinates,Original*
G04 #@! TF.FileFunction,Soldermask,Bot*
G04 #@! TF.FilePolarity,Negative*
%FSLAX46Y46*%
G04 Gerber Fmt 4.6, Leading zero omitted, Abs format (unit mm)*
G04 Created by KiCad (PCBNEW 8.0.9-8.0.9-0~ubuntu24.04.1) date 2026-02-26 22:36:56*
%MOMM*%
%LPD*%
G01*
G04 APERTURE LIST*
%ADD10C,0.120000*%
%ADD11R,1.700000X1.700000*%
%ADD12O,1.700000X1.700000*%
%ADD13C,3.000000*%
%ADD14O,2.700000X3.700000*%
%ADD15C,1.700000*%
%ADD16C,0.800000*%
%ADD17C,6.400000*%
%ADD18C,1.524000*%
%ADD19O,1.850000X1.700000*%
%ADD20C,0.600000*%
%ADD21R,1.100000X1.100000*%
%ADD22C,1.100000*%
%ADD23O,2.400000X1.100000*%
%ADD24C,1.500000*%
%ADD25C,0.599999*%
%ADD26O,3.700000X2.700000*%
%ADD27C,0.650000*%
%ADD28O,1.000000X2.100000*%
%ADD29O,1.000000X1.600000*%
%ADD30C,3.302000*%
%ADD31R,2.299995X4.399991*%
%ADD32R,2.299995X3.999992*%
G04 APERTURE END LIST*
D10*
G04 #@! TO.C,U5*
X101650000Y9725000D02*
X88650000Y9725000D01*
X88650000Y16725000D01*
X101650000Y16725000D01*
X101650000Y9725000D01*
G36*
X101650000Y9725000D02*
G01*
X88650000Y9725000D01*
X88650000Y16725000D01*
X101650000Y16725000D01*
X101650000Y9725000D01*
G37*
G04 #@! TD*
D11*
G04 #@! TO.C,J21*
X15815000Y55250000D03*
D12*
X13275000Y55250000D03*
X15815000Y52710000D03*
X13275000Y52710000D03*
G04 #@! TD*
D13*
G04 #@! TO.C,J10*
X62800000Y100525000D03*
X92200000Y100525000D03*
G36*
G01*
X61450000Y91625001D02*
X61450000Y94824999D01*
G75*
G02*
X61700001Y95075000I250001J0D01*
G01*
X63899999Y95075000D01*
G75*
G02*
X64150000Y94824999I0J-250001D01*
G01*
X64150000Y91625001D01*
G75*
G02*
X63899999Y91375000I-250001J0D01*
G01*
X61700001Y91375000D01*
G75*
G02*
X61450000Y91625001I0J250001D01*
G01*
G37*
D14*
X67000000Y93225000D03*
X71200000Y93225000D03*
X75400000Y93225000D03*
X79600000Y93225000D03*
X83800000Y93225000D03*
X88000000Y93225000D03*
X92200000Y93225000D03*
X62800000Y87725000D03*
X67000000Y87725000D03*
X71200000Y87725000D03*
X75400000Y87725000D03*
X79600000Y87725000D03*
X83800000Y87725000D03*
X88000000Y87725000D03*
X92200000Y87725000D03*
G04 #@! TD*
D15*
G04 #@! TO.C,P8*
X85700000Y21800000D03*
G04 #@! TD*
D11*
G04 #@! TO.C,J20*
X15815000Y63650000D03*
D12*
X13275000Y63650000D03*
X15815000Y61110000D03*
X13275000Y61110000D03*
G04 #@! TD*
D15*
G04 #@! TO.C,P5*
X44100000Y48500000D03*
G04 #@! TD*
D13*
G04 #@! TO.C,J2*
X13100000Y100525000D03*
X50900000Y100525000D03*
G36*
G01*
X11750000Y91625001D02*
X11750000Y94824999D01*
G75*
G02*
X12000001Y95075000I250001J0D01*
G01*
X14199999Y95075000D01*
G75*
G02*
X14450000Y94824999I0J-250001D01*
G01*
X14450000Y91625001D01*
G75*
G02*
X14199999Y91375000I-250001J0D01*
G01*
X12000001Y91375000D01*
G75*
G02*
X11750000Y91625001I0J250001D01*
G01*
G37*
D14*
X17300000Y93225000D03*
X21500000Y93225000D03*
X25700000Y93225000D03*
X29900000Y93225000D03*
X34100000Y93225000D03*
X38300000Y93225000D03*
X42500000Y93225000D03*
X46700000Y93225000D03*
X50900000Y93225000D03*
X13100000Y87725000D03*
X17300000Y87725000D03*
X21500000Y87725000D03*
X25700000Y87725000D03*
X29900000Y87725000D03*
X34100000Y87725000D03*
X38300000Y87725000D03*
X42500000Y87725000D03*
X46700000Y87725000D03*
X50900000Y87725000D03*
G04 #@! TD*
D11*
G04 #@! TO.C,J17*
X41690000Y91725000D03*
D12*
X39150000Y91725000D03*
X41690000Y89185000D03*
X39150000Y89185000D03*
G04 #@! TD*
D15*
G04 #@! TO.C,P1*
X34500000Y60000000D03*
G04 #@! TD*
G04 #@! TO.C,P2*
X37400000Y60000000D03*
G04 #@! TD*
G04 #@! TO.C,P15*
X8040000Y14000000D03*
G04 #@! TD*
D16*
G04 #@! TO.C,H1*
X3600000Y99000000D03*
X4302944Y100697056D03*
X4302944Y97302944D03*
X6000000Y101400000D03*
D17*
X6000000Y99000000D03*
D16*
X6000000Y96600000D03*
X7697056Y100697056D03*
X7697056Y97302944D03*
X8400000Y99000000D03*
G04 #@! TD*
G04 #@! TO.C,H4*
X96600000Y99000000D03*
X97302944Y100697056D03*
X97302944Y97302944D03*
X99000000Y101400000D03*
D17*
X99000000Y99000000D03*
D16*
X99000000Y96600000D03*
X100697056Y100697056D03*
X100697056Y97302944D03*
X101400000Y99000000D03*
G04 #@! TD*
D18*
G04 #@! TO.C,F4*
X20900000Y21950000D03*
X20900000Y17050000D03*
G04 #@! TD*
G04 #@! TO.C,J7*
G36*
G01*
X86175000Y4650000D02*
X84825000Y4650000D01*
G75*
G02*
X84575000Y4900000I0J250000D01*
G01*
X84575000Y6100000D01*
G75*
G02*
X84825000Y6350000I250000J0D01*
G01*
X86175000Y6350000D01*
G75*
G02*
X86425000Y6100000I0J-250000D01*
G01*
X86425000Y4900000D01*
G75*
G02*
X86175000Y4650000I-250000J0D01*
G01*
G37*
D19*
X85500000Y8000000D03*
X85500000Y10500000D03*
X85500000Y13000000D03*
X85500000Y15500000D03*
G04 #@! TD*
D15*
G04 #@! TO.C,P4*
X65000000Y10000000D03*
G04 #@! TD*
D16*
G04 #@! TO.C,H2*
X3600000Y6000000D03*
X4302944Y7697056D03*
X4302944Y4302944D03*
X6000000Y8400000D03*
D17*
X6000000Y6000000D03*
D16*
X6000000Y3600000D03*
X7697056Y7697056D03*
X7697056Y4302944D03*
X8400000Y6000000D03*
G04 #@! TD*
D20*
G04 #@! TO.C,M3*
X51675000Y65175000D03*
X50475000Y65175000D03*
X52875000Y65175000D03*
X54075000Y65175000D03*
X47615000Y79600000D03*
X46615000Y79600000D03*
G04 #@! TD*
D15*
G04 #@! TO.C,P17*
X5500000Y14000000D03*
G04 #@! TD*
D21*
G04 #@! TO.C,J8*
X61750000Y5600000D03*
D22*
X60000000Y6400000D03*
X61750000Y7200000D03*
X60000000Y8000000D03*
X61750000Y8800000D03*
D23*
X60875000Y3550000D03*
X60875000Y10850000D03*
G04 #@! TD*
D18*
G04 #@! TO.C,F3*
X23100000Y21950000D03*
X23100000Y17050000D03*
G04 #@! TD*
D20*
G04 #@! TO.C,M2*
X82074999Y75625000D03*
X81124999Y75625000D03*
X80175001Y75625000D03*
X81174999Y84325000D03*
X82074999Y84325000D03*
G04 #@! TD*
D15*
G04 #@! TO.C,P18*
X25500000Y13500000D03*
G04 #@! TD*
D24*
G04 #@! TO.C,M1*
X43374995Y23324999D03*
X43374995Y16925002D03*
X43374995Y15024999D03*
X43374995Y10724999D03*
D20*
X43824994Y8325002D03*
X43824994Y7325001D03*
D24*
X43374995Y4474999D03*
X27874998Y23775001D03*
X27874998Y21925002D03*
X27874998Y16974999D03*
X27874998Y4925001D03*
G04 #@! TD*
D15*
G04 #@! TO.C,P6*
X41560000Y48500000D03*
G04 #@! TD*
D25*
G04 #@! TO.C,M7*
X34499999Y49475001D03*
X35024999Y50350003D03*
X35774997Y49174999D03*
X39324998Y49250002D03*
G04 #@! TD*
D11*
G04 #@! TO.C,J11*
X82990000Y91725000D03*
D12*
X80450000Y91725000D03*
X82990000Y89185000D03*
X80450000Y89185000D03*
G04 #@! TD*
D13*
G04 #@! TO.C,J5*
X4475000Y47700000D03*
X4475000Y81300000D03*
G36*
G01*
X13374999Y46350000D02*
X10175001Y46350000D01*
G75*
G02*
X9925000Y46600001I0J250001D01*
G01*
X9925000Y48799999D01*
G75*
G02*
X10175001Y49050000I250001J0D01*
G01*
X13374999Y49050000D01*
G75*
G02*
X13625000Y48799999I0J-250001D01*
G01*
X13625000Y46600001D01*
G75*
G02*
X13374999Y46350000I-250001J0D01*
G01*
G37*
D26*
X11775000Y51900000D03*
X11775000Y56100000D03*
X11775000Y60300000D03*
X11775000Y64500000D03*
X11775000Y68700000D03*
X11775000Y72900000D03*
X11775000Y77100000D03*
X11775000Y81300000D03*
X17275000Y47700000D03*
X17275000Y51900000D03*
X17275000Y56100000D03*
X17275000Y60300000D03*
X17275000Y64500000D03*
X17275000Y68700000D03*
X17275000Y72900000D03*
X17275000Y77100000D03*
X17275000Y81300000D03*
G04 #@! TD*
D11*
G04 #@! TO.C,J1*
X91390000Y91725000D03*
D12*
X88850000Y91725000D03*
X91390000Y89185000D03*
X88850000Y89185000D03*
G04 #@! TD*
D13*
G04 #@! TO.C,J3*
X100525000Y81700000D03*
X100525000Y73300000D03*
G36*
G01*
X91625001Y83050000D02*
X94824999Y83050000D01*
G75*
G02*
X95075000Y82799999I0J-250001D01*
G01*
X95075000Y80600001D01*
G75*
G02*
X94824999Y80350000I-250001J0D01*
G01*
X91625001Y80350000D01*
G75*
G02*
X91375000Y80600001I0J250001D01*
G01*
X91375000Y82799999D01*
G75*
G02*
X91625001Y83050000I250001J0D01*
G01*
G37*
D26*
X93225000Y77500000D03*
X93225000Y73300000D03*
X87725000Y81700000D03*
X87725000Y77500000D03*
X87725000Y73300000D03*
G04 #@! TD*
D11*
G04 #@! TO.C,J16*
X33290000Y91725000D03*
D12*
X30750000Y91725000D03*
X33290000Y89185000D03*
X30750000Y89185000D03*
G04 #@! TD*
D18*
G04 #@! TO.C,F1*
X25300000Y21950000D03*
X25300000Y17050000D03*
G04 #@! TD*
D15*
G04 #@! TO.C,G3*
X42000000Y52460000D03*
X42000000Y55000000D03*
X42000000Y57540000D03*
X42000000Y60080000D03*
X42000000Y62620000D03*
X44540000Y52460000D03*
X44540000Y55000000D03*
X44540000Y57540000D03*
X44540000Y60080000D03*
X44540000Y62620000D03*
X47080000Y52460000D03*
X47080000Y55000000D03*
X47080000Y57540000D03*
X47080000Y60080000D03*
X47080000Y62620000D03*
G04 #@! TD*
G04 #@! TO.C,P3*
X65000000Y5000000D03*
G04 #@! TD*
D18*
G04 #@! TO.C,R4*
X45974609Y8974609D03*
X45974609Y5164609D03*
G04 #@! TD*
D11*
G04 #@! TO.C,J24*
X91765000Y80850000D03*
D12*
X89225000Y80850000D03*
X91765000Y78310000D03*
X89225000Y78310000D03*
G04 #@! TD*
D13*
G04 #@! TO.C,J4*
X4475000Y28300000D03*
X4475000Y40900000D03*
G36*
G01*
X13374999Y26950000D02*
X10175001Y26950000D01*
G75*
G02*
X9925000Y27200001I0J250001D01*
G01*
X9925000Y29399999D01*
G75*
G02*
X10175001Y29650000I250001J0D01*
G01*
X13374999Y29650000D01*
G75*
G02*
X13625000Y29399999I0J-250001D01*
G01*
X13625000Y27200001D01*
G75*
G02*
X13374999Y26950000I-250001J0D01*
G01*
G37*
D26*
X11775000Y32500000D03*
X11775000Y36700000D03*
X11775000Y40900000D03*
X17275000Y28300000D03*
X17275000Y32500000D03*
X17275000Y36700000D03*
X17275000Y40900000D03*
G04 #@! TD*
D15*
G04 #@! TO.C,P7*
X85700000Y26500000D03*
G04 #@! TD*
D11*
G04 #@! TO.C,J13*
X66190000Y91725000D03*
D12*
X63650000Y91725000D03*
X66190000Y89185000D03*
X63650000Y89185000D03*
G04 #@! TD*
D27*
G04 #@! TO.C,J9*
X49610000Y9105000D03*
X55390000Y9105000D03*
D28*
X48180000Y9605000D03*
D29*
X48180000Y5425000D03*
D28*
X56820000Y9605000D03*
D29*
X56820000Y5425000D03*
G04 #@! TD*
D16*
G04 #@! TO.C,H3*
X96600000Y6000000D03*
X97302944Y7697056D03*
X97302944Y4302944D03*
X99000000Y8400000D03*
D17*
X99000000Y6000000D03*
D16*
X99000000Y3600000D03*
X100697056Y7697056D03*
X100697056Y4302944D03*
X101400000Y6000000D03*
G04 #@! TD*
D20*
G04 #@! TO.C,M4*
X40625000Y65175000D03*
X39425000Y65175000D03*
X41825000Y65175000D03*
X43025000Y65175000D03*
X36565000Y79600000D03*
X35565000Y79600000D03*
G04 #@! TD*
D11*
G04 #@! TO.C,J14*
X16490000Y91725000D03*
D12*
X13950000Y91725000D03*
X16490000Y89185000D03*
X13950000Y89185000D03*
G04 #@! TD*
D11*
G04 #@! TO.C,J18*
X15815000Y80450000D03*
D12*
X13275000Y80450000D03*
X15815000Y77910000D03*
X13275000Y77910000D03*
G04 #@! TD*
D18*
G04 #@! TO.C,F2*
X21050000Y25100000D03*
X25950000Y25100000D03*
G04 #@! TD*
D11*
G04 #@! TO.C,J15*
X24890000Y91725000D03*
D12*
X22350000Y91725000D03*
X24890000Y89185000D03*
X22350000Y89185000D03*
G04 #@! TD*
D11*
G04 #@! TO.C,J6*
X100650000Y40400000D03*
D12*
X98110000Y40400000D03*
X95570000Y40400000D03*
X93030000Y40400000D03*
X90490000Y40400000D03*
X87950000Y40400000D03*
G04 #@! TD*
D11*
G04 #@! TO.C,J19*
X15815000Y72050000D03*
D12*
X13275000Y72050000D03*
X15815000Y69510000D03*
X13275000Y69510000D03*
G04 #@! TD*
D11*
G04 #@! TO.C,J22*
X15815000Y40050000D03*
D12*
X13275000Y40050000D03*
X15815000Y37510000D03*
X13275000Y37510000D03*
G04 #@! TD*
D11*
G04 #@! TO.C,J12*
X74590000Y91725000D03*
D12*
X72050000Y91725000D03*
X74590000Y89185000D03*
X72050000Y89185000D03*
G04 #@! TD*
D30*
G04 #@! TO.C,U3*
X74703250Y77930000D03*
X74703250Y55070000D03*
D18*
X62003250Y72850000D03*
X62003250Y70310000D03*
X62003250Y67770000D03*
X62003250Y65230000D03*
X62003250Y62690000D03*
X62003250Y60150000D03*
G04 #@! TD*
D15*
G04 #@! TO.C,P16*
X10580000Y14000000D03*
G04 #@! TD*
G04 #@! TO.C,G4*
X49620000Y52460000D03*
X49620000Y55000000D03*
X49620000Y57540000D03*
X49620000Y60080000D03*
X49620000Y62620000D03*
X52160000Y52460000D03*
X52160000Y55000000D03*
X52160000Y57540000D03*
X52160000Y60080000D03*
X52160000Y62620000D03*
X54700000Y52460000D03*
X54700000Y55000000D03*
X54700000Y57540000D03*
X54700000Y60080000D03*
X54700000Y62620000D03*
G04 #@! TD*
G04 #@! TO.C,D8*
G36*
G01*
X56900000Y83757023D02*
X57200000Y83757023D01*
G75*
G02*
X57350000Y83607023I0J-150000D01*
G01*
X57350000Y82432023D01*
G75*
G02*
X57200000Y82282023I-150000J0D01*
G01*
X56900000Y82282023D01*
G75*
G02*
X56750000Y82432023I0J150000D01*
G01*
X56750000Y83607023D01*
G75*
G02*
X56900000Y83757023I150000J0D01*
G01*
G37*
G36*
G01*
X58800000Y83757023D02*
X59100000Y83757023D01*
G75*
G02*
X59250000Y83607023I0J-150000D01*
G01*
X59250000Y82432023D01*
G75*
G02*
X59100000Y82282023I-150000J0D01*
G01*
X58800000Y82282023D01*
G75*
G02*
X58650000Y82432023I0J150000D01*
G01*
X58650000Y83607023D01*
G75*
G02*
X58800000Y83757023I150000J0D01*
G01*
G37*
G36*
G01*
X57850000Y81882023D02*
X58150000Y81882023D01*
G75*
G02*
X58300000Y81732023I0J-150000D01*
G01*
X58300000Y80557023D01*
G75*
G02*
X58150000Y80407023I-150000J0D01*
G01*
X57850000Y80407023D01*
G75*
G02*
X57700000Y80557023I0J150000D01*
G01*
X57700000Y81732023D01*
G75*
G02*
X57850000Y81882023I150000J0D01*
G01*
G37*
G04 #@! TD*
G04 #@! TO.C,C10*
G36*
G01*
X15150000Y15960000D02*
X14100000Y15960000D01*
G75*
G02*
X14000000Y16060000I0J100000D01*
G01*
X14000000Y16860000D01*
G75*
G02*
X14100000Y16960000I100000J0D01*
G01*
X15150000Y16960000D01*
G75*
G02*
X15250000Y16860000I0J-100000D01*
G01*
X15250000Y16060000D01*
G75*
G02*
X15150000Y15960000I-100000J0D01*
G01*
G37*
G36*
G01*
X15150000Y17960000D02*
X14100000Y17960000D01*
G75*
G02*
X14000000Y18060000I0J100000D01*
G01*
X14000000Y18860000D01*
G75*
G02*
X14100000Y18960000I100000J0D01*
G01*
X15150000Y18960000D01*
G75*
G02*
X15250000Y18860000I0J-100000D01*
G01*
X15250000Y18060000D01*
G75*
G02*
X15150000Y17960000I-100000J0D01*
G01*
G37*
G04 #@! TD*
G04 #@! TO.C,C27*
G36*
G01*
X63960000Y68815001D02*
X64640000Y68815001D01*
G75*
G02*
X64725000Y68730001I0J-85000D01*
G01*
X64725000Y68050001D01*
G75*
G02*
X64640000Y67965001I-85000J0D01*
G01*
X63960000Y67965001D01*
G75*
G02*
X63875000Y68050001I0J85000D01*
G01*
X63875000Y68730001D01*
G75*
G02*
X63960000Y68815001I85000J0D01*
G01*
G37*
G36*
G01*
X63960000Y67234999D02*
X64640000Y67234999D01*
G75*
G02*
X64725000Y67149999I0J-85000D01*
G01*
X64725000Y66469999D01*
G75*
G02*
X64640000Y66384999I-85000J0D01*
G01*
X63960000Y66384999D01*
G75*
G02*
X63875000Y66469999I0J85000D01*
G01*
X63875000Y67149999D01*
G75*
G02*
X63960000Y67234999I85000J0D01*
G01*
G37*
G04 #@! TD*
G04 #@! TO.C,D4*
G36*
G01*
X22010000Y78400000D02*
X20990000Y78400000D01*
G75*
G02*
X20900000Y78490000I0J90000D01*
G01*
X20900000Y79210000D01*
G75*
G02*
X20990000Y79300000I90000J0D01*
G01*
X22010000Y79300000D01*
G75*
G02*
X22100000Y79210000I0J-90000D01*
G01*
X22100000Y78490000D01*
G75*
G02*
X22010000Y78400000I-90000J0D01*
G01*
G37*
G36*
G01*
X22010000Y81700000D02*
X20990000Y81700000D01*
G75*
G02*
X20900000Y81790000I0J90000D01*
G01*
X20900000Y82510000D01*
G75*
G02*
X20990000Y82600000I90000J0D01*
G01*
X22010000Y82600000D01*
G75*
G02*
X22100000Y82510000I0J-90000D01*
G01*
X22100000Y81790000D01*
G75*
G02*
X22010000Y81700000I-90000J0D01*
G01*
G37*
G04 #@! TD*
D24*
G04 #@! TO.C,BT1*
X94500000Y24100142D03*
X94500000Y31600000D03*
D31*
X94500000Y20000048D03*
D32*
X94500000Y36000067D03*
G04 #@! TD*
G04 #@! TO.C,U10*
G36*
G01*
X3595000Y65400000D02*
X3895000Y65400000D01*
G75*
G02*
X4045000Y65250000I0J-150000D01*
G01*
X4045000Y63600000D01*
G75*
G02*
X3895000Y63450000I-150000J0D01*
G01*
X3595000Y63450000D01*
G75*
G02*
X3445000Y63600000I0J150000D01*
G01*
X3445000Y65250000D01*
G75*
G02*
X3595000Y65400000I150000J0D01*
G01*
G37*
G36*
G01*
X4865000Y65400000D02*
X5165000Y65400000D01*
G75*
G02*
X5315000Y65250000I0J-150000D01*
G01*
X5315000Y63600000D01*
G75*
G02*
X5165000Y63450000I-150000J0D01*
G01*
X4865000Y63450000D01*
G75*
G02*
X4715000Y63600000I0J150000D01*
G01*
X4715000Y65250000D01*
G75*
G02*
X4865000Y65400000I150000J0D01*
G01*
G37*
G36*
G01*
X6135000Y65400000D02*
X6435000Y65400000D01*
G75*
G02*
X6585000Y65250000I0J-150000D01*
G01*
X6585000Y63600000D01*
G75*
G02*
X6435000Y63450000I-150000J0D01*
G01*
X6135000Y63450000D01*
G75*
G02*
X5985000Y63600000I0J150000D01*
G01*
X5985000Y65250000D01*
G75*
G02*
X6135000Y65400000I150000J0D01*
G01*
G37*
G36*
G01*
X7405000Y65400000D02*
X7705000Y65400000D01*
G75*
G02*
X7855000Y65250000I0J-150000D01*
G01*
X7855000Y63600000D01*
G75*
G02*
X7705000Y63450000I-150000J0D01*
G01*
X7405000Y63450000D01*
G75*
G02*
X7255000Y63600000I0J150000D01*
G01*
X7255000Y65250000D01*
G75*
G02*
X7405000Y65400000I150000J0D01*
G01*
G37*
G36*
G01*
X7405000Y60450000D02*
X7705000Y60450000D01*
G75*
G02*
X7855000Y60300000I0J-150000D01*
G01*
X7855000Y58650000D01*
G75*
G02*
X7705000Y58500000I-150000J0D01*
G01*
X7405000Y58500000D01*
G75*
G02*
X7255000Y58650000I0J150000D01*
G01*
X7255000Y60300000D01*
G75*
G02*
X7405000Y60450000I150000J0D01*
G01*
G37*
G36*
G01*
X6135000Y60450000D02*
X6435000Y60450000D01*
G75*
G02*
X6585000Y60300000I0J-150000D01*
G01*
X6585000Y58650000D01*
G75*
G02*
X6435000Y58500000I-150000J0D01*
G01*
X6135000Y58500000D01*
G75*
G02*
X5985000Y58650000I0J150000D01*
G01*
X5985000Y60300000D01*
G75*
G02*
X6135000Y60450000I150000J0D01*
G01*
G37*
G36*
G01*
X4865000Y60450000D02*
X5165000Y60450000D01*
G75*
G02*
X5315000Y60300000I0J-150000D01*
G01*
X5315000Y58650000D01*
G75*
G02*
X5165000Y58500000I-150000J0D01*
G01*
X4865000Y58500000D01*
G75*
G02*
X4715000Y58650000I0J150000D01*
G01*
X4715000Y60300000D01*
G75*
G02*
X4865000Y60450000I150000J0D01*
G01*
G37*
G36*
G01*
X3595000Y60450000D02*
X3895000Y60450000D01*
G75*
G02*
X4045000Y60300000I0J-150000D01*
G01*
X4045000Y58650000D01*
G75*
G02*
X3895000Y58500000I-150000J0D01*
G01*
X3595000Y58500000D01*
G75*
G02*
X3445000Y58650000I0J150000D01*
G01*
X3445000Y60300000D01*
G75*
G02*
X3595000Y60450000I150000J0D01*
G01*
G37*
G04 #@! TD*
G04 #@! TO.C,R31*
G36*
G01*
X5440000Y43150000D02*
X4660000Y43150000D01*
G75*
G02*
X4590000Y43220000I0J70000D01*
G01*
X4590000Y43780000D01*
G75*
G02*
X4660000Y43850000I70000J0D01*
G01*
X5440000Y43850000D01*
G75*
G02*
X5510000Y43780000I0J-70000D01*
G01*
X5510000Y43220000D01*
G75*
G02*
X5440000Y43150000I-70000J0D01*
G01*
G37*
G36*
G01*
X5440000Y44750000D02*
X4660000Y44750000D01*
G75*
G02*
X4590000Y44820000I0J70000D01*
G01*
X4590000Y45380000D01*
G75*
G02*
X4660000Y45450000I70000J0D01*
G01*
X5440000Y45450000D01*
G75*
G02*
X5510000Y45380000I0J-70000D01*
G01*
X5510000Y44820000D01*
G75*
G02*
X5440000Y44750000I-70000J0D01*
G01*
G37*
G04 #@! TD*
G04 #@! TO.C,C30*
G36*
G01*
X60905002Y85440000D02*
X60905002Y84760000D01*
G75*
G02*
X60820002Y84675000I-85000J0D01*
G01*
X60140002Y84675000D01*
G75*
G02*
X60055002Y84760000I0J85000D01*
G01*
X60055002Y85440000D01*
G75*
G02*
X60140002Y85525000I85000J0D01*
G01*
X60820002Y85525000D01*
G75*
G02*
X60905002Y85440000I0J-85000D01*
G01*
G37*
G36*
G01*
X59325000Y85440000D02*
X59325000Y84760000D01*
G75*
G02*
X59240000Y84675000I-85000J0D01*
G01*
X58560000Y84675000D01*
G75*
G02*
X58475000Y84760000I0J85000D01*
G01*
X58475000Y85440000D01*
G75*
G02*
X58560000Y85525000I85000J0D01*
G01*
X59240000Y85525000D01*
G75*
G02*
X59325000Y85440000I0J-85000D01*
G01*
G37*
G04 #@! TD*
G04 #@! TO.C,C7*
G36*
G01*
X9150000Y15960000D02*
X8100000Y15960000D01*
G75*
G02*
X8000000Y16060000I0J100000D01*
G01*
X8000000Y16860000D01*
G75*
G02*
X8100000Y16960000I100000J0D01*
G01*
X9150000Y16960000D01*
G75*
G02*
X9250000Y16860000I0J-100000D01*
G01*
X9250000Y16060000D01*
G75*
G02*
X9150000Y15960000I-100000J0D01*
G01*
G37*
G36*
G01*
X9150000Y17960000D02*
X8100000Y17960000D01*
G75*
G02*
X8000000Y18060000I0J100000D01*
G01*
X8000000Y18860000D01*
G75*
G02*
X8100000Y18960000I100000J0D01*
G01*
X9150000Y18960000D01*
G75*
G02*
X9250000Y18860000I0J-100000D01*
G01*
X9250000Y18060000D01*
G75*
G02*
X9150000Y17960000I-100000J0D01*
G01*
G37*
G04 #@! TD*
G04 #@! TO.C,C33*
G36*
G01*
X99160000Y37715001D02*
X99840000Y37715001D01*
G75*
G02*
X99925000Y37630001I0J-85000D01*
G01*
X99925000Y36950001D01*
G75*
G02*
X99840000Y36865001I-85000J0D01*
G01*
X99160000Y36865001D01*
G75*
G02*
X99075000Y36950001I0J85000D01*
G01*
X99075000Y37630001D01*
G75*
G02*
X99160000Y37715001I85000J0D01*
G01*
G37*
G36*
G01*
X99160000Y36134999D02*
X99840000Y36134999D01*
G75*
G02*
X99925000Y36049999I0J-85000D01*
G01*
X99925000Y35369999D01*
G75*
G02*
X99840000Y35284999I-85000J0D01*
G01*
X99160000Y35284999D01*
G75*
G02*
X99075000Y35369999I0J85000D01*
G01*
X99075000Y36049999D01*
G75*
G02*
X99160000Y36134999I85000J0D01*
G01*
G37*
G04 #@! TD*
G04 #@! TO.C,C29*
G36*
G01*
X56784999Y79242023D02*
X56784999Y79922023D01*
G75*
G02*
X56869999Y80007023I85000J0D01*
G01*
X57549999Y80007023D01*
G75*
G02*
X57634999Y79922023I0J-85000D01*
G01*
X57634999Y79242023D01*
G75*
G02*
X57549999Y79157023I-85000J0D01*
G01*
X56869999Y79157023D01*
G75*
G02*
X56784999Y79242023I0J85000D01*
G01*
G37*
G36*
G01*
X58365001Y79242023D02*
X58365001Y79922023D01*
G75*
G02*
X58450001Y80007023I85000J0D01*
G01*
X59130001Y80007023D01*
G75*
G02*
X59215001Y79922023I0J-85000D01*
G01*
X59215001Y79242023D01*
G75*
G02*
X59130001Y79157023I-85000J0D01*
G01*
X58450001Y79157023D01*
G75*
G02*
X58365001Y79242023I0J85000D01*
G01*
G37*
G04 #@! TD*
G04 #@! TO.C,R34*
G36*
G01*
X8790000Y43150000D02*
X8010000Y43150000D01*
G75*
G02*
X7940000Y43220000I0J70000D01*
G01*
X7940000Y43780000D01*
G75*
G02*
X8010000Y43850000I70000J0D01*
G01*
X8790000Y43850000D01*
G75*
G02*
X8860000Y43780000I0J-70000D01*
G01*
X8860000Y43220000D01*
G75*
G02*
X8790000Y43150000I-70000J0D01*
G01*
G37*
G36*
G01*
X8790000Y44750000D02*
X8010000Y44750000D01*
G75*
G02*
X7940000Y44820000I0J70000D01*
G01*
X7940000Y45380000D01*
G75*
G02*
X8010000Y45450000I70000J0D01*
G01*
X8790000Y45450000D01*
G75*
G02*
X8860000Y45380000I0J-70000D01*
G01*
X8860000Y44820000D01*
G75*
G02*
X8790000Y44750000I-70000J0D01*
G01*
G37*
G04 #@! TD*
G04 #@! TO.C,C17*
G36*
G01*
X18575000Y13500000D02*
X19625000Y13500000D01*
G75*
G02*
X19725000Y13400000I0J-100000D01*
G01*
X19725000Y12600000D01*
G75*
G02*
X19625000Y12500000I-100000J0D01*
G01*
X18575000Y12500000D01*
G75*
G02*
X18475000Y12600000I0J100000D01*
G01*
X18475000Y13400000D01*
G75*
G02*
X18575000Y13500000I100000J0D01*
G01*
G37*
G36*
G01*
X18575000Y11500000D02*
X19625000Y11500000D01*
G75*
G02*
X19725000Y11400000I0J-100000D01*
G01*
X19725000Y10600000D01*
G75*
G02*
X19625000Y10500000I-100000J0D01*
G01*
X18575000Y10500000D01*
G75*
G02*
X18475000Y10600000I0J100000D01*
G01*
X18475000Y11400000D01*
G75*
G02*
X18575000Y11500000I100000J0D01*
G01*
G37*
G04 #@! TD*
G04 #@! TO.C,R20*
G36*
G01*
X29975000Y66325000D02*
X29975000Y63475000D01*
G75*
G02*
X29725000Y63225000I-250000J0D01*
G01*
X29000000Y63225000D01*
G75*
G02*
X28750000Y63475000I0J250000D01*
G01*
X28750000Y66325000D01*
G75*
G02*
X29000000Y66575000I250000J0D01*
G01*
X29725000Y66575000D01*
G75*
G02*
X29975000Y66325000I0J-250000D01*
G01*
G37*
G36*
G01*
X24050000Y66325000D02*
X24050000Y63475000D01*
G75*
G02*
X23800000Y63225000I-250000J0D01*
G01*
X23075000Y63225000D01*
G75*
G02*
X22825000Y63475000I0J250000D01*
G01*
X22825000Y66325000D01*
G75*
G02*
X23075000Y66575000I250000J0D01*
G01*
X23800000Y66575000D01*
G75*
G02*
X24050000Y66325000I0J-250000D01*
G01*
G37*
G04 #@! TD*
G04 #@! TO.C,C3*
G36*
G01*
X10100000Y22960000D02*
X11150000Y22960000D01*
G75*
G02*
X11250000Y22860000I0J-100000D01*
G01*
X11250000Y22060000D01*
G75*
G02*
X11150000Y21960000I-100000J0D01*
G01*
X10100000Y21960000D01*
G75*
G02*
X10000000Y22060000I0J100000D01*
G01*
X10000000Y22860000D01*
G75*
G02*
X10100000Y22960000I100000J0D01*
G01*
G37*
G36*
G01*
X10100000Y20960000D02*
X11150000Y20960000D01*
G75*
G02*
X11250000Y20860000I0J-100000D01*
G01*
X11250000Y20060000D01*
G75*
G02*
X11150000Y19960000I-100000J0D01*
G01*
X10100000Y19960000D01*
G75*
G02*
X10000000Y20060000I0J100000D01*
G01*
X10000000Y20860000D01*
G75*
G02*
X10100000Y20960000I100000J0D01*
G01*
G37*
G04 #@! TD*
G04 #@! TO.C,C23*
G36*
G01*
X21625000Y6500000D02*
X20575000Y6500000D01*
G75*
G02*
X20475000Y6600000I0J100000D01*
G01*
X20475000Y7400000D01*
G75*
G02*
X20575000Y7500000I100000J0D01*
G01*
X21625000Y7500000D01*
G75*
G02*
X21725000Y7400000I0J-100000D01*
G01*
X21725000Y6600000D01*
G75*
G02*
X21625000Y6500000I-100000J0D01*
G01*
G37*
G36*
G01*
X21625000Y8500000D02*
X20575000Y8500000D01*
G75*
G02*
X20475000Y8600000I0J100000D01*
G01*
X20475000Y9400000D01*
G75*
G02*
X20575000Y9500000I100000J0D01*
G01*
X21625000Y9500000D01*
G75*
G02*
X21725000Y9400000I0J-100000D01*
G01*
X21725000Y8600000D01*
G75*
G02*
X21625000Y8500000I-100000J0D01*
G01*
G37*
G04 #@! TD*
G04 #@! TO.C,U4*
G36*
G01*
X55945000Y77750000D02*
X56245000Y77750000D01*
G75*
G02*
X56395000Y77600000I0J-150000D01*
G01*
X56395000Y75950000D01*
G75*
G02*
X56245000Y75800000I-150000J0D01*
G01*
X55945000Y75800000D01*
G75*
G02*
X55795000Y75950000I0J150000D01*
G01*
X55795000Y77600000D01*
G75*
G02*
X55945000Y77750000I150000J0D01*
G01*
G37*
G36*
G01*
X57215000Y77750000D02*
X57515000Y77750000D01*
G75*
G02*
X57665000Y77600000I0J-150000D01*
G01*
X57665000Y75950000D01*
G75*
G02*
X57515000Y75800000I-150000J0D01*
G01*
X57215000Y75800000D01*
G75*
G02*
X57065000Y75950000I0J150000D01*
G01*
X57065000Y77600000D01*
G75*
G02*
X57215000Y77750000I150000J0D01*
G01*
G37*
G36*
G01*
X58485000Y77750000D02*
X58785000Y77750000D01*
G75*
G02*
X58935000Y77600000I0J-150000D01*
G01*
X58935000Y75950000D01*
G75*
G02*
X58785000Y75800000I-150000J0D01*
G01*
X58485000Y75800000D01*
G75*
G02*
X58335000Y75950000I0J150000D01*
G01*
X58335000Y77600000D01*
G75*
G02*
X58485000Y77750000I150000J0D01*
G01*
G37*
G36*
G01*
X59755000Y77750000D02*
X60055000Y77750000D01*
G75*
G02*
X60205000Y77600000I0J-150000D01*
G01*
X60205000Y75950000D01*
G75*
G02*
X60055000Y75800000I-150000J0D01*
G01*
X59755000Y75800000D01*
G75*
G02*
X59605000Y75950000I0J150000D01*
G01*
X59605000Y77600000D01*
G75*
G02*
X59755000Y77750000I150000J0D01*
G01*
G37*
G36*
G01*
X59755000Y72800000D02*
X60055000Y72800000D01*
G75*
G02*
X60205000Y72650000I0J-150000D01*
G01*
X60205000Y71000000D01*
G75*
G02*
X60055000Y70850000I-150000J0D01*
G01*
X59755000Y70850000D01*
G75*
G02*
X59605000Y71000000I0J150000D01*
G01*
X59605000Y72650000D01*
G75*
G02*
X59755000Y72800000I150000J0D01*
G01*
G37*
G36*
G01*
X58485000Y72800000D02*
X58785000Y72800000D01*
G75*
G02*
X58935000Y72650000I0J-150000D01*
G01*
X58935000Y71000000D01*
G75*
G02*
X58785000Y70850000I-150000J0D01*
G01*
X58485000Y70850000D01*
G75*
G02*
X58335000Y71000000I0J150000D01*
G01*
X58335000Y72650000D01*
G75*
G02*
X58485000Y72800000I150000J0D01*
G01*
G37*
G36*
G01*
X57215000Y72800000D02*
X57515000Y72800000D01*
G75*
G02*
X57665000Y72650000I0J-150000D01*
G01*
X57665000Y71000000D01*
G75*
G02*
X57515000Y70850000I-150000J0D01*
G01*
X57215000Y70850000D01*
G75*
G02*
X57065000Y71000000I0J150000D01*
G01*
X57065000Y72650000D01*
G75*
G02*
X57215000Y72800000I150000J0D01*
G01*
G37*
G36*
G01*
X55945000Y72800000D02*
X56245000Y72800000D01*
G75*
G02*
X56395000Y72650000I0J-150000D01*
G01*
X56395000Y71000000D01*
G75*
G02*
X56245000Y70850000I-150000J0D01*
G01*
X55945000Y70850000D01*
G75*
G02*
X55795000Y71000000I0J150000D01*
G01*
X55795000Y72650000D01*
G75*
G02*
X55945000Y72800000I150000J0D01*
G01*
G37*
G04 #@! TD*
G04 #@! TO.C,C1*
G36*
G01*
X6100000Y22960000D02*
X7150000Y22960000D01*
G75*
G02*
X7250000Y22860000I0J-100000D01*
G01*
X7250000Y22060000D01*
G75*
G02*
X7150000Y21960000I-100000J0D01*
G01*
X6100000Y21960000D01*
G75*
G02*
X6000000Y22060000I0J100000D01*
G01*
X6000000Y22860000D01*
G75*
G02*
X6100000Y22960000I100000J0D01*
G01*
G37*
G36*
G01*
X6100000Y20960000D02*
X7150000Y20960000D01*
G75*
G02*
X7250000Y20860000I0J-100000D01*
G01*
X7250000Y20060000D01*
G75*
G02*
X7150000Y19960000I-100000J0D01*
G01*
X6100000Y19960000D01*
G75*
G02*
X6000000Y20060000I0J100000D01*
G01*
X6000000Y20860000D01*
G75*
G02*
X6100000Y20960000I100000J0D01*
G01*
G37*
G04 #@! TD*
G04 #@! TO.C,R26*
G36*
G01*
X29975000Y45325000D02*
X29975000Y42475000D01*
G75*
G02*
X29725000Y42225000I-250000J0D01*
G01*
X29000000Y42225000D01*
G75*
G02*
X28750000Y42475000I0J250000D01*
G01*
X28750000Y45325000D01*
G75*
G02*
X29000000Y45575000I250000J0D01*
G01*
X29725000Y45575000D01*
G75*
G02*
X29975000Y45325000I0J-250000D01*
G01*
G37*
G36*
G01*
X24050000Y45325000D02*
X24050000Y42475000D01*
G75*
G02*
X23800000Y42225000I-250000J0D01*
G01*
X23075000Y42225000D01*
G75*
G02*
X22825000Y42475000I0J250000D01*
G01*
X22825000Y45325000D01*
G75*
G02*
X23075000Y45575000I250000J0D01*
G01*
X23800000Y45575000D01*
G75*
G02*
X24050000Y45325000I0J-250000D01*
G01*
G37*
G04 #@! TD*
G04 #@! TO.C,U11*
G36*
G01*
X3595000Y56850000D02*
X3895000Y56850000D01*
G75*
G02*
X4045000Y56700000I0J-150000D01*
G01*
X4045000Y55050000D01*
G75*
G02*
X3895000Y54900000I-150000J0D01*
G01*
X3595000Y54900000D01*
G75*
G02*
X3445000Y55050000I0J150000D01*
G01*
X3445000Y56700000D01*
G75*
G02*
X3595000Y56850000I150000J0D01*
G01*
G37*
G36*
G01*
X4865000Y56850000D02*
X5165000Y56850000D01*
G75*
G02*
X5315000Y56700000I0J-150000D01*
G01*
X5315000Y55050000D01*
G75*
G02*
X5165000Y54900000I-150000J0D01*
G01*
X4865000Y54900000D01*
G75*
G02*
X4715000Y55050000I0J150000D01*
G01*
X4715000Y56700000D01*
G75*
G02*
X4865000Y56850000I150000J0D01*
G01*
G37*
G36*
G01*
X6135000Y56850000D02*
X6435000Y56850000D01*
G75*
G02*
X6585000Y56700000I0J-150000D01*
G01*
X6585000Y55050000D01*
G75*
G02*
X6435000Y54900000I-150000J0D01*
G01*
X6135000Y54900000D01*
G75*
G02*
X5985000Y55050000I0J150000D01*
G01*
X5985000Y56700000D01*
G75*
G02*
X6135000Y56850000I150000J0D01*
G01*
G37*
G36*
G01*
X7405000Y56850000D02*
X7705000Y56850000D01*
G75*
G02*
X7855000Y56700000I0J-150000D01*
G01*
X7855000Y55050000D01*
G75*
G02*
X7705000Y54900000I-150000J0D01*
G01*
X7405000Y54900000D01*
G75*
G02*
X7255000Y55050000I0J150000D01*
G01*
X7255000Y56700000D01*
G75*
G02*
X7405000Y56850000I150000J0D01*
G01*
G37*
G36*
G01*
X7405000Y51900000D02*
X7705000Y51900000D01*
G75*
G02*
X7855000Y51750000I0J-150000D01*
G01*
X7855000Y50100000D01*
G75*
G02*
X7705000Y49950000I-150000J0D01*
G01*
X7405000Y49950000D01*
G75*
G02*
X7255000Y50100000I0J150000D01*
G01*
X7255000Y51750000D01*
G75*
G02*
X7405000Y51900000I150000J0D01*
G01*
G37*
G36*
G01*
X6135000Y51900000D02*
X6435000Y51900000D01*
G75*
G02*
X6585000Y51750000I0J-150000D01*
G01*
X6585000Y50100000D01*
G75*
G02*
X6435000Y49950000I-150000J0D01*
G01*
X6135000Y49950000D01*
G75*
G02*
X5985000Y50100000I0J150000D01*
G01*
X5985000Y51750000D01*
G75*
G02*
X6135000Y51900000I150000J0D01*
G01*
G37*
G36*
G01*
X4865000Y51900000D02*
X5165000Y51900000D01*
G75*
G02*
X5315000Y51750000I0J-150000D01*
G01*
X5315000Y50100000D01*
G75*
G02*
X5165000Y49950000I-150000J0D01*
G01*
X4865000Y49950000D01*
G75*
G02*
X4715000Y50100000I0J150000D01*
G01*
X4715000Y51750000D01*
G75*
G02*
X4865000Y51900000I150000J0D01*
G01*
G37*
G36*
G01*
X3595000Y51900000D02*
X3895000Y51900000D01*
G75*
G02*
X4045000Y51750000I0J-150000D01*
G01*
X4045000Y50100000D01*
G75*
G02*
X3895000Y49950000I-150000J0D01*
G01*
X3595000Y49950000D01*
G75*
G02*
X3445000Y50100000I0J150000D01*
G01*
X3445000Y51750000D01*
G75*
G02*
X3595000Y51900000I150000J0D01*
G01*
G37*
G04 #@! TD*
G04 #@! TO.C,C31*
G36*
G01*
X62440000Y74784999D02*
X61760000Y74784999D01*
G75*
G02*
X61675000Y74869999I0J85000D01*
G01*
X61675000Y75549999D01*
G75*
G02*
X61760000Y75634999I85000J0D01*
G01*
X62440000Y75634999D01*
G75*
G02*
X62525000Y75549999I0J-85000D01*
G01*
X62525000Y74869999D01*
G75*
G02*
X62440000Y74784999I-85000J0D01*
G01*
G37*
G36*
G01*
X62440000Y76365001D02*
X61760000Y76365001D01*
G75*
G02*
X61675000Y76450001I0J85000D01*
G01*
X61675000Y77130001D01*
G75*
G02*
X61760000Y77215001I85000J0D01*
G01*
X62440000Y77215001D01*
G75*
G02*
X62525000Y77130001I0J-85000D01*
G01*
X62525000Y76450001D01*
G75*
G02*
X62440000Y76365001I-85000J0D01*
G01*
G37*
G04 #@! TD*
G04 #@! TO.C,F9*
G36*
G01*
X32343750Y38175000D02*
X32856250Y38175000D01*
G75*
G02*
X33075000Y37956250I0J-218750D01*
G01*
X33075000Y37518750D01*
G75*
G02*
X32856250Y37300000I-218750J0D01*
G01*
X32343750Y37300000D01*
G75*
G02*
X32125000Y37518750I0J218750D01*
G01*
X32125000Y37956250D01*
G75*
G02*
X32343750Y38175000I218750J0D01*
G01*
G37*
G36*
G01*
X32343750Y36600000D02*
X32856250Y36600000D01*
G75*
G02*
X33075000Y36381250I0J-218750D01*
G01*
X33075000Y35943750D01*
G75*
G02*
X32856250Y35725000I-218750J0D01*
G01*
X32343750Y35725000D01*
G75*
G02*
X32125000Y35943750I0J218750D01*
G01*
X32125000Y36381250D01*
G75*
G02*
X32343750Y36600000I218750J0D01*
G01*
G37*
G04 #@! TD*
G04 #@! TO.C,C14*
G36*
G01*
X12575000Y13500000D02*
X13625000Y13500000D01*
G75*
G02*
X13725000Y13400000I0J-100000D01*
G01*
X13725000Y12600000D01*
G75*
G02*
X13625000Y12500000I-100000J0D01*
G01*
X12575000Y12500000D01*
G75*
G02*
X12475000Y12600000I0J100000D01*
G01*
X12475000Y13400000D01*
G75*
G02*
X12575000Y13500000I100000J0D01*
G01*
G37*
G36*
G01*
X12575000Y11500000D02*
X13625000Y11500000D01*
G75*
G02*
X13725000Y11400000I0J-100000D01*
G01*
X13725000Y10600000D01*
G75*
G02*
X13625000Y10500000I-100000J0D01*
G01*
X12575000Y10500000D01*
G75*
G02*
X12475000Y10600000I0J100000D01*
G01*
X12475000Y11400000D01*
G75*
G02*
X12575000Y11500000I100000J0D01*
G01*
G37*
G04 #@! TD*
G04 #@! TO.C,C19*
G36*
G01*
X13625000Y6500000D02*
X12575000Y6500000D01*
G75*
G02*
X12475000Y6600000I0J100000D01*
G01*
X12475000Y7400000D01*
G75*
G02*
X12575000Y7500000I100000J0D01*
G01*
X13625000Y7500000D01*
G75*
G02*
X13725000Y7400000I0J-100000D01*
G01*
X13725000Y6600000D01*
G75*
G02*
X13625000Y6500000I-100000J0D01*
G01*
G37*
G36*
G01*
X13625000Y8500000D02*
X12575000Y8500000D01*
G75*
G02*
X12475000Y8600000I0J100000D01*
G01*
X12475000Y9400000D01*
G75*
G02*
X12575000Y9500000I100000J0D01*
G01*
X13625000Y9500000D01*
G75*
G02*
X13725000Y9400000I0J-100000D01*
G01*
X13725000Y8600000D01*
G75*
G02*
X13625000Y8500000I-100000J0D01*
G01*
G37*
G04 #@! TD*
G04 #@! TO.C,F6*
G36*
G01*
X32293750Y66125000D02*
X32806250Y66125000D01*
G75*
G02*
X33025000Y65906250I0J-218750D01*
G01*
X33025000Y65468750D01*
G75*
G02*
X32806250Y65250000I-218750J0D01*
G01*
X32293750Y65250000D01*
G75*
G02*
X32075000Y65468750I0J218750D01*
G01*
X32075000Y65906250D01*
G75*
G02*
X32293750Y66125000I218750J0D01*
G01*
G37*
G36*
G01*
X32293750Y64550000D02*
X32806250Y64550000D01*
G75*
G02*
X33025000Y64331250I0J-218750D01*
G01*
X33025000Y63893750D01*
G75*
G02*
X32806250Y63675000I-218750J0D01*
G01*
X32293750Y63675000D01*
G75*
G02*
X32075000Y63893750I0J218750D01*
G01*
X32075000Y64331250D01*
G75*
G02*
X32293750Y64550000I218750J0D01*
G01*
G37*
G04 #@! TD*
G04 #@! TO.C,R27*
G36*
G01*
X29975000Y38325000D02*
X29975000Y35475000D01*
G75*
G02*
X29725000Y35225000I-250000J0D01*
G01*
X29000000Y35225000D01*
G75*
G02*
X28750000Y35475000I0J250000D01*
G01*
X28750000Y38325000D01*
G75*
G02*
X29000000Y38575000I250000J0D01*
G01*
X29725000Y38575000D01*
G75*
G02*
X29975000Y38325000I0J-250000D01*
G01*
G37*
G36*
G01*
X24050000Y38325000D02*
X24050000Y35475000D01*
G75*
G02*
X23800000Y35225000I-250000J0D01*
G01*
X23075000Y35225000D01*
G75*
G02*
X22825000Y35475000I0J250000D01*
G01*
X22825000Y38325000D01*
G75*
G02*
X23075000Y38575000I250000J0D01*
G01*
X23800000Y38575000D01*
G75*
G02*
X24050000Y38325000I0J-250000D01*
G01*
G37*
G04 #@! TD*
G04 #@! TO.C,R21*
G36*
G01*
X29975000Y59325000D02*
X29975000Y56475000D01*
G75*
G02*
X29725000Y56225000I-250000J0D01*
G01*
X29000000Y56225000D01*
G75*
G02*
X28750000Y56475000I0J250000D01*
G01*
X28750000Y59325000D01*
G75*
G02*
X29000000Y59575000I250000J0D01*
G01*
X29725000Y59575000D01*
G75*
G02*
X29975000Y59325000I0J-250000D01*
G01*
G37*
G36*
G01*
X24050000Y59325000D02*
X24050000Y56475000D01*
G75*
G02*
X23800000Y56225000I-250000J0D01*
G01*
X23075000Y56225000D01*
G75*
G02*
X22825000Y56475000I0J250000D01*
G01*
X22825000Y59325000D01*
G75*
G02*
X23075000Y59575000I250000J0D01*
G01*
X23800000Y59575000D01*
G75*
G02*
X24050000Y59325000I0J-250000D01*
G01*
G37*
G04 #@! TD*
G04 #@! TO.C,C4*
G36*
G01*
X12100000Y22960000D02*
X13150000Y22960000D01*
G75*
G02*
X13250000Y22860000I0J-100000D01*
G01*
X13250000Y22060000D01*
G75*
G02*
X13150000Y21960000I-100000J0D01*
G01*
X12100000Y21960000D01*
G75*
G02*
X12000000Y22060000I0J100000D01*
G01*
X12000000Y22860000D01*
G75*
G02*
X12100000Y22960000I100000J0D01*
G01*
G37*
G36*
G01*
X12100000Y20960000D02*
X13150000Y20960000D01*
G75*
G02*
X13250000Y20860000I0J-100000D01*
G01*
X13250000Y20060000D01*
G75*
G02*
X13150000Y19960000I-100000J0D01*
G01*
X12100000Y19960000D01*
G75*
G02*
X12000000Y20060000I0J100000D01*
G01*
X12000000Y20860000D01*
G75*
G02*
X12100000Y20960000I100000J0D01*
G01*
G37*
G04 #@! TD*
G04 #@! TO.C,F10*
G36*
G01*
X85393750Y36175000D02*
X85906250Y36175000D01*
G75*
G02*
X86125000Y35956250I0J-218750D01*
G01*
X86125000Y35518750D01*
G75*
G02*
X85906250Y35300000I-218750J0D01*
G01*
X85393750Y35300000D01*
G75*
G02*
X85175000Y35518750I0J218750D01*
G01*
X85175000Y35956250D01*
G75*
G02*
X85393750Y36175000I218750J0D01*
G01*
G37*
G36*
G01*
X85393750Y34600000D02*
X85906250Y34600000D01*
G75*
G02*
X86125000Y34381250I0J-218750D01*
G01*
X86125000Y33943750D01*
G75*
G02*
X85906250Y33725000I-218750J0D01*
G01*
X85393750Y33725000D01*
G75*
G02*
X85175000Y33943750I0J218750D01*
G01*
X85175000Y34381250D01*
G75*
G02*
X85393750Y34600000I218750J0D01*
G01*
G37*
G04 #@! TD*
G04 #@! TO.C,D2*
G36*
G01*
X22010000Y70900000D02*
X20990000Y70900000D01*
G75*
G02*
X20900000Y70990000I0J90000D01*
G01*
X20900000Y71710000D01*
G75*
G02*
X20990000Y71800000I90000J0D01*
G01*
X22010000Y71800000D01*
G75*
G02*
X22100000Y71710000I0J-90000D01*
G01*
X22100000Y70990000D01*
G75*
G02*
X22010000Y70900000I-90000J0D01*
G01*
G37*
G36*
G01*
X22010000Y74200000D02*
X20990000Y74200000D01*
G75*
G02*
X20900000Y74290000I0J90000D01*
G01*
X20900000Y75010000D01*
G75*
G02*
X20990000Y75100000I90000J0D01*
G01*
X22010000Y75100000D01*
G75*
G02*
X22100000Y75010000I0J-90000D01*
G01*
X22100000Y74290000D01*
G75*
G02*
X22010000Y74200000I-90000J0D01*
G01*
G37*
G04 #@! TD*
G04 #@! TO.C,D1*
G36*
G01*
X89640000Y18200000D02*
X89160000Y18200000D01*
G75*
G02*
X89100000Y18260000I0J60000D01*
G01*
X89100000Y18740000D01*
G75*
G02*
X89160000Y18800000I60000J0D01*
G01*
X89640000Y18800000D01*
G75*
G02*
X89700000Y18740000I0J-60000D01*
G01*
X89700000Y18260000D01*
G75*
G02*
X89640000Y18200000I-60000J0D01*
G01*
G37*
G36*
G01*
X91840000Y18200000D02*
X91360000Y18200000D01*
G75*
G02*
X91300000Y18260000I0J60000D01*
G01*
X91300000Y18740000D01*
G75*
G02*
X91360000Y18800000I60000J0D01*
G01*
X91840000Y18800000D01*
G75*
G02*
X91900000Y18740000I0J-60000D01*
G01*
X91900000Y18260000D01*
G75*
G02*
X91840000Y18200000I-60000J0D01*
G01*
G37*
G04 #@! TD*
G04 #@! TO.C,R19*
G36*
G01*
X31402500Y49750000D02*
X30622500Y49750000D01*
G75*
G02*
X30552500Y49820000I0J70000D01*
G01*
X30552500Y50380000D01*
G75*
G02*
X30622500Y50450000I70000J0D01*
G01*
X31402500Y50450000D01*
G75*
G02*
X31472500Y50380000I0J-70000D01*
G01*
X31472500Y49820000D01*
G75*
G02*
X31402500Y49750000I-70000J0D01*
G01*
G37*
G36*
G01*
X31402500Y51350000D02*
X30622500Y51350000D01*
G75*
G02*
X30552500Y51420000I0J70000D01*
G01*
X30552500Y51980000D01*
G75*
G02*
X30622500Y52050000I70000J0D01*
G01*
X31402500Y52050000D01*
G75*
G02*
X31472500Y51980000I0J-70000D01*
G01*
X31472500Y51420000D01*
G75*
G02*
X31402500Y51350000I-70000J0D01*
G01*
G37*
G04 #@! TD*
G04 #@! TO.C,R33*
G36*
G01*
X34110000Y31650000D02*
X34890000Y31650000D01*
G75*
G02*
X34960000Y31580000I0J-70000D01*
G01*
X34960000Y31020000D01*
G75*
G02*
X34890000Y30950000I-70000J0D01*
G01*
X34110000Y30950000D01*
G75*
G02*
X34040000Y31020000I0J70000D01*
G01*
X34040000Y31580000D01*
G75*
G02*
X34110000Y31650000I70000J0D01*
G01*
G37*
G36*
G01*
X34110000Y30050000D02*
X34890000Y30050000D01*
G75*
G02*
X34960000Y29980000I0J-70000D01*
G01*
X34960000Y29420000D01*
G75*
G02*
X34890000Y29350000I-70000J0D01*
G01*
X34110000Y29350000D01*
G75*
G02*
X34040000Y29420000I0J70000D01*
G01*
X34040000Y29980000D01*
G75*
G02*
X34110000Y30050000I70000J0D01*
G01*
G37*
G04 #@! TD*
G04 #@! TO.C,C21*
G36*
G01*
X17625000Y6500000D02*
X16575000Y6500000D01*
G75*
G02*
X16475000Y6600000I0J100000D01*
G01*
X16475000Y7400000D01*
G75*
G02*
X16575000Y7500000I100000J0D01*
G01*
X17625000Y7500000D01*
G75*
G02*
X17725000Y7400000I0J-100000D01*
G01*
X17725000Y6600000D01*
G75*
G02*
X17625000Y6500000I-100000J0D01*
G01*
G37*
G36*
G01*
X17625000Y8500000D02*
X16575000Y8500000D01*
G75*
G02*
X16475000Y8600000I0J100000D01*
G01*
X16475000Y9400000D01*
G75*
G02*
X16575000Y9500000I100000J0D01*
G01*
X17625000Y9500000D01*
G75*
G02*
X17725000Y9400000I0J-100000D01*
G01*
X17725000Y8600000D01*
G75*
G02*
X17625000Y8500000I-100000J0D01*
G01*
G37*
G04 #@! TD*
G04 #@! TO.C,F8*
G36*
G01*
X32343750Y45175000D02*
X32856250Y45175000D01*
G75*
G02*
X33075000Y44956250I0J-218750D01*
G01*
X33075000Y44518750D01*
G75*
G02*
X32856250Y44300000I-218750J0D01*
G01*
X32343750Y44300000D01*
G75*
G02*
X32125000Y44518750I0J218750D01*
G01*
X32125000Y44956250D01*
G75*
G02*
X32343750Y45175000I218750J0D01*
G01*
G37*
G36*
G01*
X32343750Y43600000D02*
X32856250Y43600000D01*
G75*
G02*
X33075000Y43381250I0J-218750D01*
G01*
X33075000Y42943750D01*
G75*
G02*
X32856250Y42725000I-218750J0D01*
G01*
X32343750Y42725000D01*
G75*
G02*
X32125000Y42943750I0J218750D01*
G01*
X32125000Y43381250D01*
G75*
G02*
X32343750Y43600000I218750J0D01*
G01*
G37*
G04 #@! TD*
G04 #@! TO.C,R23*
G36*
G01*
X31402500Y42750000D02*
X30622500Y42750000D01*
G75*
G02*
X30552500Y42820000I0J70000D01*
G01*
X30552500Y43380000D01*
G75*
G02*
X30622500Y43450000I70000J0D01*
G01*
X31402500Y43450000D01*
G75*
G02*
X31472500Y43380000I0J-70000D01*
G01*
X31472500Y42820000D01*
G75*
G02*
X31402500Y42750000I-70000J0D01*
G01*
G37*
G36*
G01*
X31402500Y44350000D02*
X30622500Y44350000D01*
G75*
G02*
X30552500Y44420000I0J70000D01*
G01*
X30552500Y44980000D01*
G75*
G02*
X30622500Y45050000I70000J0D01*
G01*
X31402500Y45050000D01*
G75*
G02*
X31472500Y44980000I0J-70000D01*
G01*
X31472500Y44420000D01*
G75*
G02*
X31402500Y44350000I-70000J0D01*
G01*
G37*
G04 #@! TD*
G04 #@! TO.C,R7*
G36*
G01*
X51890000Y5728318D02*
X51110000Y5728318D01*
G75*
G02*
X51040000Y5798318I0J70000D01*
G01*
X51040000Y6358318D01*
G75*
G02*
X51110000Y6428318I70000J0D01*
G01*
X51890000Y6428318D01*
G75*
G02*
X51960000Y6358318I0J-70000D01*
G01*
X51960000Y5798318D01*
G75*
G02*
X51890000Y5728318I-70000J0D01*
G01*
G37*
G36*
G01*
X51890000Y7328318D02*
X51110000Y7328318D01*
G75*
G02*
X51040000Y7398318I0J70000D01*
G01*
X51040000Y7958318D01*
G75*
G02*
X51110000Y8028318I70000J0D01*
G01*
X51890000Y8028318D01*
G75*
G02*
X51960000Y7958318I0J-70000D01*
G01*
X51960000Y7398318D01*
G75*
G02*
X51890000Y7328318I-70000J0D01*
G01*
G37*
G04 #@! TD*
G04 #@! TO.C,R24*
G36*
G01*
X31402500Y35750000D02*
X30622500Y35750000D01*
G75*
G02*
X30552500Y35820000I0J70000D01*
G01*
X30552500Y36380000D01*
G75*
G02*
X30622500Y36450000I70000J0D01*
G01*
X31402500Y36450000D01*
G75*
G02*
X31472500Y36380000I0J-70000D01*
G01*
X31472500Y35820000D01*
G75*
G02*
X31402500Y35750000I-70000J0D01*
G01*
G37*
G36*
G01*
X31402500Y37350000D02*
X30622500Y37350000D01*
G75*
G02*
X30552500Y37420000I0J70000D01*
G01*
X30552500Y37980000D01*
G75*
G02*
X30622500Y38050000I70000J0D01*
G01*
X31402500Y38050000D01*
G75*
G02*
X31472500Y37980000I0J-70000D01*
G01*
X31472500Y37420000D01*
G75*
G02*
X31402500Y37350000I-70000J0D01*
G01*
G37*
G04 #@! TD*
G04 #@! TO.C,F7*
G36*
G01*
X32393750Y52125000D02*
X32906250Y52125000D01*
G75*
G02*
X33125000Y51906250I0J-218750D01*
G01*
X33125000Y51468750D01*
G75*
G02*
X32906250Y51250000I-218750J0D01*
G01*
X32393750Y51250000D01*
G75*
G02*
X32175000Y51468750I0J218750D01*
G01*
X32175000Y51906250D01*
G75*
G02*
X32393750Y52125000I218750J0D01*
G01*
G37*
G36*
G01*
X32393750Y50550000D02*
X32906250Y50550000D01*
G75*
G02*
X33125000Y50331250I0J-218750D01*
G01*
X33125000Y49893750D01*
G75*
G02*
X32906250Y49675000I-218750J0D01*
G01*
X32393750Y49675000D01*
G75*
G02*
X32175000Y49893750I0J218750D01*
G01*
X32175000Y50331250D01*
G75*
G02*
X32393750Y50550000I218750J0D01*
G01*
G37*
G04 #@! TD*
G04 #@! TO.C,C32*
G36*
G01*
X64240000Y74784999D02*
X63560000Y74784999D01*
G75*
G02*
X63475000Y74869999I0J85000D01*
G01*
X63475000Y75549999D01*
G75*
G02*
X63560000Y75634999I85000J0D01*
G01*
X64240000Y75634999D01*
G75*
G02*
X64325000Y75549999I0J-85000D01*
G01*
X64325000Y74869999D01*
G75*
G02*
X64240000Y74784999I-85000J0D01*
G01*
G37*
G36*
G01*
X64240000Y76365001D02*
X63560000Y76365001D01*
G75*
G02*
X63475000Y76450001I0J85000D01*
G01*
X63475000Y77130001D01*
G75*
G02*
X63560000Y77215001I85000J0D01*
G01*
X64240000Y77215001D01*
G75*
G02*
X64325000Y77130001I0J-85000D01*
G01*
X64325000Y76450001D01*
G75*
G02*
X64240000Y76365001I-85000J0D01*
G01*
G37*
G04 #@! TD*
G04 #@! TO.C,R16*
G36*
G01*
X7940000Y91200000D02*
X7160000Y91200000D01*
G75*
G02*
X7090000Y91270000I0J70000D01*
G01*
X7090000Y91830000D01*
G75*
G02*
X7160000Y91900000I70000J0D01*
G01*
X7940000Y91900000D01*
G75*
G02*
X8010000Y91830000I0J-70000D01*
G01*
X8010000Y91270000D01*
G75*
G02*
X7940000Y91200000I-70000J0D01*
G01*
G37*
G36*
G01*
X7940000Y92800000D02*
X7160000Y92800000D01*
G75*
G02*
X7090000Y92870000I0J70000D01*
G01*
X7090000Y93430000D01*
G75*
G02*
X7160000Y93500000I70000J0D01*
G01*
X7940000Y93500000D01*
G75*
G02*
X8010000Y93430000I0J-70000D01*
G01*
X8010000Y92870000D01*
G75*
G02*
X7940000Y92800000I-70000J0D01*
G01*
G37*
G04 #@! TD*
G04 #@! TO.C,U9*
G36*
G01*
X3595000Y74150000D02*
X3895000Y74150000D01*
G75*
G02*
X4045000Y74000000I0J-150000D01*
G01*
X4045000Y72350000D01*
G75*
G02*
X3895000Y72200000I-150000J0D01*
G01*
X3595000Y72200000D01*
G75*
G02*
X3445000Y72350000I0J150000D01*
G01*
X3445000Y74000000D01*
G75*
G02*
X3595000Y74150000I150000J0D01*
G01*
G37*
G36*
G01*
X4865000Y74150000D02*
X5165000Y74150000D01*
G75*
G02*
X5315000Y74000000I0J-150000D01*
G01*
X5315000Y72350000D01*
G75*
G02*
X5165000Y72200000I-150000J0D01*
G01*
X4865000Y72200000D01*
G75*
G02*
X4715000Y72350000I0J150000D01*
G01*
X4715000Y74000000D01*
G75*
G02*
X4865000Y74150000I150000J0D01*
G01*
G37*
G36*
G01*
X6135000Y74150000D02*
X6435000Y74150000D01*
G75*
G02*
X6585000Y74000000I0J-150000D01*
G01*
X6585000Y72350000D01*
G75*
G02*
X6435000Y72200000I-150000J0D01*
G01*
X6135000Y72200000D01*
G75*
G02*
X5985000Y72350000I0J150000D01*
G01*
X5985000Y74000000D01*
G75*
G02*
X6135000Y74150000I150000J0D01*
G01*
G37*
G36*
G01*
X7405000Y74150000D02*
X7705000Y74150000D01*
G75*
G02*
X7855000Y74000000I0J-150000D01*
G01*
X7855000Y72350000D01*
G75*
G02*
X7705000Y72200000I-150000J0D01*
G01*
X7405000Y72200000D01*
G75*
G02*
X7255000Y72350000I0J150000D01*
G01*
X7255000Y74000000D01*
G75*
G02*
X7405000Y74150000I150000J0D01*
G01*
G37*
G36*
G01*
X7405000Y69200000D02*
X7705000Y69200000D01*
G75*
G02*
X7855000Y69050000I0J-150000D01*
G01*
X7855000Y67400000D01*
G75*
G02*
X7705000Y67250000I-150000J0D01*
G01*
X7405000Y67250000D01*
G75*
G02*
X7255000Y67400000I0J150000D01*
G01*
X7255000Y69050000D01*
G75*
G02*
X7405000Y69200000I150000J0D01*
G01*
G37*
G36*
G01*
X6135000Y69200000D02*
X6435000Y69200000D01*
G75*
G02*
X6585000Y69050000I0J-150000D01*
G01*
X6585000Y67400000D01*
G75*
G02*
X6435000Y67250000I-150000J0D01*
G01*
X6135000Y67250000D01*
G75*
G02*
X5985000Y67400000I0J150000D01*
G01*
X5985000Y69050000D01*
G75*
G02*
X6135000Y69200000I150000J0D01*
G01*
G37*
G36*
G01*
X4865000Y69200000D02*
X5165000Y69200000D01*
G75*
G02*
X5315000Y69050000I0J-150000D01*
G01*
X5315000Y67400000D01*
G75*
G02*
X5165000Y67250000I-150000J0D01*
G01*
X4865000Y67250000D01*
G75*
G02*
X4715000Y67400000I0J150000D01*
G01*
X4715000Y69050000D01*
G75*
G02*
X4865000Y69200000I150000J0D01*
G01*
G37*
G36*
G01*
X3595000Y69200000D02*
X3895000Y69200000D01*
G75*
G02*
X4045000Y69050000I0J-150000D01*
G01*
X4045000Y67400000D01*
G75*
G02*
X3895000Y67250000I-150000J0D01*
G01*
X3595000Y67250000D01*
G75*
G02*
X3445000Y67400000I0J150000D01*
G01*
X3445000Y69050000D01*
G75*
G02*
X3595000Y69200000I150000J0D01*
G01*
G37*
G04 #@! TD*
G04 #@! TO.C,R30*
G36*
G01*
X39090000Y27500000D02*
X38310000Y27500000D01*
G75*
G02*
X38240000Y27570000I0J70000D01*
G01*
X38240000Y28130000D01*
G75*
G02*
X38310000Y28200000I70000J0D01*
G01*
X39090000Y28200000D01*
G75*
G02*
X39160000Y28130000I0J-70000D01*
G01*
X39160000Y27570000D01*
G75*
G02*
X39090000Y27500000I-70000J0D01*
G01*
G37*
G36*
G01*
X39090000Y29100000D02*
X38310000Y29100000D01*
G75*
G02*
X38240000Y29170000I0J70000D01*
G01*
X38240000Y29730000D01*
G75*
G02*
X38310000Y29800000I70000J0D01*
G01*
X39090000Y29800000D01*
G75*
G02*
X39160000Y29730000I0J-70000D01*
G01*
X39160000Y29170000D01*
G75*
G02*
X39090000Y29100000I-70000J0D01*
G01*
G37*
G04 #@! TD*
G04 #@! TO.C,R22*
G36*
G01*
X29975000Y52325000D02*
X29975000Y49475000D01*
G75*
G02*
X29725000Y49225000I-250000J0D01*
G01*
X29000000Y49225000D01*
G75*
G02*
X28750000Y49475000I0J250000D01*
G01*
X28750000Y52325000D01*
G75*
G02*
X29000000Y52575000I250000J0D01*
G01*
X29725000Y52575000D01*
G75*
G02*
X29975000Y52325000I0J-250000D01*
G01*
G37*
G36*
G01*
X24050000Y52325000D02*
X24050000Y49475000D01*
G75*
G02*
X23800000Y49225000I-250000J0D01*
G01*
X23075000Y49225000D01*
G75*
G02*
X22825000Y49475000I0J250000D01*
G01*
X22825000Y52325000D01*
G75*
G02*
X23075000Y52575000I250000J0D01*
G01*
X23800000Y52575000D01*
G75*
G02*
X24050000Y52325000I0J-250000D01*
G01*
G37*
G04 #@! TD*
G04 #@! TO.C,R25*
G36*
G01*
X31402500Y28750000D02*
X30622500Y28750000D01*
G75*
G02*
X30552500Y28820000I0J70000D01*
G01*
X30552500Y29380000D01*
G75*
G02*
X30622500Y29450000I70000J0D01*
G01*
X31402500Y29450000D01*
G75*
G02*
X31472500Y29380000I0J-70000D01*
G01*
X31472500Y28820000D01*
G75*
G02*
X31402500Y28750000I-70000J0D01*
G01*
G37*
G36*
G01*
X31402500Y30350000D02*
X30622500Y30350000D01*
G75*
G02*
X30552500Y30420000I0J70000D01*
G01*
X30552500Y30980000D01*
G75*
G02*
X30622500Y31050000I70000J0D01*
G01*
X31402500Y31050000D01*
G75*
G02*
X31472500Y30980000I0J-70000D01*
G01*
X31472500Y30420000D01*
G75*
G02*
X31402500Y30350000I-70000J0D01*
G01*
G37*
G04 #@! TD*
G04 #@! TO.C,L2*
G36*
G01*
X56743750Y88725000D02*
X57256250Y88725000D01*
G75*
G02*
X57475000Y88506250I0J-218750D01*
G01*
X57475000Y88068750D01*
G75*
G02*
X57256250Y87850000I-218750J0D01*
G01*
X56743750Y87850000D01*
G75*
G02*
X56525000Y88068750I0J218750D01*
G01*
X56525000Y88506250D01*
G75*
G02*
X56743750Y88725000I218750J0D01*
G01*
G37*
G36*
G01*
X56743750Y87150000D02*
X57256250Y87150000D01*
G75*
G02*
X57475000Y86931250I0J-218750D01*
G01*
X57475000Y86493750D01*
G75*
G02*
X57256250Y86275000I-218750J0D01*
G01*
X56743750Y86275000D01*
G75*
G02*
X56525000Y86493750I0J218750D01*
G01*
X56525000Y86931250D01*
G75*
G02*
X56743750Y87150000I218750J0D01*
G01*
G37*
G04 #@! TD*
G04 #@! TO.C,C16*
G36*
G01*
X16575000Y13500000D02*
X17625000Y13500000D01*
G75*
G02*
X17725000Y13400000I0J-100000D01*
G01*
X17725000Y12600000D01*
G75*
G02*
X17625000Y12500000I-100000J0D01*
G01*
X16575000Y12500000D01*
G75*
G02*
X16475000Y12600000I0J100000D01*
G01*
X16475000Y13400000D01*
G75*
G02*
X16575000Y13500000I100000J0D01*
G01*
G37*
G36*
G01*
X16575000Y11500000D02*
X17625000Y11500000D01*
G75*
G02*
X17725000Y11400000I0J-100000D01*
G01*
X17725000Y10600000D01*
G75*
G02*
X17625000Y10500000I-100000J0D01*
G01*
X16575000Y10500000D01*
G75*
G02*
X16475000Y10600000I0J100000D01*
G01*
X16475000Y11400000D01*
G75*
G02*
X16575000Y11500000I100000J0D01*
G01*
G37*
G04 #@! TD*
G04 #@! TO.C,R17*
G36*
G01*
X31402500Y63750000D02*
X30622500Y63750000D01*
G75*
G02*
X30552500Y63820000I0J70000D01*
G01*
X30552500Y64380000D01*
G75*
G02*
X30622500Y64450000I70000J0D01*
G01*
X31402500Y64450000D01*
G75*
G02*
X31472500Y64380000I0J-70000D01*
G01*
X31472500Y63820000D01*
G75*
G02*
X31402500Y63750000I-70000J0D01*
G01*
G37*
G36*
G01*
X31402500Y65350000D02*
X30622500Y65350000D01*
G75*
G02*
X30552500Y65420000I0J70000D01*
G01*
X30552500Y65980000D01*
G75*
G02*
X30622500Y66050000I70000J0D01*
G01*
X31402500Y66050000D01*
G75*
G02*
X31472500Y65980000I0J-70000D01*
G01*
X31472500Y65420000D01*
G75*
G02*
X31402500Y65350000I-70000J0D01*
G01*
G37*
G04 #@! TD*
G04 #@! TO.C,C22*
G36*
G01*
X19625000Y6500000D02*
X18575000Y6500000D01*
G75*
G02*
X18475000Y6600000I0J100000D01*
G01*
X18475000Y7400000D01*
G75*
G02*
X18575000Y7500000I100000J0D01*
G01*
X19625000Y7500000D01*
G75*
G02*
X19725000Y7400000I0J-100000D01*
G01*
X19725000Y6600000D01*
G75*
G02*
X19625000Y6500000I-100000J0D01*
G01*
G37*
G36*
G01*
X19625000Y8500000D02*
X18575000Y8500000D01*
G75*
G02*
X18475000Y8600000I0J100000D01*
G01*
X18475000Y9400000D01*
G75*
G02*
X18575000Y9500000I100000J0D01*
G01*
X19625000Y9500000D01*
G75*
G02*
X19725000Y9400000I0J-100000D01*
G01*
X19725000Y8600000D01*
G75*
G02*
X19625000Y8500000I-100000J0D01*
G01*
G37*
G04 #@! TD*
G04 #@! TO.C,R8*
G36*
G01*
X54390000Y5728318D02*
X53610000Y5728318D01*
G75*
G02*
X53540000Y5798318I0J70000D01*
G01*
X53540000Y6358318D01*
G75*
G02*
X53610000Y6428318I70000J0D01*
G01*
X54390000Y6428318D01*
G75*
G02*
X54460000Y6358318I0J-70000D01*
G01*
X54460000Y5798318D01*
G75*
G02*
X54390000Y5728318I-70000J0D01*
G01*
G37*
G36*
G01*
X54390000Y7328318D02*
X53610000Y7328318D01*
G75*
G02*
X53540000Y7398318I0J70000D01*
G01*
X53540000Y7958318D01*
G75*
G02*
X53610000Y8028318I70000J0D01*
G01*
X54390000Y8028318D01*
G75*
G02*
X54460000Y7958318I0J-70000D01*
G01*
X54460000Y7398318D01*
G75*
G02*
X54390000Y7328318I-70000J0D01*
G01*
G37*
G04 #@! TD*
G04 #@! TO.C,R3*
G36*
G01*
X18890000Y19350000D02*
X18110000Y19350000D01*
G75*
G02*
X18040000Y19420000I0J70000D01*
G01*
X18040000Y19980000D01*
G75*
G02*
X18110000Y20050000I70000J0D01*
G01*
X18890000Y20050000D01*
G75*
G02*
X18960000Y19980000I0J-70000D01*
G01*
X18960000Y19420000D01*
G75*
G02*
X18890000Y19350000I-70000J0D01*
G01*
G37*
G36*
G01*
X18890000Y20950000D02*
X18110000Y20950000D01*
G75*
G02*
X18040000Y21020000I0J70000D01*
G01*
X18040000Y21580000D01*
G75*
G02*
X18110000Y21650000I70000J0D01*
G01*
X18890000Y21650000D01*
G75*
G02*
X18960000Y21580000I0J-70000D01*
G01*
X18960000Y21020000D01*
G75*
G02*
X18890000Y20950000I-70000J0D01*
G01*
G37*
G04 #@! TD*
G04 #@! TO.C,R15*
G36*
G01*
X5390000Y91200000D02*
X4610000Y91200000D01*
G75*
G02*
X4540000Y91270000I0J70000D01*
G01*
X4540000Y91830000D01*
G75*
G02*
X4610000Y91900000I70000J0D01*
G01*
X5390000Y91900000D01*
G75*
G02*
X5460000Y91830000I0J-70000D01*
G01*
X5460000Y91270000D01*
G75*
G02*
X5390000Y91200000I-70000J0D01*
G01*
G37*
G36*
G01*
X5390000Y92800000D02*
X4610000Y92800000D01*
G75*
G02*
X4540000Y92870000I0J70000D01*
G01*
X4540000Y93430000D01*
G75*
G02*
X4610000Y93500000I70000J0D01*
G01*
X5390000Y93500000D01*
G75*
G02*
X5460000Y93430000I0J-70000D01*
G01*
X5460000Y92870000D01*
G75*
G02*
X5390000Y92800000I-70000J0D01*
G01*
G37*
G04 #@! TD*
G04 #@! TO.C,R13*
G36*
G01*
X33190000Y74650000D02*
X32410000Y74650000D01*
G75*
G02*
X32340000Y74720000I0J70000D01*
G01*
X32340000Y75280000D01*
G75*
G02*
X32410000Y75350000I70000J0D01*
G01*
X33190000Y75350000D01*
G75*
G02*
X33260000Y75280000I0J-70000D01*
G01*
X33260000Y74720000D01*
G75*
G02*
X33190000Y74650000I-70000J0D01*
G01*
G37*
G36*
G01*
X33190000Y76250000D02*
X32410000Y76250000D01*
G75*
G02*
X32340000Y76320000I0J70000D01*
G01*
X32340000Y76880000D01*
G75*
G02*
X32410000Y76950000I70000J0D01*
G01*
X33190000Y76950000D01*
G75*
G02*
X33260000Y76880000I0J-70000D01*
G01*
X33260000Y76320000D01*
G75*
G02*
X33190000Y76250000I-70000J0D01*
G01*
G37*
G04 #@! TD*
G04 #@! TO.C,C5*
G36*
G01*
X14100000Y22960000D02*
X15150000Y22960000D01*
G75*
G02*
X15250000Y22860000I0J-100000D01*
G01*
X15250000Y22060000D01*
G75*
G02*
X15150000Y21960000I-100000J0D01*
G01*
X14100000Y21960000D01*
G75*
G02*
X14000000Y22060000I0J100000D01*
G01*
X14000000Y22860000D01*
G75*
G02*
X14100000Y22960000I100000J0D01*
G01*
G37*
G36*
G01*
X14100000Y20960000D02*
X15150000Y20960000D01*
G75*
G02*
X15250000Y20860000I0J-100000D01*
G01*
X15250000Y20060000D01*
G75*
G02*
X15150000Y19960000I-100000J0D01*
G01*
X14100000Y19960000D01*
G75*
G02*
X14000000Y20060000I0J100000D01*
G01*
X14000000Y20860000D01*
G75*
G02*
X14100000Y20960000I100000J0D01*
G01*
G37*
G04 #@! TD*
G04 #@! TO.C,F5*
G36*
G01*
X32293750Y59125000D02*
X32806250Y59125000D01*
G75*
G02*
X33025000Y58906250I0J-218750D01*
G01*
X33025000Y58468750D01*
G75*
G02*
X32806250Y58250000I-218750J0D01*
G01*
X32293750Y58250000D01*
G75*
G02*
X32075000Y58468750I0J218750D01*
G01*
X32075000Y58906250D01*
G75*
G02*
X32293750Y59125000I218750J0D01*
G01*
G37*
G36*
G01*
X32293750Y57550000D02*
X32806250Y57550000D01*
G75*
G02*
X33025000Y57331250I0J-218750D01*
G01*
X33025000Y56893750D01*
G75*
G02*
X32806250Y56675000I-218750J0D01*
G01*
X32293750Y56675000D01*
G75*
G02*
X32075000Y56893750I0J218750D01*
G01*
X32075000Y57331250D01*
G75*
G02*
X32293750Y57550000I218750J0D01*
G01*
G37*
G04 #@! TD*
G04 #@! TO.C,R32*
G36*
G01*
X35960000Y32050000D02*
X36740000Y32050000D01*
G75*
G02*
X36810000Y31980000I0J-70000D01*
G01*
X36810000Y31420000D01*
G75*
G02*
X36740000Y31350000I-70000J0D01*
G01*
X35960000Y31350000D01*
G75*
G02*
X35890000Y31420000I0J70000D01*
G01*
X35890000Y31980000D01*
G75*
G02*
X35960000Y32050000I70000J0D01*
G01*
G37*
G36*
G01*
X35960000Y30450000D02*
X36740000Y30450000D01*
G75*
G02*
X36810000Y30380000I0J-70000D01*
G01*
X36810000Y29820000D01*
G75*
G02*
X36740000Y29750000I-70000J0D01*
G01*
X35960000Y29750000D01*
G75*
G02*
X35890000Y29820000I0J70000D01*
G01*
X35890000Y30380000D01*
G75*
G02*
X35960000Y30450000I70000J0D01*
G01*
G37*
G04 #@! TD*
G04 #@! TO.C,C28*
G36*
G01*
X55084999Y84760000D02*
X55084999Y85440000D01*
G75*
G02*
X55169999Y85525000I85000J0D01*
G01*
X55849999Y85525000D01*
G75*
G02*
X55934999Y85440000I0J-85000D01*
G01*
X55934999Y84760000D01*
G75*
G02*
X55849999Y84675000I-85000J0D01*
G01*
X55169999Y84675000D01*
G75*
G02*
X55084999Y84760000I0J85000D01*
G01*
G37*
G36*
G01*
X56665001Y84760000D02*
X56665001Y85440000D01*
G75*
G02*
X56750001Y85525000I85000J0D01*
G01*
X57430001Y85525000D01*
G75*
G02*
X57515001Y85440000I0J-85000D01*
G01*
X57515001Y84760000D01*
G75*
G02*
X57430001Y84675000I-85000J0D01*
G01*
X56750001Y84675000D01*
G75*
G02*
X56665001Y84760000I0J85000D01*
G01*
G37*
G04 #@! TD*
G04 #@! TO.C,U6*
G36*
G01*
X4880000Y90225000D02*
X5180000Y90225000D01*
G75*
G02*
X5330000Y90075000I0J-150000D01*
G01*
X5330000Y88425000D01*
G75*
G02*
X5180000Y88275000I-150000J0D01*
G01*
X4880000Y88275000D01*
G75*
G02*
X4730000Y88425000I0J150000D01*
G01*
X4730000Y90075000D01*
G75*
G02*
X4880000Y90225000I150000J0D01*
G01*
G37*
G36*
G01*
X6150000Y90225000D02*
X6450000Y90225000D01*
G75*
G02*
X6600000Y90075000I0J-150000D01*
G01*
X6600000Y88425000D01*
G75*
G02*
X6450000Y88275000I-150000J0D01*
G01*
X6150000Y88275000D01*
G75*
G02*
X6000000Y88425000I0J150000D01*
G01*
X6000000Y90075000D01*
G75*
G02*
X6150000Y90225000I150000J0D01*
G01*
G37*
G36*
G01*
X7420000Y90225000D02*
X7720000Y90225000D01*
G75*
G02*
X7870000Y90075000I0J-150000D01*
G01*
X7870000Y88425000D01*
G75*
G02*
X7720000Y88275000I-150000J0D01*
G01*
X7420000Y88275000D01*
G75*
G02*
X7270000Y88425000I0J150000D01*
G01*
X7270000Y90075000D01*
G75*
G02*
X7420000Y90225000I150000J0D01*
G01*
G37*
G36*
G01*
X8690000Y90225000D02*
X8990000Y90225000D01*
G75*
G02*
X9140000Y90075000I0J-150000D01*
G01*
X9140000Y88425000D01*
G75*
G02*
X8990000Y88275000I-150000J0D01*
G01*
X8690000Y88275000D01*
G75*
G02*
X8540000Y88425000I0J150000D01*
G01*
X8540000Y90075000D01*
G75*
G02*
X8690000Y90225000I150000J0D01*
G01*
G37*
G36*
G01*
X8690000Y85275000D02*
X8990000Y85275000D01*
G75*
G02*
X9140000Y85125000I0J-150000D01*
G01*
X9140000Y83475000D01*
G75*
G02*
X8990000Y83325000I-150000J0D01*
G01*
X8690000Y83325000D01*
G75*
G02*
X8540000Y83475000I0J150000D01*
G01*
X8540000Y85125000D01*
G75*
G02*
X8690000Y85275000I150000J0D01*
G01*
G37*
G36*
G01*
X7420000Y85275000D02*
X7720000Y85275000D01*
G75*
G02*
X7870000Y85125000I0J-150000D01*
G01*
X7870000Y83475000D01*
G75*
G02*
X7720000Y83325000I-150000J0D01*
G01*
X7420000Y83325000D01*
G75*
G02*
X7270000Y83475000I0J150000D01*
G01*
X7270000Y85125000D01*
G75*
G02*
X7420000Y85275000I150000J0D01*
G01*
G37*
G36*
G01*
X6150000Y85275000D02*
X6450000Y85275000D01*
G75*
G02*
X6600000Y85125000I0J-150000D01*
G01*
X6600000Y83475000D01*
G75*
G02*
X6450000Y83325000I-150000J0D01*
G01*
X6150000Y83325000D01*
G75*
G02*
X6000000Y83475000I0J150000D01*
G01*
X6000000Y85125000D01*
G75*
G02*
X6150000Y85275000I150000J0D01*
G01*
G37*
G36*
G01*
X4880000Y85275000D02*
X5180000Y85275000D01*
G75*
G02*
X5330000Y85125000I0J-150000D01*
G01*
X5330000Y83475000D01*
G75*
G02*
X5180000Y83325000I-150000J0D01*
G01*
X4880000Y83325000D01*
G75*
G02*
X4730000Y83475000I0J150000D01*
G01*
X4730000Y85125000D01*
G75*
G02*
X4880000Y85275000I150000J0D01*
G01*
G37*
G04 #@! TD*
G04 #@! TO.C,R29*
G36*
G01*
X7140000Y43150000D02*
X6360000Y43150000D01*
G75*
G02*
X6290000Y43220000I0J70000D01*
G01*
X6290000Y43780000D01*
G75*
G02*
X6360000Y43850000I70000J0D01*
G01*
X7140000Y43850000D01*
G75*
G02*
X7210000Y43780000I0J-70000D01*
G01*
X7210000Y43220000D01*
G75*
G02*
X7140000Y43150000I-70000J0D01*
G01*
G37*
G36*
G01*
X7140000Y44750000D02*
X6360000Y44750000D01*
G75*
G02*
X6290000Y44820000I0J70000D01*
G01*
X6290000Y45380000D01*
G75*
G02*
X6360000Y45450000I70000J0D01*
G01*
X7140000Y45450000D01*
G75*
G02*
X7210000Y45380000I0J-70000D01*
G01*
X7210000Y44820000D01*
G75*
G02*
X7140000Y44750000I-70000J0D01*
G01*
G37*
G04 #@! TD*
G04 #@! TO.C,R18*
G36*
G01*
X31402500Y56750000D02*
X30622500Y56750000D01*
G75*
G02*
X30552500Y56820000I0J70000D01*
G01*
X30552500Y57380000D01*
G75*
G02*
X30622500Y57450000I70000J0D01*
G01*
X31402500Y57450000D01*
G75*
G02*
X31472500Y57380000I0J-70000D01*
G01*
X31472500Y56820000D01*
G75*
G02*
X31402500Y56750000I-70000J0D01*
G01*
G37*
G36*
G01*
X31402500Y58350000D02*
X30622500Y58350000D01*
G75*
G02*
X30552500Y58420000I0J70000D01*
G01*
X30552500Y58980000D01*
G75*
G02*
X30622500Y59050000I70000J0D01*
G01*
X31402500Y59050000D01*
G75*
G02*
X31472500Y58980000I0J-70000D01*
G01*
X31472500Y58420000D01*
G75*
G02*
X31402500Y58350000I-70000J0D01*
G01*
G37*
G04 #@! TD*
G04 #@! TO.C,L1*
G36*
G01*
X58743750Y88725000D02*
X59256250Y88725000D01*
G75*
G02*
X59475000Y88506250I0J-218750D01*
G01*
X59475000Y88068750D01*
G75*
G02*
X59256250Y87850000I-218750J0D01*
G01*
X58743750Y87850000D01*
G75*
G02*
X58525000Y88068750I0J218750D01*
G01*
X58525000Y88506250D01*
G75*
G02*
X58743750Y88725000I218750J0D01*
G01*
G37*
G36*
G01*
X58743750Y87150000D02*
X59256250Y87150000D01*
G75*
G02*
X59475000Y86931250I0J-218750D01*
G01*
X59475000Y86493750D01*
G75*
G02*
X59256250Y86275000I-218750J0D01*
G01*
X58743750Y86275000D01*
G75*
G02*
X58525000Y86493750I0J218750D01*
G01*
X58525000Y86931250D01*
G75*
G02*
X58743750Y87150000I218750J0D01*
G01*
G37*
G04 #@! TD*
G04 #@! TO.C,C15*
G36*
G01*
X14575000Y13500000D02*
X15625000Y13500000D01*
G75*
G02*
X15725000Y13400000I0J-100000D01*
G01*
X15725000Y12600000D01*
G75*
G02*
X15625000Y12500000I-100000J0D01*
G01*
X14575000Y12500000D01*
G75*
G02*
X14475000Y12600000I0J100000D01*
G01*
X14475000Y13400000D01*
G75*
G02*
X14575000Y13500000I100000J0D01*
G01*
G37*
G36*
G01*
X14575000Y11500000D02*
X15625000Y11500000D01*
G75*
G02*
X15725000Y11400000I0J-100000D01*
G01*
X15725000Y10600000D01*
G75*
G02*
X15625000Y10500000I-100000J0D01*
G01*
X14575000Y10500000D01*
G75*
G02*
X14475000Y10600000I0J100000D01*
G01*
X14475000Y11400000D01*
G75*
G02*
X14575000Y11500000I100000J0D01*
G01*
G37*
G04 #@! TD*
G04 #@! TO.C,R28*
G36*
G01*
X29975000Y31325000D02*
X29975000Y28475000D01*
G75*
G02*
X29725000Y28225000I-250000J0D01*
G01*
X29000000Y28225000D01*
G75*
G02*
X28750000Y28475000I0J250000D01*
G01*
X28750000Y31325000D01*
G75*
G02*
X29000000Y31575000I250000J0D01*
G01*
X29725000Y31575000D01*
G75*
G02*
X29975000Y31325000I0J-250000D01*
G01*
G37*
G36*
G01*
X24050000Y31325000D02*
X24050000Y28475000D01*
G75*
G02*
X23800000Y28225000I-250000J0D01*
G01*
X23075000Y28225000D01*
G75*
G02*
X22825000Y28475000I0J250000D01*
G01*
X22825000Y31325000D01*
G75*
G02*
X23075000Y31575000I250000J0D01*
G01*
X23800000Y31575000D01*
G75*
G02*
X24050000Y31325000I0J-250000D01*
G01*
G37*
G04 #@! TD*
G04 #@! TO.C,C8*
G36*
G01*
X11150000Y15960000D02*
X10100000Y15960000D01*
G75*
G02*
X10000000Y16060000I0J100000D01*
G01*
X10000000Y16860000D01*
G75*
G02*
X10100000Y16960000I100000J0D01*
G01*
X11150000Y16960000D01*
G75*
G02*
X11250000Y16860000I0J-100000D01*
G01*
X11250000Y16060000D01*
G75*
G02*
X11150000Y15960000I-100000J0D01*
G01*
G37*
G36*
G01*
X11150000Y17960000D02*
X10100000Y17960000D01*
G75*
G02*
X10000000Y18060000I0J100000D01*
G01*
X10000000Y18860000D01*
G75*
G02*
X10100000Y18960000I100000J0D01*
G01*
X11150000Y18960000D01*
G75*
G02*
X11250000Y18860000I0J-100000D01*
G01*
X11250000Y18060000D01*
G75*
G02*
X11150000Y17960000I-100000J0D01*
G01*
G37*
G04 #@! TD*
G04 #@! TO.C,C9*
G36*
G01*
X13150000Y15960000D02*
X12100000Y15960000D01*
G75*
G02*
X12000000Y16060000I0J100000D01*
G01*
X12000000Y16860000D01*
G75*
G02*
X12100000Y16960000I100000J0D01*
G01*
X13150000Y16960000D01*
G75*
G02*
X13250000Y16860000I0J-100000D01*
G01*
X13250000Y16060000D01*
G75*
G02*
X13150000Y15960000I-100000J0D01*
G01*
G37*
G36*
G01*
X13150000Y17960000D02*
X12100000Y17960000D01*
G75*
G02*
X12000000Y18060000I0J100000D01*
G01*
X12000000Y18860000D01*
G75*
G02*
X12100000Y18960000I100000J0D01*
G01*
X13150000Y18960000D01*
G75*
G02*
X13250000Y18860000I0J-100000D01*
G01*
X13250000Y18060000D01*
G75*
G02*
X13150000Y17960000I-100000J0D01*
G01*
G37*
G04 #@! TD*
G04 #@! TO.C,C6*
G36*
G01*
X7150000Y15960000D02*
X6100000Y15960000D01*
G75*
G02*
X6000000Y16060000I0J100000D01*
G01*
X6000000Y16860000D01*
G75*
G02*
X6100000Y16960000I100000J0D01*
G01*
X7150000Y16960000D01*
G75*
G02*
X7250000Y16860000I0J-100000D01*
G01*
X7250000Y16060000D01*
G75*
G02*
X7150000Y15960000I-100000J0D01*
G01*
G37*
G36*
G01*
X7150000Y17960000D02*
X6100000Y17960000D01*
G75*
G02*
X6000000Y18060000I0J100000D01*
G01*
X6000000Y18860000D01*
G75*
G02*
X6100000Y18960000I100000J0D01*
G01*
X7150000Y18960000D01*
G75*
G02*
X7250000Y18860000I0J-100000D01*
G01*
X7250000Y18060000D01*
G75*
G02*
X7150000Y17960000I-100000J0D01*
G01*
G37*
G04 #@! TD*
G04 #@! TO.C,C2*
G36*
G01*
X8100000Y22960000D02*
X9150000Y22960000D01*
G75*
G02*
X9250000Y22860000I0J-100000D01*
G01*
X9250000Y22060000D01*
G75*
G02*
X9150000Y21960000I-100000J0D01*
G01*
X8100000Y21960000D01*
G75*
G02*
X8000000Y22060000I0J100000D01*
G01*
X8000000Y22860000D01*
G75*
G02*
X8100000Y22960000I100000J0D01*
G01*
G37*
G36*
G01*
X8100000Y20960000D02*
X9150000Y20960000D01*
G75*
G02*
X9250000Y20860000I0J-100000D01*
G01*
X9250000Y20060000D01*
G75*
G02*
X9150000Y19960000I-100000J0D01*
G01*
X8100000Y19960000D01*
G75*
G02*
X8000000Y20060000I0J100000D01*
G01*
X8000000Y20860000D01*
G75*
G02*
X8100000Y20960000I100000J0D01*
G01*
G37*
G04 #@! TD*
G04 #@! TO.C,C18*
G36*
G01*
X20575000Y13500000D02*
X21625000Y13500000D01*
G75*
G02*
X21725000Y13400000I0J-100000D01*
G01*
X21725000Y12600000D01*
G75*
G02*
X21625000Y12500000I-100000J0D01*
G01*
X20575000Y12500000D01*
G75*
G02*
X20475000Y12600000I0J100000D01*
G01*
X20475000Y13400000D01*
G75*
G02*
X20575000Y13500000I100000J0D01*
G01*
G37*
G36*
G01*
X20575000Y11500000D02*
X21625000Y11500000D01*
G75*
G02*
X21725000Y11400000I0J-100000D01*
G01*
X21725000Y10600000D01*
G75*
G02*
X21625000Y10500000I-100000J0D01*
G01*
X20575000Y10500000D01*
G75*
G02*
X20475000Y10600000I0J100000D01*
G01*
X20475000Y11400000D01*
G75*
G02*
X20575000Y11500000I100000J0D01*
G01*
G37*
G04 #@! TD*
G04 #@! TO.C,R12*
G36*
G01*
X33190000Y78050000D02*
X32410000Y78050000D01*
G75*
G02*
X32340000Y78120000I0J70000D01*
G01*
X32340000Y78680000D01*
G75*
G02*
X32410000Y78750000I70000J0D01*
G01*
X33190000Y78750000D01*
G75*
G02*
X33260000Y78680000I0J-70000D01*
G01*
X33260000Y78120000D01*
G75*
G02*
X33190000Y78050000I-70000J0D01*
G01*
G37*
G36*
G01*
X33190000Y79650000D02*
X32410000Y79650000D01*
G75*
G02*
X32340000Y79720000I0J70000D01*
G01*
X32340000Y80280000D01*
G75*
G02*
X32410000Y80350000I70000J0D01*
G01*
X33190000Y80350000D01*
G75*
G02*
X33260000Y80280000I0J-70000D01*
G01*
X33260000Y79720000D01*
G75*
G02*
X33190000Y79650000I-70000J0D01*
G01*
G37*
G04 #@! TD*
G04 #@! TO.C,C20*
G36*
G01*
X15625000Y6500000D02*
X14575000Y6500000D01*
G75*
G02*
X14475000Y6600000I0J100000D01*
G01*
X14475000Y7400000D01*
G75*
G02*
X14575000Y7500000I100000J0D01*
G01*
X15625000Y7500000D01*
G75*
G02*
X15725000Y7400000I0J-100000D01*
G01*
X15725000Y6600000D01*
G75*
G02*
X15625000Y6500000I-100000J0D01*
G01*
G37*
G36*
G01*
X15625000Y8500000D02*
X14575000Y8500000D01*
G75*
G02*
X14475000Y8600000I0J100000D01*
G01*
X14475000Y9400000D01*
G75*
G02*
X14575000Y9500000I100000J0D01*
G01*
X15625000Y9500000D01*
G75*
G02*
X15725000Y9400000I0J-100000D01*
G01*
X15725000Y8600000D01*
G75*
G02*
X15625000Y8500000I-100000J0D01*
G01*
G37*
G04 #@! TD*
G04 #@! TO.C,R5*
G36*
G01*
X59010000Y65450000D02*
X59790000Y65450000D01*
G75*
G02*
X59860000Y65380000I0J-70000D01*
G01*
X59860000Y64820000D01*
G75*
G02*
X59790000Y64750000I-70000J0D01*
G01*
X59010000Y64750000D01*
G75*
G02*
X58940000Y64820000I0J70000D01*
G01*
X58940000Y65380000D01*
G75*
G02*
X59010000Y65450000I70000J0D01*
G01*
G37*
G36*
G01*
X59010000Y63850000D02*
X59790000Y63850000D01*
G75*
G02*
X59860000Y63780000I0J-70000D01*
G01*
X59860000Y63220000D01*
G75*
G02*
X59790000Y63150000I-70000J0D01*
G01*
X59010000Y63150000D01*
G75*
G02*
X58940000Y63220000I0J70000D01*
G01*
X58940000Y63780000D01*
G75*
G02*
X59010000Y63850000I70000J0D01*
G01*
G37*
G04 #@! TD*
G04 #@! TO.C,R6*
G36*
G01*
X79710000Y74450000D02*
X80490000Y74450000D01*
G75*
G02*
X80560000Y74380000I0J-70000D01*
G01*
X80560000Y73820000D01*
G75*
G02*
X80490000Y73750000I-70000J0D01*
G01*
X79710000Y73750000D01*
G75*
G02*
X79640000Y73820000I0J70000D01*
G01*
X79640000Y74380000D01*
G75*
G02*
X79710000Y74450000I70000J0D01*
G01*
G37*
G36*
G01*
X79710000Y72850000D02*
X80490000Y72850000D01*
G75*
G02*
X80560000Y72780000I0J-70000D01*
G01*
X80560000Y72220000D01*
G75*
G02*
X80490000Y72150000I-70000J0D01*
G01*
X79710000Y72150000D01*
G75*
G02*
X79640000Y72220000I0J70000D01*
G01*
X79640000Y72780000D01*
G75*
G02*
X79710000Y72850000I70000J0D01*
G01*
G37*
G04 #@! TD*
G04 #@! TO.C,R2*
G36*
G01*
X18890000Y22350000D02*
X18110000Y22350000D01*
G75*
G02*
X18040000Y22420000I0J70000D01*
G01*
X18040000Y22980000D01*
G75*
G02*
X18110000Y23050000I70000J0D01*
G01*
X18890000Y23050000D01*
G75*
G02*
X18960000Y22980000I0J-70000D01*
G01*
X18960000Y22420000D01*
G75*
G02*
X18890000Y22350000I-70000J0D01*
G01*
G37*
G36*
G01*
X18890000Y23950000D02*
X18110000Y23950000D01*
G75*
G02*
X18040000Y24020000I0J70000D01*
G01*
X18040000Y24580000D01*
G75*
G02*
X18110000Y24650000I70000J0D01*
G01*
X18890000Y24650000D01*
G75*
G02*
X18960000Y24580000I0J-70000D01*
G01*
X18960000Y24020000D01*
G75*
G02*
X18890000Y23950000I-70000J0D01*
G01*
G37*
G04 #@! TD*
G04 #@! TO.C,U8*
G36*
G01*
X31275000Y80150000D02*
X31275000Y79850000D01*
G75*
G02*
X31125000Y79700000I-150000J0D01*
G01*
X29475000Y79700000D01*
G75*
G02*
X29325000Y79850000I0J150000D01*
G01*
X29325000Y80150000D01*
G75*
G02*
X29475000Y80300000I150000J0D01*
G01*
X31125000Y80300000D01*
G75*
G02*
X31275000Y80150000I0J-150000D01*
G01*
G37*
G36*
G01*
X31275000Y78880000D02*
X31275000Y78580000D01*
G75*
G02*
X31125000Y78430000I-150000J0D01*
G01*
X29475000Y78430000D01*
G75*
G02*
X29325000Y78580000I0J150000D01*
G01*
X29325000Y78880000D01*
G75*
G02*
X29475000Y79030000I150000J0D01*
G01*
X31125000Y79030000D01*
G75*
G02*
X31275000Y78880000I0J-150000D01*
G01*
G37*
G36*
G01*
X31275000Y77610000D02*
X31275000Y77310000D01*
G75*
G02*
X31125000Y77160000I-150000J0D01*
G01*
X29475000Y77160000D01*
G75*
G02*
X29325000Y77310000I0J150000D01*
G01*
X29325000Y77610000D01*
G75*
G02*
X29475000Y77760000I150000J0D01*
G01*
X31125000Y77760000D01*
G75*
G02*
X31275000Y77610000I0J-150000D01*
G01*
G37*
G36*
G01*
X31275000Y76340000D02*
X31275000Y76040000D01*
G75*
G02*
X31125000Y75890000I-150000J0D01*
G01*
X29475000Y75890000D01*
G75*
G02*
X29325000Y76040000I0J150000D01*
G01*
X29325000Y76340000D01*
G75*
G02*
X29475000Y76490000I150000J0D01*
G01*
X31125000Y76490000D01*
G75*
G02*
X31275000Y76340000I0J-150000D01*
G01*
G37*
G36*
G01*
X26325000Y76340000D02*
X26325000Y76040000D01*
G75*
G02*
X26175000Y75890000I-150000J0D01*
G01*
X24525000Y75890000D01*
G75*
G02*
X24375000Y76040000I0J150000D01*
G01*
X24375000Y76340000D01*
G75*
G02*
X24525000Y76490000I150000J0D01*
G01*
X26175000Y76490000D01*
G75*
G02*
X26325000Y76340000I0J-150000D01*
G01*
G37*
G36*
G01*
X26325000Y77610000D02*
X26325000Y77310000D01*
G75*
G02*
X26175000Y77160000I-150000J0D01*
G01*
X24525000Y77160000D01*
G75*
G02*
X24375000Y77310000I0J150000D01*
G01*
X24375000Y77610000D01*
G75*
G02*
X24525000Y77760000I150000J0D01*
G01*
X26175000Y77760000D01*
G75*
G02*
X26325000Y77610000I0J-150000D01*
G01*
G37*
G36*
G01*
X26325000Y78880000D02*
X26325000Y78580000D01*
G75*
G02*
X26175000Y78430000I-150000J0D01*
G01*
X24525000Y78430000D01*
G75*
G02*
X24375000Y78580000I0J150000D01*
G01*
X24375000Y78880000D01*
G75*
G02*
X24525000Y79030000I150000J0D01*
G01*
X26175000Y79030000D01*
G75*
G02*
X26325000Y78880000I0J-150000D01*
G01*
G37*
G36*
G01*
X26325000Y80150000D02*
X26325000Y79850000D01*
G75*
G02*
X26175000Y79700000I-150000J0D01*
G01*
X24525000Y79700000D01*
G75*
G02*
X24375000Y79850000I0J150000D01*
G01*
X24375000Y80150000D01*
G75*
G02*
X24525000Y80300000I150000J0D01*
G01*
X26175000Y80300000D01*
G75*
G02*
X26325000Y80150000I0J-150000D01*
G01*
G37*
G04 #@! TD*
M02*
